G04 Easy-PC Gerber Version 25.0 Build 5877*
G04 #@! TF.Part,Single*
G04 #@! TF.FilePolarity,Positive*
%FSLAX35Y35*%
%MOIN*%
G04 #@! TA.AperFunction,ViaDrill*
%ADD15C,0.02400*%
%ADD16C,0.03200*%
G04 #@! TA.AperFunction,MechanicalDrill*
%ADD144C,0.03500*%
G04 #@! TA.AperFunction,ComponentDrill*
%ADD146C,0.03700*%
%ADD145C,0.03740*%
%ADD17C,0.03800*%
%ADD97C,0.04213*%
%ADD147C,0.10000*%
G04 #@! TA.AperFunction,MechanicalDrill*
%ADD114C,0.13500*%
G04 #@! TD.AperFunction*
X0Y0D02*
D02*
D15*
X30250Y282750D03*
X35250Y255250D03*
X40250Y285250D03*
X55250Y245250D03*
X85250Y130250D03*
X90250Y135250D03*
X110250Y130250D03*
X125250Y135250D03*
Y245250D03*
X157750Y225250D03*
X175250Y185250D03*
X185250Y195250D03*
X187750Y202750D03*
Y210250D03*
Y220250D03*
D02*
D16*
X82750Y307750D03*
X83550Y95250D03*
X97750Y150250D03*
Y200850D03*
Y229650D03*
Y297750D03*
X110171Y205250D03*
X110211Y265211D03*
X117750Y127750D03*
X122750Y97750D03*
X145250Y235250D03*
X157750Y270250D03*
X177750Y250250D03*
X180250Y150250D03*
Y190250D03*
X195250Y127750D03*
Y185250D03*
D02*
D17*
X75250Y140250D03*
Y150250D03*
Y160250D03*
Y170250D03*
Y180250D03*
Y190250D03*
Y200250D03*
Y210250D03*
Y220250D03*
Y230250D03*
Y240250D03*
Y250250D03*
Y260250D03*
Y270250D03*
Y280250D03*
X135250Y140250D03*
Y150250D03*
Y160250D03*
Y170250D03*
Y180250D03*
Y190250D03*
Y200250D03*
Y210250D03*
Y220250D03*
Y230250D03*
Y240250D03*
Y250250D03*
Y260250D03*
Y270250D03*
Y280250D03*
D02*
D97*
X205250Y180250D03*
Y190250D03*
Y200250D03*
Y210250D03*
Y220250D03*
Y230250D03*
Y240250D03*
Y250250D03*
X215250Y180250D03*
Y190250D03*
Y200250D03*
Y210250D03*
Y220250D03*
Y230250D03*
Y240250D03*
Y250250D03*
D02*
D114*
X25250Y55250D03*
Y395250D03*
X225250Y55250D03*
Y395250D03*
D02*
D144*
X27750Y297750D03*
X37750D03*
X40250Y130250D03*
Y140250D03*
Y150250D03*
Y160250D03*
Y170250D03*
Y180250D03*
Y190250D03*
Y200250D03*
X47750Y297750D03*
X57750D03*
X200250Y337750D03*
X230250D03*
D02*
D145*
X157750Y320250D03*
X177750D03*
D02*
D146*
X103650Y60250D03*
X109050Y50250D03*
X114450Y60250D03*
X119850Y50250D03*
X125250Y60250D03*
X130650Y50250D03*
X136050Y60250D03*
X141450Y50250D03*
X146850Y60250D03*
D02*
D147*
X76050Y55250D03*
X174450D03*
X0Y0D02*
M02*
