G04 Easy-PC Gerber Version 25.0 Build 5877*
G04 #@! TF.Part,Single*
G04 #@! TF.FileFunction,Legend,Top*
G04 #@! TF.FilePolarity,Positive*
%FSLAX35Y35*%
%MOIN*%
%ADD14C,0.00394*%
%ADD19C,0.00500*%
%ADD18C,0.00787*%
%ADD117C,0.01000*%
%ADD70C,0.01575*%
G04 #@! TD.AperFunction*
X0Y0D02*
D02*
D14*
X151018Y320250D02*
X184482D02*
G75*
G03*
X151018I-16732J0D01*
G01*
X184482D02*
G75*
G02*
X151018I-16732J0D01*
G01*
X226589Y293636D02*
Y136864D01*
X193911D01*
Y293636D01*
X226589D01*
D02*
D18*
X24069Y278006D02*
X30081D01*
X31459Y277250D02*
X44041D01*
Y243250D01*
X31459D01*
Y277250D01*
X127396Y104049D02*
Y91451D01*
X108104D01*
Y104049D01*
X127396D01*
X127907Y111431D02*
Y105427D01*
D02*
D19*
X20875Y286813D02*
X20563Y286500D01*
X19937Y286187D01*
X19000D01*
X18375Y286500D01*
X18063Y286813D01*
X17750Y287437D01*
Y288687D01*
X18063Y289313D01*
X18375Y289625D01*
X19000Y289937D01*
X19937D01*
X20563Y289625D01*
X20875Y289313D01*
X22750Y287437D02*
Y288687D01*
X23063Y289313D01*
X23375Y289625D01*
X24000Y289937D01*
X24625D01*
X25250Y289625D01*
X25563Y289313D01*
X25875Y288687D01*
Y287437D01*
X25563Y286813D01*
X25250Y286500D01*
X24625Y286187D01*
X24000D01*
X23375Y286500D01*
X23063Y286813D01*
X22750Y287437D01*
X27750Y286187D02*
Y289937D01*
X29313Y288063D01*
X30875Y289937D01*
Y286187D01*
X35250D02*
X32750D01*
X34937Y288375D01*
X35250Y289000D01*
X34937Y289625D01*
X34313Y289937D01*
X33375D01*
X32750Y289625D01*
X25050Y327150D02*
X40250D01*
Y333550D01*
X25050D01*
Y327150D01*
X27750Y307437D02*
Y308375D01*
X28063D01*
X28687Y308063D01*
X29000Y307750D01*
X29313Y307125D01*
Y306500D01*
X29000Y305875D01*
X28687Y305563D01*
X28063Y305250D01*
X26813D01*
X26187Y305563D01*
X25875Y305875D01*
X25563Y306500D01*
Y307125D01*
X25875Y307750D01*
X26187Y308063D01*
X26813Y308375D01*
X29313Y310250D02*
X25563D01*
X29313Y313375D01*
X25563D01*
X29313Y315250D02*
X25563D01*
Y317125D01*
X25875Y317750D01*
X26187Y318063D01*
X26813Y318375D01*
X28063D01*
X28687Y318063D01*
X29000Y317750D01*
X29313Y317125D01*
Y315250D01*
X30250Y336187D02*
Y339937D01*
X32437D01*
X33063Y339625D01*
X33375Y339000D01*
X33063Y338375D01*
X32437Y338063D01*
X30250D01*
X32437D02*
X33375Y336187D01*
X36813D02*
Y339937D01*
X35250Y337437D01*
X37750D01*
X35250Y118687D02*
Y122437D01*
X37437D01*
X38063Y122125D01*
X38375Y121500D01*
X38063Y120875D01*
X37437Y120563D01*
X35250D01*
X40875Y118687D02*
X42125D01*
X41500D02*
Y122437D01*
X40875Y121813D01*
X39313Y305250D02*
X35563D01*
Y307437D01*
X35875Y308063D01*
X36500Y308375D01*
X37125Y308063D01*
X37437Y307437D01*
Y305250D01*
Y307437D02*
X39313Y308375D01*
Y310250D02*
X36813Y312750D01*
X39313D02*
X36813Y310250D01*
X43687Y361187D02*
X44937D01*
X44313D02*
Y364937D01*
X43687D02*
X44937D01*
X47750Y361500D02*
X48375Y361187D01*
X49625D01*
X50250Y361500D01*
Y362125D01*
X49625Y362437D01*
X48375D01*
X47750Y362750D01*
Y363375D01*
X48375Y363687D01*
X49625D01*
X50250Y363375D01*
X52750Y361500D02*
X53375Y361187D01*
X54625D01*
X55250Y361500D01*
Y362125D01*
X54625Y362437D01*
X53375D01*
X52750Y362750D01*
Y363375D01*
X53375Y363687D01*
X54625D01*
X55250Y363375D01*
X57750Y363687D02*
Y362125D01*
X58063Y361500D01*
X58687Y361187D01*
X59313D01*
X59937Y361500D01*
X60250Y362125D01*
Y363687D02*
Y361187D01*
X65250Y361500D02*
X64937Y361187D01*
X64313D01*
X63687D01*
X63063Y361500D01*
X62750Y362125D01*
Y363063D01*
X63063Y363375D01*
X63687Y363687D01*
X64313D01*
X64937Y363375D01*
X65250Y363063D01*
Y362750D01*
X64937Y362437D01*
X64313Y362125D01*
X63687D01*
X63063Y362437D01*
X62750Y362750D01*
X73375Y361187D02*
X74625D01*
X74000D02*
Y364937D01*
X73375Y364313D01*
X84937Y361187D02*
X84313Y362125D01*
Y364313D01*
X84937Y364937D01*
X89000Y361187D02*
Y364313D01*
X89313Y364625D01*
X89625D01*
X89937Y364313D01*
X88375Y363375D02*
X89625D01*
X94000Y361187D02*
Y363687D01*
Y364625D02*
X97750Y361187D02*
Y363687D01*
Y362750D02*
X98063Y363375D01*
X98687Y363687D01*
X99313D01*
X99937Y363375D01*
X102750Y361500D02*
X103375Y361187D01*
X104625D01*
X105250Y361500D01*
Y362125D01*
X104625Y362437D01*
X103375D01*
X102750Y362750D01*
Y363375D01*
X103375Y363687D01*
X104625D01*
X105250Y363375D01*
X108271Y363687D02*
X109729D01*
X109000Y364313D02*
Y361500D01*
X109313Y361187D01*
X109625D01*
X109937Y361500D01*
X117750Y363687D02*
Y360250D01*
Y362125D02*
X118063Y361500D01*
X118687Y361187D01*
X119313D01*
X119937Y361500D01*
X120250Y362125D01*
Y362750D01*
X119937Y363375D01*
X119313Y363687D01*
X118687D01*
X118063Y363375D01*
X117750Y362750D01*
Y362125D01*
X122750Y361187D02*
Y363687D01*
Y362750D02*
X123063Y363375D01*
X123687Y363687D01*
X124313D01*
X124937Y363375D01*
X127750Y362125D02*
X128063Y361500D01*
X128687Y361187D01*
X129313D01*
X129937Y361500D01*
X130250Y362125D01*
Y362750D01*
X129937Y363375D01*
X129313Y363687D01*
X128687D01*
X128063Y363375D01*
X127750Y362750D01*
Y362125D01*
X133271Y363687D02*
X134729D01*
X134000Y364313D02*
Y361500D01*
X134313Y361187D01*
X134625D01*
X134937Y361500D01*
X137750Y362125D02*
X138063Y361500D01*
X138687Y361187D01*
X139313D01*
X139937Y361500D01*
X140250Y362125D01*
Y362750D01*
X139937Y363375D01*
X139313Y363687D01*
X138687D01*
X138063Y363375D01*
X137750Y362750D01*
Y362125D01*
X143687Y361187D02*
X144313Y362125D01*
Y364313D01*
X143687Y364937D01*
X42750Y374313D02*
X43063Y374000D01*
X43687Y373687D01*
X44313Y374000D01*
X44625Y374313D01*
Y377437D01*
X45250D01*
X44625D02*
X43375D01*
X47750Y374625D02*
X48063Y374000D01*
X48687Y373687D01*
X49313D01*
X49937Y374000D01*
X50250Y374625D01*
Y375250D01*
X49937Y375875D01*
X49313Y376187D01*
X48687D01*
X48063Y375875D01*
X47750Y375250D01*
Y374625D01*
X52750Y373687D02*
Y376187D01*
Y375250D02*
X53063Y375875D01*
X53687Y376187D01*
X54313D01*
X54937Y375875D01*
X55250Y375250D01*
Y373687D01*
X62750D02*
Y377437D01*
X65875D01*
X65250Y375563D02*
X62750D01*
X67750Y373687D02*
Y376187D01*
Y375250D02*
X68063Y375875D01*
X68687Y376187D01*
X69313D01*
X69937Y375875D01*
X75250Y374000D02*
X74937Y373687D01*
X74313D01*
X73687D01*
X73063Y374000D01*
X72750Y374625D01*
Y375563D01*
X73063Y375875D01*
X73687Y376187D01*
X74313D01*
X74937Y375875D01*
X75250Y375563D01*
Y375250D01*
X74937Y374937D01*
X74313Y374625D01*
X73687D01*
X73063Y374937D01*
X72750Y375250D01*
X80250Y374000D02*
X79937Y373687D01*
X79313D01*
X78687D01*
X78063Y374000D01*
X77750Y374625D01*
Y375563D01*
X78063Y375875D01*
X78687Y376187D01*
X79313D01*
X79937Y375875D01*
X80250Y375563D01*
Y375250D01*
X79937Y374937D01*
X79313Y374625D01*
X78687D01*
X78063Y374937D01*
X77750Y375250D01*
X82750Y373687D02*
Y376187D01*
Y375875D02*
X83063Y376187D01*
X83687D01*
X84000Y375875D01*
Y374937D01*
Y375875D02*
X84313Y376187D01*
X84937D01*
X85250Y375875D01*
Y373687D01*
X87750Y375875D02*
X88375Y376187D01*
X89313D01*
X89937Y375875D01*
X90250Y375250D01*
Y374313D01*
X89937Y374000D01*
X89313Y373687D01*
X88687D01*
X88063Y374000D01*
X87750Y374313D01*
Y374625D01*
X88063Y374937D01*
X88687Y375250D01*
X89313D01*
X89937Y374937D01*
X90250Y374625D01*
Y374313D02*
Y373687D01*
X92750D02*
Y376187D01*
Y375250D02*
X93063Y375875D01*
X93687Y376187D01*
X94313D01*
X94937Y375875D01*
X95250Y375250D01*
Y373687D01*
X102750Y374937D02*
X105250D01*
X112750Y373687D02*
Y377437D01*
X114313Y375563D01*
X115875Y377437D01*
Y373687D01*
X117750Y375875D02*
X118375Y376187D01*
X119313D01*
X119937Y375875D01*
X120250Y375250D01*
Y374313D01*
X119937Y374000D01*
X119313Y373687D01*
X118687D01*
X118063Y374000D01*
X117750Y374313D01*
Y374625D01*
X118063Y374937D01*
X118687Y375250D01*
X119313D01*
X119937Y374937D01*
X120250Y374625D01*
Y374313D02*
Y373687D01*
X122750Y376187D02*
X123063Y374937D01*
X123687Y374313D01*
X124313D01*
X124937Y374937D01*
X125250Y376187D01*
X124937Y374937D02*
X124625Y373687D01*
X124313Y373063D01*
X123687Y372750D01*
X123063Y373063D01*
X135250Y373687D02*
X132750D01*
X134937Y375875D01*
X135250Y376500D01*
X134937Y377125D01*
X134313Y377437D01*
X133375D01*
X132750Y377125D01*
X138063Y374000D02*
X138687Y373687D01*
X139313D01*
X139937Y374000D01*
X140250Y374625D01*
Y376500D01*
X139937Y377125D01*
X139313Y377437D01*
X138687D01*
X138063Y377125D01*
X137750Y376500D01*
Y374625D01*
X138063Y374000D01*
X139937Y377125D01*
X145250Y373687D02*
X142750D01*
X144937Y375875D01*
X145250Y376500D01*
X144937Y377125D01*
X144313Y377437D01*
X143375D01*
X142750Y377125D01*
X148063Y374000D02*
X148687Y373687D01*
X149313D01*
X149937Y374000D01*
X150250Y374625D01*
X149937Y375250D01*
X149313Y375563D01*
X148687D01*
X149313D02*
X149937Y375875D01*
X150250Y376500D01*
X149937Y377125D01*
X149313Y377437D01*
X148687D01*
X148063Y377125D01*
X47500Y387625D02*
X47025Y387150D01*
X46075Y386675D01*
X44650D01*
X43700Y387150D01*
X43225Y387625D01*
X42750Y388575D01*
Y390475D01*
X43225Y391425D01*
X43700Y391900D01*
X44650Y392375D01*
X46075D01*
X47025Y391900D01*
X47500Y391425D01*
X50350Y388100D02*
X50825Y387150D01*
X51775Y386675D01*
X52725D01*
X53675Y387150D01*
X54150Y388100D01*
Y389050D01*
X53675Y390000D01*
X52725Y390475D01*
X51775D01*
X50825Y390000D01*
X50350Y389050D01*
Y388100D01*
X57950Y386675D02*
Y390475D01*
Y389050D02*
X58425Y390000D01*
X59375Y390475D01*
X60325D01*
X61275Y390000D01*
X61750Y389050D01*
Y386675D01*
X66342Y390475D02*
X68558D01*
X67450Y391425D02*
Y387150D01*
X67925Y386675D01*
X68400D01*
X68875Y387150D01*
X73150Y386675D02*
Y390475D01*
Y389050D02*
X73625Y390000D01*
X74575Y390475D01*
X75525D01*
X76475Y390000D01*
X80750Y388100D02*
X81225Y387150D01*
X82175Y386675D01*
X83125D01*
X84075Y387150D01*
X84550Y388100D01*
Y389050D01*
X84075Y390000D01*
X83125Y390475D01*
X82175D01*
X81225Y390000D01*
X80750Y389050D01*
Y388100D01*
X90725Y386675D02*
X90250D01*
Y392375D01*
X98325Y386675D02*
X97850D01*
Y392375D01*
X107350Y387150D02*
X106875Y386675D01*
X105925D01*
X104975D01*
X104025Y387150D01*
X103550Y388100D01*
Y389525D01*
X104025Y390000D01*
X104975Y390475D01*
X105925D01*
X106875Y390000D01*
X107350Y389525D01*
Y389050D01*
X106875Y388575D01*
X105925Y388100D01*
X104975D01*
X104025Y388575D01*
X103550Y389050D01*
X111150Y386675D02*
Y390475D01*
Y389050D02*
X111625Y390000D01*
X112575Y390475D01*
X113525D01*
X114475Y390000D01*
X131100Y387625D02*
X130625Y387150D01*
X129675Y386675D01*
X128250D01*
X127300Y387150D01*
X126825Y387625D01*
X126350Y388575D01*
Y390475D01*
X126825Y391425D01*
X127300Y391900D01*
X128250Y392375D01*
X129675D01*
X130625Y391900D01*
X131100Y391425D01*
X133950Y388100D02*
X134425Y387150D01*
X135375Y386675D01*
X136325D01*
X137275Y387150D01*
X137750Y388100D01*
Y389050D01*
X137275Y390000D01*
X136325Y390475D01*
X135375D01*
X134425Y390000D01*
X133950Y389050D01*
Y388100D01*
X141550Y386675D02*
Y390475D01*
Y389050D02*
X142025Y390000D01*
X142975Y390475D01*
X143925D01*
X144875Y390000D01*
X152950Y387150D02*
X152475Y386675D01*
X151525D01*
X150575D01*
X149625Y387150D01*
X149150Y388100D01*
Y389525D01*
X149625Y390000D01*
X150575Y390475D01*
X151525D01*
X152475Y390000D01*
X152950Y389525D01*
Y389050D01*
X152475Y388575D01*
X151525Y388100D01*
X150575D01*
X149625Y388575D01*
X149150Y389050D01*
X164350Y386675D02*
Y392375D01*
X166725Y389525D01*
X169100Y392375D01*
Y386675D01*
X171950Y388100D02*
X172425Y387150D01*
X173375Y386675D01*
X174325D01*
X175275Y387150D01*
X175750Y388100D01*
Y389050D01*
X175275Y390000D01*
X174325Y390475D01*
X173375D01*
X172425Y390000D01*
X171950Y389050D01*
Y388100D01*
X183350Y389050D02*
X182875Y390000D01*
X181925Y390475D01*
X180975D01*
X180025Y390000D01*
X179550Y389050D01*
Y388100D01*
X180025Y387150D01*
X180975Y386675D01*
X181925D01*
X182875Y387150D01*
X183350Y388100D01*
Y386675D02*
Y392375D01*
X187150Y390475D02*
Y388100D01*
X187625Y387150D01*
X188575Y386675D01*
X189525D01*
X190475Y387150D01*
X190950Y388100D01*
Y390475D02*
Y386675D01*
X197125D02*
X196650D01*
Y392375D01*
X206150Y387150D02*
X205675Y386675D01*
X204725D01*
X203775D01*
X202825Y387150D01*
X202350Y388100D01*
Y389525D01*
X202825Y390000D01*
X203775Y390475D01*
X204725D01*
X205675Y390000D01*
X206150Y389525D01*
Y389050D01*
X205675Y388575D01*
X204725Y388100D01*
X203775D01*
X202825Y388575D01*
X202350Y389050D01*
X42750Y407750D02*
X43250Y401750D01*
X45250Y404750D01*
X47250Y401750D01*
X47750Y407750D01*
X54750Y402250D02*
X54250Y401750D01*
X53250D01*
X52250D01*
X51250Y402250D01*
X50750Y403250D01*
Y404750D01*
X51250Y405250D01*
X52250Y405750D01*
X53250D01*
X54250Y405250D01*
X54750Y404750D01*
Y404250D01*
X54250Y403750D01*
X53250Y403250D01*
X52250D01*
X51250Y403750D01*
X50750Y404250D01*
X58750Y402250D02*
X59750Y401750D01*
X61750D01*
X62750Y402250D01*
Y403250D01*
X61750Y403750D01*
X59750D01*
X58750Y404250D01*
Y405250D01*
X59750Y405750D01*
X61750D01*
X62750Y405250D01*
X67583Y405750D02*
X69917D01*
X68750Y406750D02*
Y402250D01*
X69250Y401750D01*
X69750D01*
X70250Y402250D01*
X86250Y404750D02*
X87250Y404250D01*
X87750Y403250D01*
X87250Y402250D01*
X86250Y401750D01*
X82750D01*
Y407750D01*
X86250D01*
X87250Y407250D01*
X87750Y406250D01*
X87250Y405250D01*
X86250Y404750D01*
X82750D01*
X90750Y405750D02*
Y403250D01*
X91250Y402250D01*
X92250Y401750D01*
X93250D01*
X94250Y402250D01*
X94750Y403250D01*
Y405750D02*
Y401750D01*
X102750Y405250D02*
X101750Y405750D01*
X100250D01*
X99250Y405250D01*
X98750Y404250D01*
Y403250D01*
X99250Y402250D01*
X100250Y401750D01*
X101750D01*
X102750Y402250D01*
X106750Y401750D02*
Y407750D01*
Y403750D02*
X108250D01*
X110750Y405750D01*
X108250Y403750D02*
X110750Y401750D01*
X117250D02*
X116750D01*
Y407750D01*
X122750Y405250D02*
X123750Y405750D01*
X125250D01*
X126250Y405250D01*
X126750Y404250D01*
Y402750D01*
X126250Y402250D01*
X125250Y401750D01*
X124250D01*
X123250Y402250D01*
X122750Y402750D01*
Y403250D01*
X123250Y403750D01*
X124250Y404250D01*
X125250D01*
X126250Y403750D01*
X126750Y403250D01*
Y402750D02*
Y401750D01*
X130750D02*
Y405750D01*
Y404250D02*
X131250Y405250D01*
X132250Y405750D01*
X133250D01*
X134250Y405250D01*
X134750Y404250D01*
Y401750D01*
X142750Y404250D02*
X142250Y405250D01*
X141250Y405750D01*
X140250D01*
X139250Y405250D01*
X138750Y404250D01*
Y403250D01*
X139250Y402250D01*
X140250Y401750D01*
X141250D01*
X142250Y402250D01*
X142750Y403250D01*
Y401750D02*
Y407750D01*
X154750Y403250D02*
X155250Y402250D01*
X156250Y401750D01*
X158250D01*
X159250Y402250D01*
X159750Y403250D01*
X159250Y404250D01*
X158250Y404750D01*
X156250D01*
X155250Y405250D01*
X154750Y406250D01*
X155250Y407250D01*
X156250Y407750D01*
X158250D01*
X159250Y407250D01*
X159750Y406250D01*
X164750Y401750D02*
Y405750D01*
Y407250D02*
X174750Y404250D02*
X174250Y405250D01*
X173250Y405750D01*
X172250D01*
X171250Y405250D01*
X170750Y404250D01*
Y403750D01*
X171250Y402750D01*
X172250Y402250D01*
X173250D01*
X174250Y402750D01*
X174750Y403750D01*
Y405750D02*
Y401750D01*
X174250Y400750D01*
X173250Y400250D01*
X171750D01*
X170750Y400750D01*
X178750Y401750D02*
Y405750D01*
Y404250D02*
X179250Y405250D01*
X180250Y405750D01*
X181250D01*
X182250Y405250D01*
X182750Y404250D01*
Y401750D01*
X186750Y405250D02*
X187750Y405750D01*
X189250D01*
X190250Y405250D01*
X190750Y404250D01*
Y402750D01*
X190250Y402250D01*
X189250Y401750D01*
X188250D01*
X187250Y402250D01*
X186750Y402750D01*
Y403250D01*
X187250Y403750D01*
X188250Y404250D01*
X189250D01*
X190250Y403750D01*
X190750Y403250D01*
Y402750D02*
Y401750D01*
X197250D02*
X196750D01*
Y407750D01*
X202750Y402250D02*
X203750Y401750D01*
X205750D01*
X206750Y402250D01*
Y403250D01*
X205750Y403750D01*
X203750D01*
X202750Y404250D01*
Y405250D01*
X203750Y405750D01*
X205750D01*
X206750Y405250D01*
X45050Y327150D02*
X60250D01*
Y333550D01*
X45050D01*
Y327150D01*
X46187Y281187D02*
X47437D01*
X46813D02*
Y284937D01*
X46187D02*
X47437D01*
X53375Y281813D02*
X53063Y281500D01*
X52437Y281187D01*
X51500D01*
X50875Y281500D01*
X50563Y281813D01*
X50250Y282437D01*
Y283687D01*
X50563Y284313D01*
X50875Y284625D01*
X51500Y284937D01*
X52437D01*
X53063Y284625D01*
X53375Y284313D01*
X56813Y281187D02*
Y284937D01*
X55250Y282437D01*
X57750D01*
X49313Y306813D02*
X45563D01*
Y305250D02*
Y308375D01*
X49313Y310250D02*
X46813Y312750D01*
X49313D02*
X46813Y310250D01*
X50250Y336187D02*
Y339937D01*
X52437D01*
X53063Y339625D01*
X53375Y339000D01*
X53063Y338375D01*
X52437Y338063D01*
X50250D01*
X52437D02*
X53375Y336187D01*
X55563Y336500D02*
X56187Y336187D01*
X56813D01*
X57437Y336500D01*
X57750Y337125D01*
X57437Y337750D01*
X56813Y338063D01*
X56187D01*
X56813D02*
X57437Y338375D01*
X57750Y339000D01*
X57437Y339625D01*
X56813Y339937D01*
X56187D01*
X55563Y339625D01*
X58063Y305250D02*
Y307750D01*
X59313Y306500D02*
X56813D01*
X59000Y310563D02*
X59313Y311187D01*
Y311813D01*
X59000Y312437D01*
X58375Y312750D01*
X57750Y312437D01*
X57437Y311813D01*
Y311187D01*
Y311813D02*
X57125Y312437D01*
X56500Y312750D01*
X55875Y312437D01*
X55563Y311813D01*
Y311187D01*
X55875Y310563D01*
X55563Y315250D02*
X59313Y316813D01*
X55563Y318375D01*
X59000Y320563D02*
X59313Y321187D01*
Y321813D01*
X59000Y322437D01*
X58375Y322750D01*
X57750Y322437D01*
X57437Y321813D01*
Y321187D01*
Y321813D02*
X57125Y322437D01*
X56500Y322750D01*
X55875Y322437D01*
X55563Y321813D01*
Y321187D01*
X55875Y320563D01*
X67750Y315250D02*
X75250D01*
X67750D02*
Y307750D01*
X75250Y117750D02*
X67750D01*
Y125250D01*
X79250Y98750D02*
X101250D01*
Y106750D01*
X79250D01*
Y98750D01*
X79750Y84250D02*
X95750D01*
Y91250D01*
X79750D01*
Y84250D01*
X85875Y109313D02*
X85563Y109000D01*
X84937Y108687D01*
X84000D01*
X83375Y109000D01*
X83063Y109313D01*
X82750Y109937D01*
Y111187D01*
X83063Y111813D01*
X83375Y112125D01*
X84000Y112437D01*
X84937D01*
X85563Y112125D01*
X85875Y111813D01*
X88375Y108687D02*
X89625D01*
X89000D02*
Y112437D01*
X88375Y111813D01*
X93375Y108687D02*
X94625D01*
X94000D02*
Y112437D01*
X93375Y111813D01*
X90875Y79313D02*
X90563Y79000D01*
X89937Y78687D01*
X89000D01*
X88375Y79000D01*
X88063Y79313D01*
X87750Y79937D01*
Y81187D01*
X88063Y81813D01*
X88375Y82125D01*
X89000Y82437D01*
X89937D01*
X90563Y82125D01*
X90875Y81813D01*
X95250Y78687D02*
X92750D01*
X94937Y80875D01*
X95250Y81500D01*
X94937Y82125D01*
X94313Y82437D01*
X93375D01*
X92750Y82125D01*
X87750Y310250D02*
X125250D01*
Y317750D01*
X87750D01*
Y310250D01*
X100250Y73687D02*
Y77437D01*
X102437D01*
X103063Y77125D01*
X103375Y76500D01*
X103063Y75875D01*
X102437Y75563D01*
X100250D01*
X102437D02*
X103375Y73687D01*
X105250Y74000D02*
X105875Y73687D01*
X106813D01*
X107437Y74000D01*
X107750Y74625D01*
Y74937D01*
X107437Y75563D01*
X106813Y75875D01*
X105250D01*
Y77437D01*
X107750D01*
X125450Y78350D02*
X110250D01*
Y71950D01*
X125450D01*
Y78350D01*
X133375Y69313D02*
X133063Y69000D01*
X132437Y68687D01*
X131500D01*
X130875Y69000D01*
X130563Y69313D01*
X130250Y69937D01*
Y71187D01*
X130563Y71813D01*
X130875Y72125D01*
X131500Y72437D01*
X132437D01*
X133063Y72125D01*
X133375Y71813D01*
X135250Y68687D02*
X136813Y72437D01*
X138375Y68687D01*
X135875Y70250D02*
X137750D01*
X140250Y68687D02*
Y72437D01*
X143375Y68687D01*
Y72437D01*
X145250Y68687D02*
X148375D01*
X152437Y70563D02*
X153063Y70250D01*
X153375Y69625D01*
X153063Y69000D01*
X152437Y68687D01*
X150250D01*
Y72437D01*
X152437D01*
X153063Y72125D01*
X153375Y71500D01*
X153063Y70875D01*
X152437Y70563D01*
X150250D01*
X155250Y72437D02*
Y69625D01*
X155563Y69000D01*
X156187Y68687D01*
X157437D01*
X158063Y69000D01*
X158375Y69625D01*
Y72437D01*
X160250Y69625D02*
X160563Y69000D01*
X161187Y68687D01*
X162437D01*
X163063Y69000D01*
X163375Y69625D01*
X163063Y70250D01*
X162437Y70563D01*
X161187D01*
X160563Y70875D01*
X160250Y71500D01*
X160563Y72125D01*
X161187Y72437D01*
X162437D01*
X163063Y72125D01*
X163375Y71500D01*
X131187Y106813D02*
Y105563D01*
Y106187D02*
X134937D01*
Y106813D02*
Y105563D01*
X131813Y99625D02*
X131500Y99937D01*
X131187Y100563D01*
Y101500D01*
X131500Y102125D01*
X131813Y102437D01*
X132437Y102750D01*
X133687D01*
X134313Y102437D01*
X134625Y102125D01*
X134937Y101500D01*
Y100563D01*
X134625Y99937D01*
X134313Y99625D01*
X131500Y97437D02*
X131187Y96813D01*
Y96187D01*
X131500Y95563D01*
X132125Y95250D01*
X132750Y95563D01*
X133063Y96187D01*
Y96813D01*
Y96187D02*
X133375Y95563D01*
X134000Y95250D01*
X134625Y95563D01*
X134937Y96187D01*
Y96813D01*
X134625Y97437D01*
X135250Y117750D02*
X142750D01*
Y125250D01*
Y315250D02*
X135250D01*
X142750D02*
Y307750D01*
X152750Y347437D02*
Y343687D01*
X155875D01*
X158375D02*
X159625D01*
X159000D02*
Y347437D01*
X158375Y346813D01*
X182750Y356187D02*
Y359937D01*
X184937D01*
X185563Y359625D01*
X185875Y359000D01*
X185563Y358375D01*
X184937Y358063D01*
X182750D01*
X187750Y357125D02*
X188063Y356500D01*
X188687Y356187D01*
X189313D01*
X189937Y356500D01*
X190250Y357125D01*
Y357750D01*
X189937Y358375D01*
X189313Y358687D01*
X188687D01*
X188063Y358375D01*
X187750Y357750D01*
Y357125D01*
X192750Y358687D02*
Y356500D01*
X193063Y356187D01*
X193687D01*
X194000Y356500D01*
Y357437D01*
Y356500D02*
X194313Y356187D01*
X194937D01*
X195250Y356500D01*
Y358687D01*
X200250Y356500D02*
X199937Y356187D01*
X199313D01*
X198687D01*
X198063Y356500D01*
X197750Y357125D01*
Y358063D01*
X198063Y358375D01*
X198687Y358687D01*
X199313D01*
X199937Y358375D01*
X200250Y358063D01*
Y357750D01*
X199937Y357437D01*
X199313Y357125D01*
X198687D01*
X198063Y357437D01*
X197750Y357750D01*
X202750Y356187D02*
Y358687D01*
Y357750D02*
X203063Y358375D01*
X203687Y358687D01*
X204313D01*
X204937Y358375D01*
X212750Y357125D02*
X213063Y356500D01*
X213687Y356187D01*
X214937D01*
X215563Y356500D01*
X215875Y357125D01*
X215563Y357750D01*
X214937Y358063D01*
X213687D01*
X213063Y358375D01*
X212750Y359000D01*
X213063Y359625D01*
X213687Y359937D01*
X214937D01*
X215563Y359625D01*
X215875Y359000D01*
X217750Y358687D02*
Y357125D01*
X218063Y356500D01*
X218687Y356187D01*
X219313D01*
X219937Y356500D01*
X220250Y357125D01*
Y358687D02*
Y356187D01*
X222750Y358687D02*
Y355250D01*
Y357125D02*
X223063Y356500D01*
X223687Y356187D01*
X224313D01*
X224937Y356500D01*
X225250Y357125D01*
Y357750D01*
X224937Y358375D01*
X224313Y358687D01*
X223687D01*
X223063Y358375D01*
X222750Y357750D01*
Y357125D01*
X227750Y358687D02*
Y355250D01*
Y357125D02*
X228063Y356500D01*
X228687Y356187D01*
X229313D01*
X229937Y356500D01*
X230250Y357125D01*
Y357750D01*
X229937Y358375D01*
X229313Y358687D01*
X228687D01*
X228063Y358375D01*
X227750Y357750D01*
Y357125D01*
X234313Y356187D02*
X234000D01*
Y359937D01*
X237750Y358687D02*
X238063Y357437D01*
X238687Y356813D01*
X239313D01*
X239937Y357437D01*
X240250Y358687D01*
X239937Y357437D02*
X239625Y356187D01*
X239313Y355563D01*
X238687Y355250D01*
X238063Y355563D01*
X182750Y367437D02*
Y364625D01*
X183063Y364000D01*
X183687Y363687D01*
X184937D01*
X185563Y364000D01*
X185875Y364625D01*
Y367437D01*
X187750Y364000D02*
X188375Y363687D01*
X189625D01*
X190250Y364000D01*
Y364625D01*
X189625Y364937D01*
X188375D01*
X187750Y365250D01*
Y365875D01*
X188375Y366187D01*
X189625D01*
X190250Y365875D01*
X195250Y364000D02*
X194937Y363687D01*
X194313D01*
X193687D01*
X193063Y364000D01*
X192750Y364625D01*
Y365563D01*
X193063Y365875D01*
X193687Y366187D01*
X194313D01*
X194937Y365875D01*
X195250Y365563D01*
Y365250D01*
X194937Y364937D01*
X194313Y364625D01*
X193687D01*
X193063Y364937D01*
X192750Y365250D01*
X205250Y363687D02*
X202750D01*
X204937Y365875D01*
X205250Y366500D01*
X204937Y367125D01*
X204313Y367437D01*
X203375D01*
X202750Y367125D01*
X209313Y363687D02*
Y367437D01*
X207750Y364937D01*
X210250D01*
X212750Y367437D02*
X214313Y363687D01*
X215875Y367437D01*
X223375Y363687D02*
X224625D01*
X224000D02*
Y367437D01*
X223375Y366813D01*
X228063Y363687D02*
X228375Y364000D01*
X228063Y364313D01*
X227750Y364000D01*
X228063Y363687D01*
X232750Y364000D02*
X233375Y363687D01*
X234313D01*
X234937Y364000D01*
X235250Y364625D01*
Y364937D01*
X234937Y365563D01*
X234313Y365875D01*
X232750D01*
Y367437D01*
X235250D01*
X237750Y363687D02*
X239313Y367437D01*
X240875Y363687D01*
X238375Y365250D02*
X240250D01*
X187750Y351250D02*
X191750D01*
X189750Y349250D02*
Y353250D01*
X190250Y322437D02*
X192750D01*
X191500Y321187D02*
Y323687D01*
X197750Y321187D02*
X195250D01*
X197437Y323375D01*
X197750Y324000D01*
X197437Y324625D01*
X196813Y324937D01*
X195875D01*
X195250Y324625D01*
X201813Y321187D02*
Y324937D01*
X200250Y322437D01*
X202750D01*
X205250Y324937D02*
X206813Y321187D01*
X208375Y324937D01*
X206813Y130250D02*
X206500Y129937D01*
X206187Y129313D01*
X206500Y128687D01*
X206813Y128375D01*
X209937D01*
Y127750D01*
Y128375D02*
Y129625D01*
X206187Y124625D02*
Y123375D01*
Y124000D02*
X209937D01*
X209313Y124625D01*
X224937Y317750D02*
X225875D01*
Y317437D01*
X225563Y316813D01*
X225250Y316500D01*
X224625Y316187D01*
X224000D01*
X223375Y316500D01*
X223063Y316813D01*
X222750Y317437D01*
Y318687D01*
X223063Y319313D01*
X223375Y319625D01*
X224000Y319937D01*
X224625D01*
X225250Y319625D01*
X225563Y319313D01*
X225875Y318687D01*
X227750Y316187D02*
Y319937D01*
X230875Y316187D01*
Y319937D01*
X232750Y316187D02*
Y319937D01*
X234625D01*
X235250Y319625D01*
X235563Y319313D01*
X235875Y318687D01*
Y317437D01*
X235563Y316813D01*
X235250Y316500D01*
X234625Y316187D01*
X232750D01*
X225563Y321500D02*
X226187Y321187D01*
X226813D01*
X227437Y321500D01*
X227750Y322125D01*
Y324000D01*
X227437Y324625D01*
X226813Y324937D01*
X226187D01*
X225563Y324625D01*
X225250Y324000D01*
Y322125D01*
X225563Y321500D01*
X227437Y324625D01*
X230250Y324937D02*
X231813Y321187D01*
X233375Y324937D01*
X237750Y351250D02*
X241750D01*
X239313Y176813D02*
X235563D01*
Y175250D02*
Y178375D01*
X238375Y180250D02*
X239000Y180563D01*
X239313Y181187D01*
Y181813D01*
X239000Y182437D01*
X238375Y182750D01*
X237750D01*
X237125Y182437D01*
X236813Y181813D01*
Y181187D01*
X237125Y180563D01*
X237750Y180250D01*
X238375D01*
X239313Y190250D02*
X235563D01*
Y192125D01*
X235875Y192750D01*
X236187Y193063D01*
X236813Y193375D01*
X238063D01*
X238687Y193063D01*
X239000Y192750D01*
X239313Y192125D01*
Y190250D01*
X237125Y195250D02*
X236813Y195875D01*
Y196813D01*
X237125Y197437D01*
X237750Y197750D01*
X238687D01*
X239000Y197437D01*
X239313Y196813D01*
Y196187D01*
X239000Y195563D01*
X238687Y195250D01*
X238375D01*
X238063Y195563D01*
X237750Y196187D01*
Y196813D01*
X238063Y197437D01*
X238375Y197750D01*
X238687D02*
X239313D01*
Y201500D02*
X236813D01*
X235875D02*
X239000Y205250D02*
X239313Y205875D01*
Y207125D01*
X239000Y207750D01*
X238375D01*
X238063Y207125D01*
Y205875D01*
X237750Y205250D01*
X237125D01*
X236813Y205875D01*
Y207125D01*
X237125Y207750D01*
X236813Y210250D02*
X238063Y210563D01*
X238687Y211187D01*
Y211813D01*
X238063Y212437D01*
X236813Y212750D01*
X238063Y212437D02*
X239313Y212125D01*
X239937Y211813D01*
X240250Y211187D01*
X239937Y210563D01*
X239313Y216187D02*
Y217437D01*
Y216813D02*
X235563D01*
Y216187D02*
Y217437D01*
X238063Y220250D02*
X236813D01*
X236187Y220563D01*
X235875Y220875D01*
X235563Y221500D01*
Y222125D01*
X235875Y222750D01*
X236187Y223063D01*
X236813Y223375D01*
X238063D01*
X238687Y223063D01*
X239000Y222750D01*
X239313Y222125D01*
Y221500D01*
X239000Y220875D01*
X238687Y220563D01*
X238063Y220250D01*
X239313Y230250D02*
X235563D01*
X237437Y231813D01*
X235563Y233375D01*
X239313D01*
X238375Y235250D02*
X239000Y235563D01*
X239313Y236187D01*
Y236813D01*
X239000Y237437D01*
X238375Y237750D01*
X237750D01*
X237125Y237437D01*
X236813Y236813D01*
Y236187D01*
X237125Y235563D01*
X237750Y235250D01*
X238375D01*
X237750Y242750D02*
X237125Y242437D01*
X236813Y241813D01*
Y241187D01*
X237125Y240563D01*
X237750Y240250D01*
X238375D01*
X239000Y240563D01*
X239313Y241187D01*
Y241813D01*
X239000Y242437D01*
X238375Y242750D01*
X239313D02*
X235563D01*
X236813Y245250D02*
X238375D01*
X239000Y245563D01*
X239313Y246187D01*
Y246813D01*
X239000Y247437D01*
X238375Y247750D01*
X236813D02*
X239313D01*
Y251813D02*
Y251500D01*
X235563D01*
X239000Y257750D02*
X239313Y257437D01*
Y256813D01*
Y256187D01*
X239000Y255563D01*
X238375Y255250D01*
X237437D01*
X237125Y255563D01*
X236813Y256187D01*
Y256813D01*
X237125Y257437D01*
X237437Y257750D01*
X237750D01*
X238063Y257437D01*
X238375Y256813D01*
Y256187D01*
X238063Y255563D01*
X237750Y255250D01*
D02*
D70*
X189778Y249896D02*
G75*
G03*
Y251470I0J787D01*
G01*
Y249896D02*
G75*
G02*
Y251470I0J787D01*
G01*
D02*
D117*
X35250Y205250D02*
Y125250D01*
X45250D01*
Y205250D01*
X35250D01*
X62750Y302750D02*
X22750D01*
Y292750D01*
X62750D01*
Y302750D01*
X69650Y65250D02*
X180850D01*
G75*
G02*
X185850Y60250I0J-5000D01*
G01*
Y14250D01*
X64650D01*
Y60250D01*
G75*
G02*
X69650Y65250I5000J0D01*
G01*
X91250Y14250D02*
Y10250D01*
X157250Y14250D02*
Y10250D01*
X0Y0D02*
M02*
