G04 Easy-PC Gerber Version 25.0 Build 5877*
G04 #@! TF.Part,Single*
G04 #@! TF.FileFunction,Soldermask,Top*
G04 #@! TF.FilePolarity,Negative*
%FSLAX35Y35*%
%MOIN*%
G04 #@! TA.AperFunction,SMDPad,CuDef*
%ADD162R,0.03500X0.09000*%
%ADD152R,0.03559X0.07102*%
%ADD157R,0.04150X0.04543*%
%ADD165R,0.04346X0.04740*%
%ADD16R,0.05000X0.05800*%
%ADD158R,0.06500X0.07000*%
%ADD161R,0.07102X0.08874*%
%ADD153R,0.06512X0.03362*%
%ADD154R,0.07016X0.03756*%
G04 #@! TA.AperFunction,ViaPad*
%ADD10C,0.05800*%
G04 #@! TA.AperFunction,SMDPad,CuDef*
%ADD164R,0.04740X0.04346*%
%ADD156R,0.05724X0.04543*%
%ADD163R,0.05291X0.04937*%
G04 #@! TA.AperFunction,ViaPad*
%ADD150C,0.06600*%
G04 #@! TA.AperFunction,ComponentPad*
%ADD151C,0.07000*%
G04 #@! TA.AperFunction,SMDPad,CuDef*
%ADD160R,0.08874X0.07102*%
%AMT159*0 Rounded Rectangle Pad at angle 0*4,1,48,-0.01956,-0.03300,0.01956,-0.03300,0.02141,-0.03287,0.02321,-0.03248,0.02494,-0.03183,0.02656,-0.03094,0.02803,-0.02984,0.02933,-0.02854,0.03044,-0.02706,0.03133,-0.02544,0.03197,-0.02371,0.03237,-0.02191,0.03250,-0.02006,0.03250,0.02006,0.03237,0.02191,0.03198,0.02371,0.03133,0.02544,0.03044,0.02706,0.02934,0.02853,0.02804,0.02983,0.02656,0.03094,0.02494,0.03183,0.02321,0.03247,0.02141,0.03287,0.01956,0.03300,-0.01956,0.03300,-0.02141,0.03287,-0.02321,0.03248,-0.02494,0.03183,-0.02656,0.03094,-0.02803,0.02984,-0.02933,0.02854,-0.03044,0.02706,-0.03133,0.02544,-0.03197,0.02371,-0.03237,0.02191,-0.03250,0.02006,-0.03250,-0.02006,-0.03237,-0.02191,-0.03198,-0.02371,-0.03133,-0.02544,-0.03044,-0.02706,-0.02934,-0.02853,-0.02804,-0.02983,-0.02656,-0.03094,-0.02494,-0.03183,-0.02321,-0.03247,-0.02141,-0.03287,-0.01956,-0.03300,0*%
%ADD159T159*%
%AMT155*0 Rounded Rectangle Pad at angle 90*4,1,48,0.03300,-0.01956,0.03300,0.01956,0.03287,0.02141,0.03248,0.02321,0.03183,0.02494,0.03094,0.02656,0.02984,0.02803,0.02854,0.02933,0.02706,0.03044,0.02544,0.03133,0.02371,0.03197,0.02191,0.03237,0.02006,0.03250,-0.02006,0.03250,-0.02191,0.03237,-0.02371,0.03198,-0.02544,0.03133,-0.02706,0.03044,-0.02853,0.02934,-0.02983,0.02804,-0.03094,0.02656,-0.03183,0.02494,-0.03247,0.02321,-0.03287,0.02141,-0.03300,0.01956,-0.03300,-0.01956,-0.03287,-0.02141,-0.03248,-0.02321,-0.03183,-0.02494,-0.03094,-0.02656,-0.02984,-0.02803,-0.02854,-0.02933,-0.02706,-0.03044,-0.02544,-0.03133,-0.02371,-0.03197,-0.02191,-0.03237,-0.02006,-0.03250,0.02006,-0.03250,0.02191,-0.03237,0.02371,-0.03198,0.02544,-0.03133,0.02706,-0.03044,0.02853,-0.02934,0.02983,-0.02804,0.03094,-0.02656,0.03183,-0.02494,0.03247,-0.02321,0.03287,-0.02141,0.03300,-0.01956,0*%
%ADD155T155*%
G04 #@! TD.AperFunction*
X0Y0D02*
D02*
D10*
X152750Y332750D03*
X225250Y305250D03*
X230250Y325250D03*
X277750Y330250D03*
X282750Y315250D03*
X287750Y305250D03*
Y320250D03*
X292750Y310250D03*
X297750Y325250D03*
X302750Y320250D03*
Y330250D03*
X307750Y315250D03*
X312750Y300250D03*
X342750Y330250D03*
X347750Y315250D03*
X352750Y300250D03*
Y320250D03*
X357750Y310250D03*
X362750Y325250D03*
X367750Y320250D03*
Y330250D03*
X372750Y315250D03*
X377750Y300250D03*
X407750Y330250D03*
X412750Y315250D03*
X417750Y300250D03*
Y320250D03*
X422750Y310250D03*
X427750Y325250D03*
X432750Y320250D03*
Y330250D03*
X437750Y315250D03*
X442750Y300250D03*
X472750Y330250D03*
X477750Y315250D03*
X482750Y300250D03*
Y320250D03*
X487750Y310250D03*
X492750Y325250D03*
X497750Y320250D03*
X502750Y315250D03*
D02*
D16*
X168750Y560950D03*
X171250Y100950D03*
Y134550D03*
Y184550D03*
X172750Y569650D03*
X175250Y109650D03*
Y125850D03*
Y175850D03*
X176750Y560950D03*
X179250Y100950D03*
Y134550D03*
Y184550D03*
X188750Y560950D03*
X191250Y100950D03*
Y134550D03*
Y184550D03*
X192750Y569650D03*
X195250Y109650D03*
Y125850D03*
Y175850D03*
X196750Y560950D03*
X199250Y100950D03*
Y134550D03*
Y184550D03*
X208750Y560950D03*
X211250Y100950D03*
Y134550D03*
Y184550D03*
X212750Y569650D03*
X215250Y109650D03*
Y125850D03*
Y175850D03*
X216750Y560950D03*
X219250Y100950D03*
Y134550D03*
Y184550D03*
X228750Y560950D03*
X231250Y100950D03*
Y134550D03*
Y184550D03*
X232750Y569650D03*
X235250Y109650D03*
Y125850D03*
Y175850D03*
X236750Y560950D03*
X239250Y100950D03*
Y134550D03*
Y184550D03*
X248750Y560950D03*
X251250Y100950D03*
Y134550D03*
Y184550D03*
X252750Y569650D03*
X255250Y109650D03*
Y125850D03*
Y175850D03*
X256750Y560950D03*
X259250Y100950D03*
Y134550D03*
Y184550D03*
X268750Y560950D03*
X271250Y100950D03*
Y134550D03*
Y184550D03*
X272750Y569650D03*
X275250Y109650D03*
Y125850D03*
Y175850D03*
X276750Y560950D03*
X279250Y100950D03*
Y134550D03*
Y184550D03*
X288750Y560950D03*
X291250Y100950D03*
Y134550D03*
Y184550D03*
X292750Y569650D03*
X295250Y109650D03*
Y125850D03*
Y175850D03*
X296750Y560950D03*
X299250Y100950D03*
Y134550D03*
Y184550D03*
X308750Y560950D03*
X311250Y100950D03*
Y134550D03*
Y184550D03*
X312750Y569650D03*
X315250Y109650D03*
Y125850D03*
Y175850D03*
X316750Y560950D03*
X319250Y100950D03*
Y134550D03*
Y184550D03*
X338750Y560950D03*
X342750Y569650D03*
X343750Y100950D03*
Y134550D03*
Y184550D03*
X346750Y560950D03*
X347750Y109650D03*
Y125850D03*
Y175850D03*
X351750Y100950D03*
Y134550D03*
Y184550D03*
X358750Y560950D03*
X362750Y569650D03*
X363750Y100950D03*
Y134550D03*
Y184550D03*
X366750Y560950D03*
X367750Y109650D03*
Y125850D03*
Y175850D03*
X371750Y100950D03*
Y134550D03*
Y184550D03*
X378750Y560950D03*
X382750Y569650D03*
X383750Y100950D03*
Y134550D03*
Y184550D03*
X386750Y560950D03*
X387750Y109650D03*
Y125850D03*
Y175850D03*
X391750Y100950D03*
Y134550D03*
Y184550D03*
X398750Y560950D03*
X402750Y569650D03*
X403750Y100950D03*
Y134550D03*
Y184550D03*
X406750Y560950D03*
X407750Y109650D03*
Y125850D03*
Y175850D03*
X411750Y100950D03*
Y134550D03*
Y184550D03*
X418750Y560950D03*
X422750Y569650D03*
X423750Y100950D03*
Y134550D03*
Y184550D03*
X426750Y560950D03*
X427750Y109650D03*
Y125850D03*
Y175850D03*
X431750Y100950D03*
Y134550D03*
Y184550D03*
X438750Y560950D03*
X442750Y569650D03*
X443750Y100950D03*
Y134550D03*
Y184550D03*
X446750Y560950D03*
X447750Y109650D03*
Y125850D03*
Y175850D03*
X451750Y100950D03*
Y134550D03*
Y184550D03*
X458750Y560950D03*
X462750Y569650D03*
X463750Y100950D03*
Y134550D03*
Y184550D03*
X466750Y560950D03*
X467750Y109650D03*
Y125850D03*
Y175850D03*
X471750Y100950D03*
Y134550D03*
Y184550D03*
X478750Y560950D03*
X482750Y569650D03*
X483750Y100950D03*
Y134550D03*
X486250Y184550D03*
X486750Y560950D03*
X487750Y109650D03*
Y125850D03*
X490250Y175850D03*
X491750Y100950D03*
Y134550D03*
X494250Y184550D03*
D02*
D150*
X457750Y267750D03*
Y292750D03*
Y337750D03*
Y362750D03*
D02*
D151*
X175250Y250250D03*
Y260250D03*
Y270250D03*
Y280250D03*
Y290250D03*
Y300250D03*
Y310250D03*
Y320250D03*
Y330250D03*
Y340250D03*
Y350250D03*
Y360250D03*
Y370250D03*
Y380250D03*
Y390250D03*
X235250Y250250D03*
Y260250D03*
Y270250D03*
Y280250D03*
Y290250D03*
Y300250D03*
Y310250D03*
Y320250D03*
Y330250D03*
Y340250D03*
Y350250D03*
Y360250D03*
Y370250D03*
Y380250D03*
Y390250D03*
D02*
D152*
X277750Y269522D03*
Y290978D03*
Y339522D03*
Y360978D03*
X282750Y269522D03*
Y290978D03*
Y339522D03*
Y360978D03*
X287750Y269522D03*
Y290978D03*
Y339522D03*
Y360978D03*
X292750Y269522D03*
Y290978D03*
Y339522D03*
Y360978D03*
X297750Y269522D03*
Y290978D03*
Y339522D03*
Y360978D03*
X302750Y269522D03*
Y290978D03*
Y339522D03*
Y360978D03*
X307750Y269522D03*
Y290978D03*
Y339522D03*
Y360978D03*
X312750Y269522D03*
Y290978D03*
Y339522D03*
Y360978D03*
X342750Y269522D03*
Y290978D03*
Y339522D03*
Y360978D03*
X347750Y269522D03*
Y290978D03*
Y339522D03*
Y360978D03*
X352750Y269522D03*
Y290978D03*
Y339522D03*
Y360978D03*
X357750Y269522D03*
Y290978D03*
Y339522D03*
Y360978D03*
X362750Y269522D03*
Y290978D03*
Y339522D03*
Y360978D03*
X367750Y269522D03*
Y290978D03*
Y339522D03*
Y360978D03*
X372750Y269522D03*
Y290978D03*
Y339522D03*
Y360978D03*
X377750Y269522D03*
Y290978D03*
Y339522D03*
Y360978D03*
X407750Y269522D03*
Y290978D03*
Y339522D03*
Y360978D03*
X412750Y269522D03*
Y290978D03*
Y339522D03*
Y360978D03*
X417750Y269522D03*
Y290978D03*
Y339522D03*
Y360978D03*
X422750Y269522D03*
Y290978D03*
Y339522D03*
Y360978D03*
X427750Y269522D03*
Y290978D03*
Y339522D03*
Y360978D03*
X432750Y269522D03*
Y290978D03*
Y339522D03*
Y360978D03*
X437750Y269522D03*
Y290978D03*
Y339522D03*
Y360978D03*
X442750Y269522D03*
Y290978D03*
Y339522D03*
Y360978D03*
X472750Y269522D03*
Y290978D03*
Y339522D03*
Y360978D03*
X477750Y269522D03*
Y290978D03*
Y339522D03*
Y360978D03*
X482750Y269522D03*
Y290978D03*
Y339522D03*
Y360978D03*
X487750Y269522D03*
Y290978D03*
Y339522D03*
Y360978D03*
X492750Y269522D03*
Y290978D03*
Y339522D03*
Y360978D03*
X497750Y269522D03*
Y290978D03*
Y339522D03*
Y360978D03*
X502750Y269522D03*
Y290978D03*
Y339522D03*
Y360978D03*
X507750Y269522D03*
Y290978D03*
Y339522D03*
Y360978D03*
D02*
D153*
X145329Y321510D03*
Y328990D03*
X155171Y321510D03*
Y325250D03*
Y328990D03*
D02*
D154*
X127077Y257750D03*
Y262750D03*
Y267750D03*
Y272750D03*
Y277750D03*
Y282750D03*
Y287750D03*
X148423Y257750D03*
Y262750D03*
Y267750D03*
Y272750D03*
Y277750D03*
Y282750D03*
Y287750D03*
D02*
D155*
X252750Y360850D03*
Y369650D03*
X392750Y303350D03*
Y312150D03*
X540250Y273350D03*
Y282150D03*
D02*
D156*
X302100Y241313D03*
X347100D03*
D02*
D157*
X301313Y249187D03*
X309187Y241313D03*
Y249187D03*
X346313D03*
X354187Y241313D03*
Y249187D03*
D02*
D158*
X327750Y275750D03*
Y284750D03*
Y345750D03*
Y354750D03*
X392750Y275750D03*
Y284750D03*
Y345750D03*
Y354750D03*
X457750Y275750D03*
Y284750D03*
Y345750D03*
Y354750D03*
X522750Y275750D03*
Y284750D03*
Y345750D03*
Y354750D03*
D02*
D159*
X145850Y312750D03*
Y337750D03*
X154650Y312750D03*
Y337750D03*
D02*
D160*
X384482Y245250D03*
X401018D03*
D02*
D161*
X172750Y524482D03*
Y541018D03*
X175250Y64482D03*
Y81018D03*
X192750Y524482D03*
Y541018D03*
X195250Y64482D03*
Y81018D03*
X212750Y524482D03*
Y541018D03*
X215250Y64482D03*
Y81018D03*
X232750Y524482D03*
Y541018D03*
X235250Y64482D03*
Y81018D03*
X252750Y524482D03*
Y541018D03*
X255250Y64482D03*
Y81018D03*
X272750Y524482D03*
Y541018D03*
X275250Y64482D03*
Y81018D03*
X292750Y524482D03*
Y541018D03*
X295250Y64482D03*
Y81018D03*
X312750Y524482D03*
Y541018D03*
X315250Y64482D03*
Y81018D03*
X342750Y524482D03*
Y541018D03*
X347750Y64482D03*
Y81018D03*
X362750Y524482D03*
Y541018D03*
X367750Y64482D03*
Y81018D03*
X382750Y524482D03*
Y541018D03*
X387750Y64482D03*
Y81018D03*
X402750Y524482D03*
Y541018D03*
X407750Y64482D03*
Y81018D03*
X422750Y524482D03*
Y541018D03*
X427750Y64482D03*
Y81018D03*
X442750Y524482D03*
Y541018D03*
X447750Y64482D03*
Y81018D03*
X462750Y524482D03*
Y541018D03*
X467750Y64482D03*
Y81018D03*
X482750Y524482D03*
Y541018D03*
X487750Y64482D03*
Y81018D03*
D02*
D162*
X280250Y386750D03*
Y408750D03*
X285250Y386750D03*
Y408750D03*
X290250Y386750D03*
Y408750D03*
X295250Y386750D03*
Y408750D03*
X300250Y386750D03*
Y408750D03*
X305250Y386750D03*
Y408750D03*
X310250Y386750D03*
Y408750D03*
X325250Y386750D03*
Y408750D03*
X330250Y386750D03*
Y408750D03*
X335250Y386750D03*
Y408750D03*
X340250Y386750D03*
Y408750D03*
X345250Y386750D03*
Y408750D03*
X350250Y386750D03*
Y408750D03*
X355250Y386750D03*
Y408750D03*
X370250Y386750D03*
Y408750D03*
X375250Y386750D03*
Y408750D03*
X380250Y386750D03*
Y408750D03*
X385250Y386750D03*
Y408750D03*
X390250Y386750D03*
Y408750D03*
X395250Y386750D03*
Y408750D03*
X400250Y386750D03*
Y408750D03*
X415250Y386750D03*
Y408750D03*
X420250Y386750D03*
Y408750D03*
X425250Y386750D03*
Y408750D03*
X430250Y386750D03*
Y408750D03*
X435250Y386750D03*
Y408750D03*
X440250Y386750D03*
Y408750D03*
X445250Y386750D03*
Y408750D03*
D02*
D163*
X169250Y455250D03*
X176250D03*
X189250D03*
X196250D03*
X209250D03*
X216250D03*
X229250D03*
X236250D03*
X249250D03*
X256250D03*
X269250D03*
X276250D03*
X289250D03*
X296250D03*
X309250D03*
X316250D03*
X341750D03*
X348750D03*
X361750D03*
X368750D03*
X381750D03*
X388750D03*
X401750D03*
X408750D03*
X421750D03*
X428750D03*
X441750D03*
X448750D03*
X461750D03*
X468750D03*
X481750D03*
X488750D03*
D02*
D164*
X170250Y197100D03*
Y203400D03*
Y482100D03*
Y488400D03*
X175250Y159600D03*
Y165900D03*
X177750Y482100D03*
Y488400D03*
X190250Y197100D03*
Y203400D03*
Y482100D03*
Y488400D03*
X195250Y159600D03*
Y165900D03*
X197750Y482100D03*
Y488400D03*
X210250Y197100D03*
Y203400D03*
Y482100D03*
Y488400D03*
X215250Y159600D03*
Y165900D03*
X217750Y482100D03*
Y488400D03*
X230250Y197100D03*
Y203400D03*
Y482100D03*
Y488400D03*
X235250Y159600D03*
Y165900D03*
X237750Y482100D03*
Y488400D03*
X250250Y197100D03*
Y203400D03*
Y482100D03*
Y488400D03*
X255250Y159600D03*
Y165900D03*
X257750Y482100D03*
Y488400D03*
X270250Y197100D03*
Y203400D03*
Y482100D03*
Y488400D03*
X275250Y159600D03*
Y165900D03*
X277750Y482100D03*
Y488400D03*
X290250Y197100D03*
Y203400D03*
Y482100D03*
Y488400D03*
X295250Y159600D03*
Y165900D03*
X297750Y482100D03*
Y488400D03*
X310250Y197100D03*
Y203400D03*
Y482100D03*
Y488400D03*
X315250Y159600D03*
Y165900D03*
X317750Y482100D03*
Y488400D03*
X340250Y482100D03*
Y488400D03*
X342750Y197100D03*
Y203400D03*
X347750Y159600D03*
Y165900D03*
Y482100D03*
Y488400D03*
X360250Y482100D03*
Y488400D03*
X362750Y197100D03*
Y203400D03*
X367750Y159600D03*
Y165900D03*
Y482100D03*
Y488400D03*
X380250Y482100D03*
Y488400D03*
X382750Y197100D03*
Y203400D03*
X387750Y159600D03*
Y165900D03*
Y482100D03*
Y488400D03*
X400250Y482100D03*
Y488400D03*
X402750Y197100D03*
Y203400D03*
X407750Y159600D03*
Y165900D03*
Y482100D03*
Y488400D03*
X420250Y482100D03*
Y488400D03*
X422750Y197100D03*
Y203400D03*
X427750Y159600D03*
Y165900D03*
Y482100D03*
Y488400D03*
X440250Y482100D03*
Y488400D03*
X442750Y197100D03*
Y203400D03*
X447750Y159600D03*
Y165900D03*
Y482100D03*
Y488400D03*
X460250Y482100D03*
Y488400D03*
X462750Y197100D03*
Y203400D03*
X467750Y159600D03*
Y165900D03*
Y482100D03*
Y488400D03*
X480250Y482100D03*
Y488400D03*
X485250Y197100D03*
Y203400D03*
X487750Y482100D03*
Y488400D03*
X490250Y159600D03*
Y165900D03*
D02*
D165*
X169600Y470250D03*
X172100Y150250D03*
X175900Y470250D03*
X178400Y150250D03*
X189600Y470250D03*
X192100Y150250D03*
X195900Y470250D03*
X198400Y150250D03*
X209600Y470250D03*
X212100Y150250D03*
X215900Y470250D03*
X218400Y150250D03*
X229600D03*
Y470250D03*
X235900Y150250D03*
Y470250D03*
X249600Y150250D03*
Y470250D03*
X255900Y150250D03*
Y470250D03*
X269600Y150250D03*
Y470250D03*
X275900Y150250D03*
Y470250D03*
X289600Y150250D03*
Y470250D03*
X295900Y150250D03*
Y470250D03*
X309600Y150250D03*
Y470250D03*
X315900Y150250D03*
Y470250D03*
X342100Y150250D03*
Y470250D03*
X348400Y150250D03*
Y470250D03*
X362100Y150250D03*
Y470250D03*
X368400Y150250D03*
Y470250D03*
X382100Y150250D03*
Y470250D03*
X388400Y150250D03*
Y470250D03*
X402100Y150250D03*
Y470250D03*
X408400Y150250D03*
Y470250D03*
X422100Y150250D03*
Y470250D03*
X428400Y150250D03*
Y470250D03*
X442100Y150250D03*
Y470250D03*
X448400Y150250D03*
Y470250D03*
X462100Y150250D03*
Y470250D03*
X468400Y150250D03*
Y470250D03*
X482100Y150250D03*
Y470250D03*
X488400Y150250D03*
Y470250D03*
X0Y0D02*
M02*
