G04 Easy-PC Gerber Version 25.0 Build 5877*
G04 #@! TF.Part,Single*
G04 #@! TF.FileFunction,Soldermask,Bot*
G04 #@! TF.FilePolarity,Negative*
%FSLAX35Y35*%
%MOIN*%
G04 #@! TA.AperFunction,SMDPad,CuDef*
%ADD142R,0.06500X0.07000*%
G04 #@! TA.AperFunction,WasherPad*
%ADD127R,0.17000X0.21000*%
G04 #@! TA.AperFunction,ComponentPad*
%ADD133R,0.07000X0.07000*%
G04 #@! TA.AperFunction,SMDPad,CuDef*
%ADD111R,0.07300X0.07300*%
G04 #@! TA.AperFunction,ViaPad*
%ADD10C,0.05800*%
%ADD11C,0.06600*%
G04 #@! TA.AperFunction,ComponentPad*
%ADD131C,0.06819*%
%ADD12C,0.07000*%
G04 #@! TA.AperFunction,SMDPad,CuDef*
%ADD143R,0.05134X0.03165*%
%ADD140R,0.06512X0.03362*%
G04 #@! TA.AperFunction,ComponentPad*
%ADD83C,0.07319*%
%ADD134C,0.08000*%
G04 #@! TA.AperFunction,SMDPad,CuDef*
%ADD128R,0.07000X0.06500*%
G04 #@! TA.AperFunction,ComponentPad*
%ADD135C,0.18500*%
G04 #@! TA.AperFunction,WasherPad*
%ADD108C,0.27000*%
G04 #@! TA.AperFunction,SMDPad,CuDef*
%AMT141*0 Rounded Rectangle Pad at angle 90*4,1,48,0.03300,-0.01956,0.03300,0.01956,0.03287,0.02141,0.03248,0.02321,0.03183,0.02494,0.03094,0.02656,0.02984,0.02803,0.02854,0.02933,0.02706,0.03044,0.02544,0.03133,0.02371,0.03197,0.02191,0.03237,0.02006,0.03250,-0.02006,0.03250,-0.02191,0.03237,-0.02371,0.03198,-0.02544,0.03133,-0.02706,0.03044,-0.02853,0.02934,-0.02983,0.02804,-0.03094,0.02656,-0.03183,0.02494,-0.03247,0.02321,-0.03287,0.02141,-0.03300,0.01956,-0.03300,-0.01956,-0.03287,-0.02141,-0.03248,-0.02321,-0.03183,-0.02494,-0.03094,-0.02656,-0.02984,-0.02803,-0.02854,-0.02933,-0.02706,-0.03044,-0.02544,-0.03133,-0.02371,-0.03197,-0.02191,-0.03237,-0.02006,-0.03250,0.02006,-0.03250,0.02191,-0.03237,0.02371,-0.03198,0.02544,-0.03133,0.02706,-0.03044,0.02853,-0.02934,0.02983,-0.02804,0.03094,-0.02656,0.03183,-0.02494,0.03247,-0.02321,0.03287,-0.02141,0.03300,-0.01956,0*%
%ADD141T141*%
G04 #@! TD.AperFunction*
X0Y0D02*
D02*
D10*
X30250Y282750D03*
X35250Y255250D03*
X40250Y285250D03*
X55250Y245250D03*
X85250Y130250D03*
X90250Y135250D03*
X110250Y130250D03*
X125250Y135250D03*
Y245250D03*
X157750Y225250D03*
X175250Y185250D03*
X185250Y195250D03*
X187750Y202750D03*
Y210250D03*
Y220250D03*
D02*
D11*
X82750Y307750D03*
X83550Y95250D03*
X97750Y150250D03*
Y200850D03*
Y229650D03*
Y297750D03*
X110171Y205250D03*
X110211Y265211D03*
X117750Y127750D03*
X122750Y97750D03*
X145250Y235250D03*
X157750Y270250D03*
X177750Y250250D03*
X180250Y150250D03*
Y190250D03*
X195250Y127750D03*
Y185250D03*
D02*
D12*
X75250Y140250D03*
Y150250D03*
Y160250D03*
Y170250D03*
Y180250D03*
Y190250D03*
Y200250D03*
Y210250D03*
Y220250D03*
Y230250D03*
Y240250D03*
Y250250D03*
Y260250D03*
Y270250D03*
Y280250D03*
X135250Y140250D03*
Y150250D03*
Y160250D03*
Y170250D03*
Y180250D03*
Y190250D03*
Y200250D03*
Y210250D03*
Y220250D03*
Y230250D03*
Y240250D03*
Y250250D03*
Y260250D03*
Y270250D03*
Y280250D03*
D02*
D83*
X205250Y180250D03*
Y190250D03*
Y200250D03*
Y210250D03*
Y220250D03*
Y230250D03*
Y240250D03*
Y250250D03*
X215250Y180250D03*
Y190250D03*
Y200250D03*
Y210250D03*
Y220250D03*
Y230250D03*
Y240250D03*
Y250250D03*
D02*
D108*
X25250Y55250D03*
Y395250D03*
X225250Y55250D03*
Y395250D03*
D02*
D111*
X158550Y200250D03*
Y210250D03*
X163550Y262750D03*
X171950Y200250D03*
Y210250D03*
X176950Y262750D03*
D02*
D127*
X200250Y337750D03*
X230250D03*
D02*
D128*
X163250Y220250D03*
X172250D03*
D02*
D131*
X157750Y320250D03*
X177750D03*
D02*
D133*
X27750Y297750D03*
X37750D03*
X40250Y130250D03*
Y140250D03*
Y150250D03*
Y160250D03*
Y170250D03*
Y180250D03*
Y190250D03*
Y200250D03*
X47750Y297750D03*
X57750D03*
D02*
D134*
X103650Y60250D03*
X109050Y50250D03*
X114450Y60250D03*
X119850Y50250D03*
X125250Y60250D03*
X130650Y50250D03*
X136050Y60250D03*
X141450Y50250D03*
X146850Y60250D03*
D02*
D135*
X76050Y55250D03*
X174450D03*
D02*
D140*
X100329Y211510D03*
Y215250D03*
Y218990D03*
X110171Y211510D03*
Y218990D03*
D02*
D141*
X90250Y200850D03*
Y209650D03*
Y220850D03*
Y229650D03*
D02*
D142*
X75250Y298250D03*
Y307250D03*
X120250Y210750D03*
Y219750D03*
X150250Y233250D03*
Y242250D03*
X152750Y253250D03*
Y262250D03*
X187750Y230750D03*
Y239750D03*
D02*
D143*
X160132Y231510D03*
Y235250D03*
Y238990D03*
X170368Y231510D03*
Y235250D03*
Y238990D03*
X0Y0D02*
M02*
