G04 Easy-PC Gerber Version 25.0 Build 5877*
G04 #@! TF.Part,Single*
G04 #@! TF.FilePolarity,Positive*
%FSLAX35Y35*%
%MOIN*%
G04 #@! TA.AperFunction,ViaDrill*
%ADD15C,0.02400*%
%ADD16C,0.03200*%
G04 #@! TA.AperFunction,ComponentDrill*
%ADD17C,0.03800*%
G04 #@! TD.AperFunction*
X0Y0D02*
D02*
D15*
X152750Y332750D03*
X225250Y305250D03*
X230250Y325250D03*
X277750Y330250D03*
X282750Y315250D03*
X287750Y305250D03*
Y320250D03*
X292750Y310250D03*
X297750Y325250D03*
X302750Y320250D03*
Y330250D03*
X307750Y315250D03*
X312750Y300250D03*
X342750Y330250D03*
X347750Y315250D03*
X352750Y300250D03*
Y320250D03*
X357750Y310250D03*
X362750Y325250D03*
X367750Y320250D03*
Y330250D03*
X372750Y315250D03*
X377750Y300250D03*
X407750Y330250D03*
X412750Y315250D03*
X417750Y300250D03*
Y320250D03*
X422750Y310250D03*
X427750Y325250D03*
X432750Y320250D03*
Y330250D03*
X437750Y315250D03*
X442750Y300250D03*
X472750Y330250D03*
X477750Y315250D03*
X482750Y300250D03*
Y320250D03*
X487750Y310250D03*
X492750Y325250D03*
X497750Y320250D03*
X502750Y315250D03*
D02*
D16*
X457750Y267750D03*
Y292750D03*
Y337750D03*
Y362750D03*
D02*
D17*
X175250Y250250D03*
Y260250D03*
Y270250D03*
Y280250D03*
Y290250D03*
Y300250D03*
Y310250D03*
Y320250D03*
Y330250D03*
Y340250D03*
Y350250D03*
Y360250D03*
Y370250D03*
Y380250D03*
Y390250D03*
X235250Y250250D03*
Y260250D03*
Y270250D03*
Y280250D03*
Y290250D03*
Y300250D03*
Y310250D03*
Y320250D03*
Y330250D03*
Y340250D03*
Y350250D03*
Y360250D03*
Y370250D03*
Y380250D03*
Y390250D03*
X0Y0D02*
M02*
