G04 Easy-PC Gerber Version 25.0 Build 5877*
G04 #@! TF.Part,Single*
G04 #@! TF.FileFunction,Copper,L1,Top*
G04 #@! TF.FilePolarity,Positive*
%FSLAX35Y35*%
%MOIN*%
G04 #@! TA.AperFunction,SMDPad,CuDef*
%AMT145*0 Rounded Rectangle Pad at angle 0*4,1,40,-0.01750,-0.02800,0.01750,-0.02800,0.01924,-0.02785,0.02092,-0.02739,0.02250,-0.02666,0.02393,-0.02566,0.02516,-0.02443,0.02616,-0.02300,0.02690,-0.02142,0.02735,-0.01973,0.02750,-0.01800,0.02750,0.01800,0.02735,0.01974,0.02689,0.02142,0.02616,0.02300,0.02516,0.02443,0.02393,0.02566,0.02250,0.02666,0.02092,0.02740,0.01923,0.02785,0.01750,0.02800,-0.01750,0.02800,-0.01924,0.02785,-0.02092,0.02739,-0.02250,0.02666,-0.02393,0.02566,-0.02516,0.02443,-0.02616,0.02300,-0.02690,0.02142,-0.02735,0.01973,-0.02750,0.01800,-0.02750,-0.01800,-0.02735,-0.01974,-0.02689,-0.02142,-0.02616,-0.02300,-0.02516,-0.02443,-0.02393,-0.02566,-0.02250,-0.02666,-0.02092,-0.02740,-0.01923,-0.02785,-0.01750,-0.02800,0*%
%ADD145T145*%
%ADD148R,0.02500X0.08000*%
%ADD139R,0.02559X0.06102*%
%ADD143R,0.03150X0.03543*%
%ADD90R,0.03346X0.03740*%
%ADD128R,0.04000X0.04800*%
%ADD144R,0.05500X0.06000*%
%ADD147R,0.06102X0.07874*%
G04 #@! TD.AperFunction*
%ADD19C,0.01500*%
%ADD22C,0.02500*%
G04 #@! TA.AperFunction,ViaPad*
%ADD122C,0.04800*%
G04 #@! TA.AperFunction,SMDPad,CuDef*
%AMT141*0 Rounded Rectangle Pad at angle 90*4,1,40,0.02800,-0.01750,0.02800,0.01750,0.02785,0.01924,0.02739,0.02092,0.02666,0.02250,0.02566,0.02393,0.02443,0.02516,0.02300,0.02616,0.02142,0.02690,0.01973,0.02735,0.01800,0.02750,-0.01800,0.02750,-0.01974,0.02735,-0.02142,0.02689,-0.02300,0.02616,-0.02443,0.02516,-0.02566,0.02393,-0.02666,0.02250,-0.02740,0.02092,-0.02785,0.01923,-0.02800,0.01750,-0.02800,-0.01750,-0.02785,-0.01924,-0.02739,-0.02092,-0.02666,-0.02250,-0.02566,-0.02393,-0.02443,-0.02516,-0.02300,-0.02616,-0.02142,-0.02690,-0.01973,-0.02735,-0.01800,-0.02750,0.01800,-0.02750,0.01974,-0.02735,0.02142,-0.02689,0.02300,-0.02616,0.02443,-0.02516,0.02566,-0.02393,0.02666,-0.02250,0.02740,-0.02092,0.02785,-0.01923,0.02800,-0.01750,0*%
%ADD141T141*%
%ADD89R,0.05512X0.02362*%
%ADD140R,0.06016X0.02756*%
%ADD92R,0.03740X0.03346*%
%ADD142R,0.04724X0.03543*%
%ADD149R,0.04291X0.03937*%
G04 #@! TD.AperFunction*
%ADD18C,0.05000*%
G04 #@! TA.AperFunction,ViaPad*
%ADD26C,0.05600*%
G04 #@! TD.AperFunction*
%ADD25C,0.06000*%
G04 #@! TA.AperFunction,SMDPad,CuDef*
%ADD146R,0.07874X0.06102*%
G04 #@! TD.AperFunction*
X0Y0D02*
D02*
D18*
X145329Y328990D02*
Y330250D01*
X457750Y275750D02*
Y267750D01*
Y292750D02*
Y337750D01*
Y362750D02*
Y354750D01*
D02*
D19*
X155171Y321510D02*
Y313271D01*
X154650Y312750D01*
X155171Y321510D02*
X173990D01*
X175250Y320250D01*
X155171Y325250D02*
X180250D01*
X155171Y328990D02*
Y330329D01*
X152750Y332750D01*
X155171Y328990D02*
Y337229D01*
X154650Y337750D01*
X155171Y328990D02*
X173990D01*
X175250Y330250D01*
X225250Y305250D02*
Y337750D01*
X227750Y340250D01*
X235250D01*
Y310250D02*
X230250D01*
X227750Y312750D01*
Y322750D01*
X230250Y325250D01*
X252750Y369650D02*
X235850D01*
X235250Y370250D01*
X277750Y339522D02*
Y330250D01*
X282750Y315250D02*
Y339522D01*
X287750Y290978D02*
Y305250D01*
Y339522D02*
Y320250D01*
X292750Y310250D02*
Y290978D01*
Y339522D02*
Y330250D01*
X297750Y325250D01*
Y290978D02*
Y325250D01*
Y339522D02*
Y325250D01*
X302750Y290978D02*
Y320250D01*
Y339522D02*
Y330250D01*
X307750Y290978D02*
Y315250D01*
X312750Y300250D02*
Y290978D01*
X342750Y330250D02*
Y339522D01*
X347750D02*
Y315250D01*
X352750Y290978D02*
Y300250D01*
Y339522D02*
Y320250D01*
X357750Y290978D02*
Y310250D01*
Y339522D02*
Y330250D01*
X362750Y325250D01*
Y290978D02*
Y325250D01*
Y339522D02*
Y325250D01*
X367750Y290978D02*
Y320250D01*
Y339522D02*
Y330250D01*
X372750Y290978D02*
Y315250D01*
X377750Y300250D02*
Y290978D01*
X392750Y284750D02*
Y303350D01*
Y312150D02*
X375850D01*
X372750Y315250D01*
X407750Y330250D02*
Y339522D01*
X412750D02*
Y315250D01*
X417750Y290978D02*
Y300250D01*
Y339522D02*
Y320250D01*
X422750Y290978D02*
Y310250D01*
Y339522D02*
Y330250D01*
X427750Y325250D01*
Y290978D02*
Y325250D01*
Y339522D02*
Y325250D01*
X432750Y290978D02*
Y320250D01*
Y339522D02*
Y330250D01*
X437750Y290978D02*
Y315250D01*
X442750Y300250D02*
Y290978D01*
X472750Y330250D02*
Y339522D01*
X477750D02*
Y315250D01*
X482750Y290978D02*
Y300250D01*
Y339522D02*
Y320250D01*
X487750Y290978D02*
Y310250D01*
Y339522D02*
Y330250D01*
X492750Y325250D01*
Y290978D02*
Y325250D01*
Y339522D01*
X497750Y320250D02*
Y290978D01*
X502750D02*
Y315250D01*
D02*
D22*
X145329Y330250D02*
Y337229D01*
X145850Y337750D01*
X155171Y325250D02*
X149069D01*
X145329Y321510D01*
X180250Y325250D02*
X182750Y327750D01*
Y357750D01*
X180250Y360250D01*
X175250D01*
X277750Y282750D02*
X267750D01*
X245250Y260250D01*
X235250D01*
X277750Y282750D02*
X342750D01*
X277750Y290978D02*
Y282750D01*
Y360978D02*
Y370250D01*
X267750Y380250D01*
X235250D01*
X277750Y360978D02*
Y352750D01*
X342750D01*
X312750Y269522D02*
Y277750D01*
X377750D01*
X342750Y282750D02*
X407750D01*
X342750Y290978D02*
Y282750D01*
Y352750D02*
X407750D01*
X342750Y360978D02*
Y352750D01*
X377750Y269522D02*
Y277750D01*
X442750D01*
X377750Y339522D02*
Y347750D01*
X312750D01*
Y339522D01*
X407750Y282750D02*
X472750D01*
X407750Y290978D02*
Y282750D01*
Y352750D02*
X472750D01*
X407750Y360978D02*
Y352750D01*
X442750Y269522D02*
Y277750D01*
X507750D01*
X442750Y339522D02*
Y347750D01*
X377750D01*
X472750Y282750D02*
X520750D01*
X522750Y284750D01*
X472750Y282750D02*
Y290978D01*
Y352750D02*
X520750D01*
X522750Y354750D01*
X472750Y352750D02*
Y360978D01*
X507750Y277750D02*
X520750D01*
X522750Y275750D01*
X507750Y277750D02*
Y269522D01*
Y339522D02*
Y347750D01*
X520750D01*
X522750Y345750D01*
X507750Y347750D02*
X442750D01*
D02*
D25*
X175250Y250250D03*
Y260250D03*
Y270250D03*
Y280250D03*
Y290250D03*
Y300250D03*
Y310250D03*
Y320250D03*
Y330250D03*
Y340250D03*
Y350250D03*
Y360250D03*
Y370250D03*
Y380250D03*
Y390250D03*
X235250Y250250D03*
Y260250D03*
Y270250D03*
Y280250D03*
Y290250D03*
Y300250D03*
Y310250D03*
Y320250D03*
Y330250D03*
Y340250D03*
Y350250D03*
Y360250D03*
Y370250D03*
Y380250D03*
Y390250D03*
D02*
D26*
X457750Y267750D03*
Y292750D03*
Y337750D03*
Y362750D03*
D02*
D89*
X145329Y321510D03*
Y328990D03*
X155171Y321510D03*
Y325250D03*
Y328990D03*
D02*
D90*
X169600Y470250D03*
X172100Y150250D03*
X175900Y470250D03*
X178400Y150250D03*
X189600Y470250D03*
X192100Y150250D03*
X195900Y470250D03*
X198400Y150250D03*
X209600Y470250D03*
X212100Y150250D03*
X215900Y470250D03*
X218400Y150250D03*
X229600D03*
Y470250D03*
X235900Y150250D03*
Y470250D03*
X249600Y150250D03*
Y470250D03*
X255900Y150250D03*
Y470250D03*
X269600Y150250D03*
Y470250D03*
X275900Y150250D03*
Y470250D03*
X289600Y150250D03*
Y470250D03*
X295900Y150250D03*
Y470250D03*
X309600Y150250D03*
Y470250D03*
X315900Y150250D03*
Y470250D03*
X342100Y150250D03*
Y470250D03*
X348400Y150250D03*
Y470250D03*
X362100Y150250D03*
Y470250D03*
X368400Y150250D03*
Y470250D03*
X382100Y150250D03*
Y470250D03*
X388400Y150250D03*
Y470250D03*
X402100Y150250D03*
Y470250D03*
X408400Y150250D03*
Y470250D03*
X422100Y150250D03*
Y470250D03*
X428400Y150250D03*
Y470250D03*
X442100Y150250D03*
Y470250D03*
X448400Y150250D03*
Y470250D03*
X462100Y150250D03*
Y470250D03*
X468400Y150250D03*
Y470250D03*
X482100Y150250D03*
Y470250D03*
X488400Y150250D03*
Y470250D03*
D02*
D92*
X170250Y197100D03*
Y203400D03*
Y482100D03*
Y488400D03*
X175250Y159600D03*
Y165900D03*
X177750Y482100D03*
Y488400D03*
X190250Y197100D03*
Y203400D03*
Y482100D03*
Y488400D03*
X195250Y159600D03*
Y165900D03*
X197750Y482100D03*
Y488400D03*
X210250Y197100D03*
Y203400D03*
Y482100D03*
Y488400D03*
X215250Y159600D03*
Y165900D03*
X217750Y482100D03*
Y488400D03*
X230250Y197100D03*
Y203400D03*
Y482100D03*
Y488400D03*
X235250Y159600D03*
Y165900D03*
X237750Y482100D03*
Y488400D03*
X250250Y197100D03*
Y203400D03*
Y482100D03*
Y488400D03*
X255250Y159600D03*
Y165900D03*
X257750Y482100D03*
Y488400D03*
X270250Y197100D03*
Y203400D03*
Y482100D03*
Y488400D03*
X275250Y159600D03*
Y165900D03*
X277750Y482100D03*
Y488400D03*
X290250Y197100D03*
Y203400D03*
Y482100D03*
Y488400D03*
X295250Y159600D03*
Y165900D03*
X297750Y482100D03*
Y488400D03*
X310250Y197100D03*
Y203400D03*
Y482100D03*
Y488400D03*
X315250Y159600D03*
Y165900D03*
X317750Y482100D03*
Y488400D03*
X340250Y482100D03*
Y488400D03*
X342750Y197100D03*
Y203400D03*
X347750Y159600D03*
Y165900D03*
Y482100D03*
Y488400D03*
X360250Y482100D03*
Y488400D03*
X362750Y197100D03*
Y203400D03*
X367750Y159600D03*
Y165900D03*
Y482100D03*
Y488400D03*
X380250Y482100D03*
Y488400D03*
X382750Y197100D03*
Y203400D03*
X387750Y159600D03*
Y165900D03*
Y482100D03*
Y488400D03*
X400250Y482100D03*
Y488400D03*
X402750Y197100D03*
Y203400D03*
X407750Y159600D03*
Y165900D03*
Y482100D03*
Y488400D03*
X420250Y482100D03*
Y488400D03*
X422750Y197100D03*
Y203400D03*
X427750Y159600D03*
Y165900D03*
Y482100D03*
Y488400D03*
X440250Y482100D03*
Y488400D03*
X442750Y197100D03*
Y203400D03*
X447750Y159600D03*
Y165900D03*
Y482100D03*
Y488400D03*
X460250Y482100D03*
Y488400D03*
X462750Y197100D03*
Y203400D03*
X467750Y159600D03*
Y165900D03*
Y482100D03*
Y488400D03*
X480250Y482100D03*
Y488400D03*
X485250Y197100D03*
Y203400D03*
X487750Y482100D03*
Y488400D03*
X490250Y159600D03*
Y165900D03*
D02*
D122*
X152750Y332750D03*
X225250Y305250D03*
X230250Y325250D03*
X277750Y330250D03*
X282750Y315250D03*
X287750Y305250D03*
Y320250D03*
X292750Y310250D03*
X297750Y325250D03*
X302750Y320250D03*
Y330250D03*
X307750Y315250D03*
X312750Y300250D03*
X342750Y330250D03*
X347750Y315250D03*
X352750Y300250D03*
Y320250D03*
X357750Y310250D03*
X362750Y325250D03*
X367750Y320250D03*
Y330250D03*
X372750Y315250D03*
X377750Y300250D03*
X407750Y330250D03*
X412750Y315250D03*
X417750Y300250D03*
Y320250D03*
X422750Y310250D03*
X427750Y325250D03*
X432750Y320250D03*
Y330250D03*
X437750Y315250D03*
X442750Y300250D03*
X472750Y330250D03*
X477750Y315250D03*
X482750Y300250D03*
Y320250D03*
X487750Y310250D03*
X492750Y325250D03*
X497750Y320250D03*
X502750Y315250D03*
D02*
D128*
X168750Y560950D03*
X171250Y100950D03*
Y134550D03*
Y184550D03*
X172750Y569650D03*
X175250Y109650D03*
Y125850D03*
Y175850D03*
X176750Y560950D03*
X179250Y100950D03*
Y134550D03*
Y184550D03*
X188750Y560950D03*
X191250Y100950D03*
Y134550D03*
Y184550D03*
X192750Y569650D03*
X195250Y109650D03*
Y125850D03*
Y175850D03*
X196750Y560950D03*
X199250Y100950D03*
Y134550D03*
Y184550D03*
X208750Y560950D03*
X211250Y100950D03*
Y134550D03*
Y184550D03*
X212750Y569650D03*
X215250Y109650D03*
Y125850D03*
Y175850D03*
X216750Y560950D03*
X219250Y100950D03*
Y134550D03*
Y184550D03*
X228750Y560950D03*
X231250Y100950D03*
Y134550D03*
Y184550D03*
X232750Y569650D03*
X235250Y109650D03*
Y125850D03*
Y175850D03*
X236750Y560950D03*
X239250Y100950D03*
Y134550D03*
Y184550D03*
X248750Y560950D03*
X251250Y100950D03*
Y134550D03*
Y184550D03*
X252750Y569650D03*
X255250Y109650D03*
Y125850D03*
Y175850D03*
X256750Y560950D03*
X259250Y100950D03*
Y134550D03*
Y184550D03*
X268750Y560950D03*
X271250Y100950D03*
Y134550D03*
Y184550D03*
X272750Y569650D03*
X275250Y109650D03*
Y125850D03*
Y175850D03*
X276750Y560950D03*
X279250Y100950D03*
Y134550D03*
Y184550D03*
X288750Y560950D03*
X291250Y100950D03*
Y134550D03*
Y184550D03*
X292750Y569650D03*
X295250Y109650D03*
Y125850D03*
Y175850D03*
X296750Y560950D03*
X299250Y100950D03*
Y134550D03*
Y184550D03*
X308750Y560950D03*
X311250Y100950D03*
Y134550D03*
Y184550D03*
X312750Y569650D03*
X315250Y109650D03*
Y125850D03*
Y175850D03*
X316750Y560950D03*
X319250Y100950D03*
Y134550D03*
Y184550D03*
X338750Y560950D03*
X342750Y569650D03*
X343750Y100950D03*
Y134550D03*
Y184550D03*
X346750Y560950D03*
X347750Y109650D03*
Y125850D03*
Y175850D03*
X351750Y100950D03*
Y134550D03*
Y184550D03*
X358750Y560950D03*
X362750Y569650D03*
X363750Y100950D03*
Y134550D03*
Y184550D03*
X366750Y560950D03*
X367750Y109650D03*
Y125850D03*
Y175850D03*
X371750Y100950D03*
Y134550D03*
Y184550D03*
X378750Y560950D03*
X382750Y569650D03*
X383750Y100950D03*
Y134550D03*
Y184550D03*
X386750Y560950D03*
X387750Y109650D03*
Y125850D03*
Y175850D03*
X391750Y100950D03*
Y134550D03*
Y184550D03*
X398750Y560950D03*
X402750Y569650D03*
X403750Y100950D03*
Y134550D03*
Y184550D03*
X406750Y560950D03*
X407750Y109650D03*
Y125850D03*
Y175850D03*
X411750Y100950D03*
Y134550D03*
Y184550D03*
X418750Y560950D03*
X422750Y569650D03*
X423750Y100950D03*
Y134550D03*
Y184550D03*
X426750Y560950D03*
X427750Y109650D03*
Y125850D03*
Y175850D03*
X431750Y100950D03*
Y134550D03*
Y184550D03*
X438750Y560950D03*
X442750Y569650D03*
X443750Y100950D03*
Y134550D03*
Y184550D03*
X446750Y560950D03*
X447750Y109650D03*
Y125850D03*
Y175850D03*
X451750Y100950D03*
Y134550D03*
Y184550D03*
X458750Y560950D03*
X462750Y569650D03*
X463750Y100950D03*
Y134550D03*
Y184550D03*
X466750Y560950D03*
X467750Y109650D03*
Y125850D03*
Y175850D03*
X471750Y100950D03*
Y134550D03*
Y184550D03*
X478750Y560950D03*
X482750Y569650D03*
X483750Y100950D03*
Y134550D03*
X486250Y184550D03*
X486750Y560950D03*
X487750Y109650D03*
Y125850D03*
X490250Y175850D03*
X491750Y100950D03*
Y134550D03*
X494250Y184550D03*
D02*
D139*
X277750Y269522D03*
Y290978D03*
Y339522D03*
Y360978D03*
X282750Y269522D03*
Y290978D03*
Y339522D03*
Y360978D03*
X287750Y269522D03*
Y290978D03*
Y339522D03*
Y360978D03*
X292750Y269522D03*
Y290978D03*
Y339522D03*
Y360978D03*
X297750Y269522D03*
Y290978D03*
Y339522D03*
Y360978D03*
X302750Y269522D03*
Y290978D03*
Y339522D03*
Y360978D03*
X307750Y269522D03*
Y290978D03*
Y339522D03*
Y360978D03*
X312750Y269522D03*
Y290978D03*
Y339522D03*
Y360978D03*
X342750Y269522D03*
Y290978D03*
Y339522D03*
Y360978D03*
X347750Y269522D03*
Y290978D03*
Y339522D03*
Y360978D03*
X352750Y269522D03*
Y290978D03*
Y339522D03*
Y360978D03*
X357750Y269522D03*
Y290978D03*
Y339522D03*
Y360978D03*
X362750Y269522D03*
Y290978D03*
Y339522D03*
Y360978D03*
X367750Y269522D03*
Y290978D03*
Y339522D03*
Y360978D03*
X372750Y269522D03*
Y290978D03*
Y339522D03*
Y360978D03*
X377750Y269522D03*
Y290978D03*
Y339522D03*
Y360978D03*
X407750Y269522D03*
Y290978D03*
Y339522D03*
Y360978D03*
X412750Y269522D03*
Y290978D03*
Y339522D03*
Y360978D03*
X417750Y269522D03*
Y290978D03*
Y339522D03*
Y360978D03*
X422750Y269522D03*
Y290978D03*
Y339522D03*
Y360978D03*
X427750Y269522D03*
Y290978D03*
Y339522D03*
Y360978D03*
X432750Y269522D03*
Y290978D03*
Y339522D03*
Y360978D03*
X437750Y269522D03*
Y290978D03*
Y339522D03*
Y360978D03*
X442750Y269522D03*
Y290978D03*
Y339522D03*
Y360978D03*
X472750Y269522D03*
Y290978D03*
Y339522D03*
Y360978D03*
X477750Y269522D03*
Y290978D03*
Y339522D03*
Y360978D03*
X482750Y269522D03*
Y290978D03*
Y339522D03*
Y360978D03*
X487750Y269522D03*
Y290978D03*
Y339522D03*
Y360978D03*
X492750Y269522D03*
Y290978D03*
Y339522D03*
Y360978D03*
X497750Y269522D03*
Y290978D03*
Y339522D03*
Y360978D03*
X502750Y269522D03*
Y290978D03*
Y339522D03*
Y360978D03*
X507750Y269522D03*
Y290978D03*
Y339522D03*
Y360978D03*
D02*
D140*
X127077Y257750D03*
Y262750D03*
Y267750D03*
Y272750D03*
Y277750D03*
Y282750D03*
Y287750D03*
X148423Y257750D03*
Y262750D03*
Y267750D03*
Y272750D03*
Y277750D03*
Y282750D03*
Y287750D03*
D02*
D141*
X252750Y360850D03*
Y369650D03*
X392750Y303350D03*
Y312150D03*
X540250Y273350D03*
Y282150D03*
D02*
D142*
X302100Y241313D03*
X347100D03*
D02*
D143*
X301313Y249187D03*
X309187Y241313D03*
Y249187D03*
X346313D03*
X354187Y241313D03*
Y249187D03*
D02*
D144*
X327750Y275750D03*
Y284750D03*
Y345750D03*
Y354750D03*
X392750Y275750D03*
Y284750D03*
Y345750D03*
Y354750D03*
X457750Y275750D03*
Y284750D03*
Y345750D03*
Y354750D03*
X522750Y275750D03*
Y284750D03*
Y345750D03*
Y354750D03*
D02*
D145*
X145850Y312750D03*
Y337750D03*
X154650Y312750D03*
Y337750D03*
D02*
D146*
X384482Y245250D03*
X401018D03*
D02*
D147*
X172750Y524482D03*
Y541018D03*
X175250Y64482D03*
Y81018D03*
X192750Y524482D03*
Y541018D03*
X195250Y64482D03*
Y81018D03*
X212750Y524482D03*
Y541018D03*
X215250Y64482D03*
Y81018D03*
X232750Y524482D03*
Y541018D03*
X235250Y64482D03*
Y81018D03*
X252750Y524482D03*
Y541018D03*
X255250Y64482D03*
Y81018D03*
X272750Y524482D03*
Y541018D03*
X275250Y64482D03*
Y81018D03*
X292750Y524482D03*
Y541018D03*
X295250Y64482D03*
Y81018D03*
X312750Y524482D03*
Y541018D03*
X315250Y64482D03*
Y81018D03*
X342750Y524482D03*
Y541018D03*
X347750Y64482D03*
Y81018D03*
X362750Y524482D03*
Y541018D03*
X367750Y64482D03*
Y81018D03*
X382750Y524482D03*
Y541018D03*
X387750Y64482D03*
Y81018D03*
X402750Y524482D03*
Y541018D03*
X407750Y64482D03*
Y81018D03*
X422750Y524482D03*
Y541018D03*
X427750Y64482D03*
Y81018D03*
X442750Y524482D03*
Y541018D03*
X447750Y64482D03*
Y81018D03*
X462750Y524482D03*
Y541018D03*
X467750Y64482D03*
Y81018D03*
X482750Y524482D03*
Y541018D03*
X487750Y64482D03*
Y81018D03*
D02*
D148*
X280250Y386750D03*
Y408750D03*
X285250Y386750D03*
Y408750D03*
X290250Y386750D03*
Y408750D03*
X295250Y386750D03*
Y408750D03*
X300250Y386750D03*
Y408750D03*
X305250Y386750D03*
Y408750D03*
X310250Y386750D03*
Y408750D03*
X325250Y386750D03*
Y408750D03*
X330250Y386750D03*
Y408750D03*
X335250Y386750D03*
Y408750D03*
X340250Y386750D03*
Y408750D03*
X345250Y386750D03*
Y408750D03*
X350250Y386750D03*
Y408750D03*
X355250Y386750D03*
Y408750D03*
X370250Y386750D03*
Y408750D03*
X375250Y386750D03*
Y408750D03*
X380250Y386750D03*
Y408750D03*
X385250Y386750D03*
Y408750D03*
X390250Y386750D03*
Y408750D03*
X395250Y386750D03*
Y408750D03*
X400250Y386750D03*
Y408750D03*
X415250Y386750D03*
Y408750D03*
X420250Y386750D03*
Y408750D03*
X425250Y386750D03*
Y408750D03*
X430250Y386750D03*
Y408750D03*
X435250Y386750D03*
Y408750D03*
X440250Y386750D03*
Y408750D03*
X445250Y386750D03*
Y408750D03*
D02*
D149*
X169250Y455250D03*
X176250D03*
X189250D03*
X196250D03*
X209250D03*
X216250D03*
X229250D03*
X236250D03*
X249250D03*
X256250D03*
X269250D03*
X276250D03*
X289250D03*
X296250D03*
X309250D03*
X316250D03*
X341750D03*
X348750D03*
X361750D03*
X368750D03*
X381750D03*
X388750D03*
X401750D03*
X408750D03*
X421750D03*
X428750D03*
X441750D03*
X448750D03*
X461750D03*
X468750D03*
X481750D03*
X488750D03*
X0Y0D02*
M02*
