G05
M48
;#@! TF.GenerationSoftware,Number One Systems,Easy-PC,25.0.5875
;#@! TF.CreationDate,2023-05-31T14:41:39+00:00*
;#@! TF.FileFunction,Plated,1,2,PTH
;FILE_FORMAT=3:5
;TYPE=PLATED
INCH,TZ
FMAT,2
T1C000.02400
T2C000.03200
T3C000.03500
T4C000.03700
T5C000.03740
T6C000.03800
T7C000.04213
T8C000.10000
T9C000.13500
%
T001
X30250Y282750
X35250Y255250
X40250Y285250
X55250Y245250
X85250Y130250
X90250Y135250
X110250Y130250
X125250Y135250
X125250Y245250
X157750Y225250
X175250Y185250
X185250Y195250
X187750Y202750
X187750Y210250
X187750Y220250
T002
X82750Y307750
X83550Y95250
X97750Y150250
X97750Y200850
X97750Y229650
X97750Y297750
X110171Y205250
X110211Y265211
X117750Y127750
X122750Y97750
X145250Y235250
X157750Y270250
X177750Y250250
X180250Y150250
X180250Y190250
X195250Y127750
X195250Y185250
T003
X27750Y297750
X37750Y297750
X40250Y130250
X40250Y140250
X40250Y150250
X40250Y160250
X40250Y170250
X40250Y180250
X40250Y190250
X40250Y200250
X47750Y297750
X57750Y297750
X200250Y337750
X230250Y337750
T004
X103650Y60250
X109050Y50250
X114450Y60250
X119850Y50250
X125250Y60250
X130650Y50250
X136050Y60250
X141450Y50250
X146850Y60250
T005
X157750Y320250
X177750Y320250
T006
X75250Y140250
X75250Y150250
X75250Y160250
X75250Y170250
X75250Y180250
X75250Y190250
X75250Y200250
X75250Y210250
X75250Y220250
X75250Y230250
X75250Y240250
X75250Y250250
X75250Y260250
X75250Y270250
X75250Y280250
X135250Y140250
X135250Y150250
X135250Y160250
X135250Y170250
X135250Y180250
X135250Y190250
X135250Y200250
X135250Y210250
X135250Y220250
X135250Y230250
X135250Y240250
X135250Y250250
X135250Y260250
X135250Y270250
X135250Y280250
T007
X205250Y180250
X205250Y190250
X205250Y200250
X205250Y210250
X205250Y220250
X205250Y230250
X205250Y240250
X205250Y250250
X215250Y180250
X215250Y190250
X215250Y200250
X215250Y210250
X215250Y220250
X215250Y230250
X215250Y240250
X215250Y250250
T008
X76050Y55250
X174450Y55250
T009
X25250Y55250
X25250Y395250
X225250Y55250
X225250Y395250
M30
