G05
M48
;#@! TF.GenerationSoftware,Number One Systems,Easy-PC,25.0.5875
;#@! TF.CreationDate,2023-04-27T18:08:23+00:00*
;#@! TF.FileFunction,Plated,1,2,PTH
;FILE_FORMAT=3:5
;TYPE=PLATED
INCH,TZ
FMAT,2
T1C000.02400
T2C000.03200
T3C000.03800
%
T001
X152750Y332750
X225250Y305250
X230250Y325250
X277750Y330250
X282750Y315250
X287750Y305250
X287750Y320250
X292750Y310250
X297750Y325250
X302750Y320250
X302750Y330250
X307750Y315250
X312750Y300250
X342750Y330250
X347750Y315250
X352750Y300250
X352750Y320250
X357750Y310250
X362750Y325250
X367750Y320250
X367750Y330250
X372750Y315250
X377750Y300250
X407750Y330250
X412750Y315250
X417750Y300250
X417750Y320250
X422750Y310250
X427750Y325250
X432750Y320250
X432750Y330250
X437750Y315250
X442750Y300250
X472750Y330250
X477750Y315250
X482750Y300250
X482750Y320250
X487750Y310250
X492750Y325250
X497750Y320250
X502750Y315250
T002
X457750Y267750
X457750Y292750
X457750Y337750
X457750Y362750
T003
X175250Y250250
X175250Y260250
X175250Y270250
X175250Y280250
X175250Y290250
X175250Y300250
X175250Y310250
X175250Y320250
X175250Y330250
X175250Y340250
X175250Y350250
X175250Y360250
X175250Y370250
X175250Y380250
X175250Y390250
X235250Y250250
X235250Y260250
X235250Y270250
X235250Y280250
X235250Y290250
X235250Y300250
X235250Y310250
X235250Y320250
X235250Y330250
X235250Y340250
X235250Y350250
X235250Y360250
X235250Y370250
X235250Y380250
X235250Y390250
M30
