G05
M48
;#@! TF.GenerationSoftware,Number One Systems,Easy-PC,25.0.5875
;#@! TF.CreationDate,2023-05-31T14:02:17+00:00*
;#@! TF.FileFunction,Plated,1,2,PTH
;FILE_FORMAT=3:5
;TYPE=PLATED
INCH,TZ
FMAT,2
T1C000.02400
T2C000.03200
T3C000.04200
T4C000.04213
T5C000.04500
T6C000.05118
T7C000.13500
%
T001
X152750Y60250
X152750Y80250
X152750Y100250
X152750Y120250
X152750Y140250
X152750Y160250
X152750Y180250
X152750Y234750
X152750Y254750
X152750Y274750
X152750Y294750
X152750Y314750
X152750Y334750
X152750Y354750
X217750Y85250
X217750Y258750
X222750Y92750
X222750Y102750
X222750Y112750
X222750Y122750
X222750Y267750
X222750Y277750
X222750Y287750
X222750Y297750
X227750Y97750
X227750Y107750
X227750Y117750
X227750Y127750
X227750Y272750
X227750Y282750
X227750Y292750
X227750Y302750
X243750Y257250
X255250Y325250
X262750Y137750
X262750Y257750
X262750Y306750
X265250Y107750
X265250Y117750
X265250Y127750
X265250Y292750
X265250Y300250
X270250Y330250
X280250Y102750
X280250Y330250
X282750Y122750
X282750Y297750
X287750Y117750
X287750Y292750
X292750Y105250
X292750Y307750
X292750Y325250
X300250Y127750
X300250Y302750
X305250Y327750
X307022Y152750
X312750Y137750
X315250Y282750
X347750Y207750
X367750Y120250
X367750Y140250
X367750Y160250
X367750Y180250
X367750Y235250
X367750Y255250
X367750Y275250
X367750Y295250
X367750Y315250
X367750Y335250
X367750Y355250
X370250Y40250
X370250Y60250
X370250Y80250
X370250Y100250
X370250Y215250
T002
X152750Y200750
X152750Y375750
X245250Y82750
X245250Y132750
X245250Y307750
X252750Y342750
X268750Y266250
X272750Y90250
X305250Y267750
X307022Y92750
X315250Y47750
X322750Y140250
X322750Y315250
X322750Y342750
X352750Y40250
X352750Y60250
X352750Y80250
X352750Y100250
X352750Y120250
X352750Y140250
X352750Y160250
X352750Y180250
X352750Y215250
X352750Y235250
X352750Y255250
X352750Y275250
X352750Y295250
X352750Y315250
X352750Y335250
X352750Y355250
X357750Y200250
X425250Y207750
T003
X237750Y175250
X237750Y195250
X237750Y215250
X237750Y235250
T004
X232750Y352750
X232750Y362750
X235250Y52750
X235250Y62750
X242750Y352750
X242750Y362750
X245250Y52750
X245250Y62750
X252750Y352750
X252750Y362750
X255250Y52750
X255250Y62750
X262750Y352750
X262750Y362750
X265250Y52750
X265250Y62750
X272750Y352750
X272750Y362750
X275250Y52750
X275250Y62750
X282750Y352750
X282750Y362750
X285250Y52750
X285250Y62750
X292750Y352750
X292750Y362750
X295250Y52750
X295250Y62750
X302750Y352750
X302750Y362750
X305250Y52750
X305250Y62750
T005
X442750Y50250
X442750Y70250
X442750Y90250
X442750Y110250
X442750Y130250
X442750Y150250
X442750Y170250
X442750Y190250
X442750Y225250
X442750Y245250
X442750Y265250
X442750Y285250
X442750Y305250
X442750Y322750
X442750Y342750
X442750Y362750
T006
X55250Y50250
X55250Y69935
X55250Y89620
X55250Y109305
X55250Y128990
X55250Y148675
X55250Y168360
X55250Y188045
X55250Y225250
X55250Y244935
X55250Y264620
X55250Y284305
X55250Y303990
X55250Y323675
X55250Y343360
X55250Y363045
X467750Y50250
X467750Y69935
X467750Y89620
X467750Y109305
X467750Y128990
X467750Y148675
X467750Y168360
X467750Y188045
X467750Y225250
X467750Y244935
X467750Y264620
X467750Y284305
X467750Y303990
X467750Y323675
X467750Y343360
X467750Y363045
T007
X90250Y20250
X90250Y395250
X430250Y20250
X430250Y395250
M30
