G04 Easy-PC Gerber Version 25.0 Build 5877*
G04 #@! TF.Part,Single*
G04 #@! TF.FileFunction,Other,DaisyIOFINAL - Documentation*
G04 #@! TF.FilePolarity,Positive*
%FSLAX35Y35*%
%MOIN*%
%ADD13C,0.00197*%
%ADD14C,0.00394*%
G04 #@! TD.AperFunction*
X0Y0D02*
D02*
D13*
X105939Y56943D02*
X79561D01*
Y43557D01*
X105939D01*
Y56943D01*
Y76943D02*
X79561D01*
Y63557D01*
X105939D01*
Y76943D01*
Y96943D02*
X79561D01*
Y83557D01*
X105939D01*
Y96943D01*
Y116943D02*
X79561D01*
Y103557D01*
X105939D01*
Y116943D01*
Y136943D02*
X79561D01*
Y123557D01*
X105939D01*
Y136943D01*
Y156943D02*
X79561D01*
Y143557D01*
X105939D01*
Y156943D01*
Y176943D02*
X79561D01*
Y163557D01*
X105939D01*
Y176943D01*
Y196943D02*
X79561D01*
Y183557D01*
X105939D01*
Y196943D01*
Y231943D02*
X79561D01*
Y218557D01*
X105939D01*
Y231943D01*
Y251943D02*
X79561D01*
Y238557D01*
X105939D01*
Y251943D01*
Y271943D02*
X79561D01*
Y258557D01*
X105939D01*
Y271943D01*
Y291943D02*
X79561D01*
Y278557D01*
X105939D01*
Y291943D01*
Y311943D02*
X79561D01*
Y298557D01*
X105939D01*
Y311943D01*
Y331943D02*
X79561D01*
Y318557D01*
X105939D01*
Y331943D01*
Y351943D02*
X79561D01*
Y338557D01*
X105939D01*
Y351943D01*
Y371943D02*
X79561D01*
Y358557D01*
X105939D01*
Y371943D01*
X123557Y47297D02*
X111943D01*
Y53203D01*
X123557D01*
Y47297D01*
Y67297D02*
X111943D01*
Y73203D01*
X123557D01*
Y67297D01*
Y87297D02*
X111943D01*
Y93203D01*
X123557D01*
Y87297D01*
Y107297D02*
X111943D01*
Y113203D01*
X123557D01*
Y107297D01*
Y127297D02*
X111943D01*
Y133203D01*
X123557D01*
Y127297D01*
Y147297D02*
X111943D01*
Y153203D01*
X123557D01*
Y147297D01*
Y167297D02*
X111943D01*
Y173203D01*
X123557D01*
Y167297D01*
Y187297D02*
X111943D01*
Y193203D01*
X123557D01*
Y187297D01*
Y222297D02*
X111943D01*
Y228203D01*
X123557D01*
Y222297D01*
Y242297D02*
X111943D01*
Y248203D01*
X123557D01*
Y242297D01*
Y262297D02*
X111943D01*
Y268203D01*
X123557D01*
Y262297D01*
Y282297D02*
X111943D01*
Y288203D01*
X123557D01*
Y282297D01*
Y302297D02*
X111943D01*
Y308203D01*
X123557D01*
Y302297D01*
Y322297D02*
X111943D01*
Y328203D01*
X123557D01*
Y322297D01*
Y342297D02*
X111943D01*
Y348203D01*
X123557D01*
Y342297D01*
Y362297D02*
X111943D01*
Y368203D01*
X123557D01*
Y362297D01*
X148557Y48203D02*
X136943D01*
Y42297D01*
X148557D01*
Y48203D01*
Y58203D02*
X136943D01*
Y52297D01*
X148557D01*
Y58203D01*
Y68203D02*
X136943D01*
Y62297D01*
X148557D01*
Y68203D01*
Y78203D02*
X136943D01*
Y72297D01*
X148557D01*
Y78203D01*
Y88203D02*
X136943D01*
Y82297D01*
X148557D01*
Y88203D01*
Y98203D02*
X136943D01*
Y92297D01*
X148557D01*
Y98203D01*
Y108203D02*
X136943D01*
Y102297D01*
X148557D01*
Y108203D01*
Y118203D02*
X136943D01*
Y112297D01*
X148557D01*
Y118203D01*
Y128203D02*
X136943D01*
Y122297D01*
X148557D01*
Y128203D01*
Y138203D02*
X136943D01*
Y132297D01*
X148557D01*
Y138203D01*
Y148203D02*
X136943D01*
Y142297D01*
X148557D01*
Y148203D01*
Y158203D02*
X136943D01*
Y152297D01*
X148557D01*
Y158203D01*
Y168203D02*
X136943D01*
Y162297D01*
X148557D01*
Y168203D01*
Y178203D02*
X136943D01*
Y172297D01*
X148557D01*
Y178203D01*
Y188203D02*
X136943D01*
Y182297D01*
X148557D01*
Y188203D01*
Y198203D02*
X136943D01*
Y192297D01*
X148557D01*
Y198203D01*
Y223203D02*
X136943D01*
Y217297D01*
X148557D01*
Y223203D01*
Y233203D02*
X136943D01*
Y227297D01*
X148557D01*
Y233203D01*
Y243203D02*
X136943D01*
Y237297D01*
X148557D01*
Y243203D01*
Y253203D02*
X136943D01*
Y247297D01*
X148557D01*
Y253203D01*
Y263203D02*
X136943D01*
Y257297D01*
X148557D01*
Y263203D01*
Y273203D02*
X136943D01*
Y267297D01*
X148557D01*
Y273203D01*
Y283203D02*
X136943D01*
Y277297D01*
X148557D01*
Y283203D01*
Y293203D02*
X136943D01*
Y287297D01*
X148557D01*
Y293203D01*
Y303203D02*
X136943D01*
Y297297D01*
X148557D01*
Y303203D01*
Y313203D02*
X136943D01*
Y307297D01*
X148557D01*
Y313203D01*
Y323203D02*
X136943D01*
Y317297D01*
X148557D01*
Y323203D01*
Y333203D02*
X136943D01*
Y327297D01*
X148557D01*
Y333203D01*
Y343203D02*
X136943D01*
Y337297D01*
X148557D01*
Y343203D01*
Y353203D02*
X136943D01*
Y347297D01*
X148557D01*
Y353203D01*
Y363203D02*
X136943D01*
Y357297D01*
X148557D01*
Y363203D01*
Y373203D02*
X136943D01*
Y367297D01*
X148557D01*
Y373203D01*
X166943Y42297D02*
X178557D01*
Y48203D01*
X166943D01*
Y42297D01*
Y62297D02*
X178557D01*
Y68203D01*
X166943D01*
Y62297D01*
Y82297D02*
X178557D01*
Y88203D01*
X166943D01*
Y82297D01*
Y102297D02*
X178557D01*
Y108203D01*
X166943D01*
Y102297D01*
Y122297D02*
X178557D01*
Y128203D01*
X166943D01*
Y122297D01*
Y142297D02*
X178557D01*
Y148203D01*
X166943D01*
Y142297D01*
Y162297D02*
X178557D01*
Y168203D01*
X166943D01*
Y162297D01*
Y182297D02*
X178557D01*
Y188203D01*
X166943D01*
Y182297D01*
Y217297D02*
X178557D01*
Y223203D01*
X166943D01*
Y217297D01*
Y237297D02*
X178557D01*
Y243203D01*
X166943D01*
Y237297D01*
Y257297D02*
X178557D01*
Y263203D01*
X166943D01*
Y257297D01*
Y277297D02*
X178557D01*
Y283203D01*
X166943D01*
Y277297D01*
Y297297D02*
X178557D01*
Y303203D01*
X166943D01*
Y297297D01*
Y317297D02*
X178557D01*
Y323203D01*
X166943D01*
Y317297D01*
Y337297D02*
X178557D01*
Y343203D01*
X166943D01*
Y337297D01*
Y357297D02*
X178557D01*
Y363203D01*
X166943D01*
Y357297D01*
X194325Y78675D02*
X241175D01*
Y131825D01*
X194325D01*
Y78675D01*
Y253675D02*
X241175D01*
Y306825D01*
X194325D01*
Y253675D01*
X247986Y94581D02*
X277514D01*
Y135919D01*
X247986D01*
Y94581D01*
Y269581D02*
X277514D01*
Y310919D01*
X247986D01*
Y269581D01*
X259561Y181943D02*
X285939D01*
Y168557D01*
X259561D01*
Y181943D01*
Y201943D02*
X285939D01*
Y188557D01*
X259561D01*
Y201943D01*
Y221943D02*
X285939D01*
Y208557D01*
X259561D01*
Y221943D01*
Y241943D02*
X285939D01*
Y228557D01*
X259561D01*
Y241943D01*
X281057Y322297D02*
X269443D01*
Y328203D01*
X281057D01*
Y322297D01*
X332514Y94581D02*
X302986D01*
Y135919D01*
X332514D01*
Y94581D01*
Y269581D02*
X302986D01*
Y310919D01*
X332514D01*
Y269581D01*
X349443Y50703D02*
X361057D01*
Y44797D01*
X349443D01*
Y50703D01*
Y70703D02*
X361057D01*
Y64797D01*
X349443D01*
Y70703D01*
Y90703D02*
X361057D01*
Y84797D01*
X349443D01*
Y90703D01*
Y110703D02*
X361057D01*
Y104797D01*
X349443D01*
Y110703D01*
Y130703D02*
X361057D01*
Y124797D01*
X349443D01*
Y130703D01*
Y150703D02*
X361057D01*
Y144797D01*
X349443D01*
Y150703D01*
Y170703D02*
X361057D01*
Y164797D01*
X349443D01*
Y170703D01*
Y190703D02*
X361057D01*
Y184797D01*
X349443D01*
Y190703D01*
Y225703D02*
X361057D01*
Y219797D01*
X349443D01*
Y225703D01*
Y245703D02*
X361057D01*
Y239797D01*
X349443D01*
Y245703D01*
Y265703D02*
X361057D01*
Y259797D01*
X349443D01*
Y265703D01*
Y285703D02*
X361057D01*
Y279797D01*
X349443D01*
Y285703D01*
Y305703D02*
X361057D01*
Y299797D01*
X349443D01*
Y305703D01*
Y325703D02*
X361057D01*
Y319797D01*
X349443D01*
Y325703D01*
Y345703D02*
X361057D01*
Y339797D01*
X349443D01*
Y345703D01*
Y365703D02*
X361057D01*
Y359797D01*
X349443D01*
Y365703D01*
X360703Y44443D02*
Y56057D01*
X354797D01*
Y44443D01*
X360703D01*
Y64443D02*
Y76057D01*
X354797D01*
Y64443D01*
X360703D01*
Y84443D02*
Y96057D01*
X354797D01*
Y84443D01*
X360703D01*
Y104443D02*
Y116057D01*
X354797D01*
Y104443D01*
X360703D01*
Y124443D02*
Y136057D01*
X354797D01*
Y124443D01*
X360703D01*
Y144443D02*
Y156057D01*
X354797D01*
Y144443D01*
X360703D01*
Y164443D02*
Y176057D01*
X354797D01*
Y164443D01*
X360703D01*
Y184443D02*
Y196057D01*
X354797D01*
Y184443D01*
X360703D01*
Y219443D02*
Y231057D01*
X354797D01*
Y219443D01*
X360703D01*
Y239443D02*
Y251057D01*
X354797D01*
Y239443D01*
X360703D01*
Y259443D02*
Y271057D01*
X354797D01*
Y259443D01*
X360703D01*
Y279443D02*
Y291057D01*
X354797D01*
Y279443D01*
X360703D01*
Y299443D02*
Y311057D01*
X354797D01*
Y299443D01*
X360703D01*
Y319443D02*
Y331057D01*
X354797D01*
Y319443D01*
X360703D01*
Y339443D02*
Y351057D01*
X354797D01*
Y339443D01*
X360703D01*
Y359443D02*
Y371057D01*
X354797D01*
Y359443D01*
X360703D01*
X440939Y56943D02*
X414561D01*
Y43557D01*
X440939D01*
Y56943D01*
Y76943D02*
X414561D01*
Y63557D01*
X440939D01*
Y76943D01*
Y96943D02*
X414561D01*
Y83557D01*
X440939D01*
Y96943D01*
Y116943D02*
X414561D01*
Y103557D01*
X440939D01*
Y116943D01*
Y136943D02*
X414561D01*
Y123557D01*
X440939D01*
Y136943D01*
Y156943D02*
X414561D01*
Y143557D01*
X440939D01*
Y156943D01*
Y176943D02*
X414561D01*
Y163557D01*
X440939D01*
Y176943D01*
Y196943D02*
X414561D01*
Y183557D01*
X440939D01*
Y196943D01*
Y231943D02*
X414561D01*
Y218557D01*
X440939D01*
Y231943D01*
Y251943D02*
X414561D01*
Y238557D01*
X440939D01*
Y251943D01*
Y271943D02*
X414561D01*
Y258557D01*
X440939D01*
Y271943D01*
Y291943D02*
X414561D01*
Y278557D01*
X440939D01*
Y291943D01*
Y311943D02*
X414561D01*
Y298557D01*
X440939D01*
Y311943D01*
Y331943D02*
X414561D01*
Y318557D01*
X440939D01*
Y331943D01*
Y351943D02*
X414561D01*
Y338557D01*
X440939D01*
Y351943D01*
Y371943D02*
X414561D01*
Y358557D01*
X440939D01*
Y371943D01*
D02*
D14*
X75329Y36470D02*
Y201825D01*
X32022D01*
Y36470D01*
X75329D01*
Y211470D02*
Y376825D01*
X32022D01*
Y211470D01*
X75329D01*
X101215Y44738D02*
X84285D01*
Y55762D01*
X101215D01*
Y44738D01*
Y64738D02*
X84285D01*
Y75762D01*
X101215D01*
Y64738D01*
Y84738D02*
X84285D01*
Y95762D01*
X101215D01*
Y84738D01*
Y104738D02*
X84285D01*
Y115762D01*
X101215D01*
Y104738D01*
Y124738D02*
X84285D01*
Y135762D01*
X101215D01*
Y124738D01*
Y144738D02*
X84285D01*
Y155762D01*
X101215D01*
Y144738D01*
Y164738D02*
X84285D01*
Y175762D01*
X101215D01*
Y164738D01*
Y184738D02*
X84285D01*
Y195762D01*
X101215D01*
Y184738D01*
Y219738D02*
X84285D01*
Y230762D01*
X101215D01*
Y219738D01*
Y239738D02*
X84285D01*
Y250762D01*
X101215D01*
Y239738D01*
Y259738D02*
X84285D01*
Y270762D01*
X101215D01*
Y259738D01*
Y279738D02*
X84285D01*
Y290762D01*
X101215D01*
Y279738D01*
Y299738D02*
X84285D01*
Y310762D01*
X101215D01*
Y299738D01*
Y319738D02*
X84285D01*
Y330762D01*
X101215D01*
Y319738D01*
Y339738D02*
X84285D01*
Y350762D01*
X101215D01*
Y339738D01*
Y359738D02*
X84285D01*
Y370762D01*
X101215D01*
Y359738D01*
X185427Y378026D02*
X350073D01*
Y332553D01*
X185427D01*
Y378026D01*
X187927Y78026D02*
X352573D01*
Y32553D01*
X187927D01*
Y78026D01*
X399285Y55762D02*
X416215D01*
Y44738D01*
X399285D01*
Y55762D01*
Y75762D02*
X416215D01*
Y64738D01*
X399285D01*
Y75762D01*
Y95762D02*
X416215D01*
Y84738D01*
X399285D01*
Y95762D01*
Y115762D02*
X416215D01*
Y104738D01*
X399285D01*
Y115762D01*
Y135762D02*
X416215D01*
Y124738D01*
X399285D01*
Y135762D01*
Y155762D02*
X416215D01*
Y144738D01*
X399285D01*
Y155762D01*
Y175762D02*
X416215D01*
Y164738D01*
X399285D01*
Y175762D01*
Y195762D02*
X416215D01*
Y184738D01*
X399285D01*
Y195762D01*
Y230762D02*
X416215D01*
Y219738D01*
X399285D01*
Y230762D01*
Y250762D02*
X416215D01*
Y239738D01*
X399285D01*
Y250762D01*
Y270762D02*
X416215D01*
Y259738D01*
X399285D01*
Y270762D01*
Y290762D02*
X416215D01*
Y279738D01*
X399285D01*
Y290762D01*
Y310762D02*
X416215D01*
Y299738D01*
X399285D01*
Y310762D01*
Y330762D02*
X416215D01*
Y319738D01*
X399285D01*
Y330762D01*
Y350762D02*
X416215D01*
Y339738D01*
X399285D01*
Y350762D01*
Y370762D02*
X416215D01*
Y359738D01*
X399285D01*
Y370762D01*
X487829Y36470D02*
Y201825D01*
X444522D01*
Y36470D01*
X487829D01*
Y211470D02*
Y376825D01*
X444522D01*
Y211470D01*
X487829D01*
X0Y0D02*
M02*
