G04 Easy-PC Gerber Version 25.0 Build 5877*
G04 #@! TF.Part,Single*
G04 #@! TF.FileFunction,Soldermask,Bot*
G04 #@! TF.FilePolarity,Negative*
%FSLAX35Y35*%
%MOIN*%
G04 #@! TA.AperFunction,SMDPad,CuDef*
%ADD80R,0.05000X0.05400*%
G04 #@! TA.AperFunction,ComponentPad*
%ADD81R,0.08677X0.08677*%
G04 #@! TA.AperFunction,ViaPad*
%ADD10C,0.05800*%
G04 #@! TA.AperFunction,ComponentPad*
%ADD112C,0.06500*%
G04 #@! TA.AperFunction,ViaPad*
%ADD11C,0.06600*%
G04 #@! TA.AperFunction,SMDPad,CuDef*
%ADD110R,0.07102X0.03756*%
%ADD92R,0.08677X0.03756*%
G04 #@! TA.AperFunction,ComponentPad*
%ADD83C,0.07319*%
G04 #@! TA.AperFunction,SMDPad,CuDef*
%ADD95R,0.05291X0.04937*%
%ADD93R,0.05400X0.05000*%
%ADD79R,0.05800X0.05000*%
G04 #@! TA.AperFunction,ComponentPad*
%ADD82C,0.08677*%
G04 #@! TA.AperFunction,SMDPad,CuDef*
%ADD94R,0.08874X0.07102*%
G04 #@! TA.AperFunction,WasherPad*
%ADD109C,0.10600*%
%ADD108C,0.27000*%
G04 #@! TD.AperFunction*
X0Y0D02*
D02*
D10*
X152750Y60250D03*
Y80250D03*
Y100250D03*
Y120250D03*
Y140250D03*
Y160250D03*
Y180250D03*
Y234750D03*
Y254750D03*
Y274750D03*
Y294750D03*
Y314750D03*
Y334750D03*
Y354750D03*
X217750Y85250D03*
Y258750D03*
X222750Y92750D03*
Y102750D03*
Y112750D03*
Y122750D03*
Y267750D03*
Y277750D03*
Y287750D03*
Y297750D03*
X227750Y97750D03*
Y107750D03*
Y117750D03*
Y127750D03*
Y272750D03*
Y282750D03*
Y292750D03*
Y302750D03*
X243750Y257250D03*
X255250Y325250D03*
X262750Y137750D03*
Y257750D03*
Y306750D03*
X265250Y107750D03*
Y117750D03*
Y127750D03*
Y292750D03*
Y300250D03*
X270250Y330250D03*
X280250Y102750D03*
Y330250D03*
X282750Y122750D03*
Y297750D03*
X287750Y117750D03*
Y292750D03*
X292750Y105250D03*
Y307750D03*
Y325250D03*
X300250Y127750D03*
Y302750D03*
X305250Y327750D03*
X307022Y152750D03*
X312750Y137750D03*
X315250Y282750D03*
X347750Y207750D03*
X367750Y120250D03*
Y140250D03*
Y160250D03*
Y180250D03*
Y235250D03*
Y255250D03*
Y275250D03*
Y295250D03*
Y315250D03*
Y335250D03*
Y355250D03*
X370250Y40250D03*
Y60250D03*
Y80250D03*
Y100250D03*
Y215250D03*
D02*
D11*
X152750Y200750D03*
Y375750D03*
X245250Y82750D03*
Y132750D03*
Y307750D03*
X252750Y342750D03*
X268750Y266250D03*
X272750Y90250D03*
X305250Y267750D03*
X307022Y92750D03*
X315250Y47750D03*
X322750Y140250D03*
Y315250D03*
Y342750D03*
X352750Y40250D03*
Y60250D03*
Y80250D03*
Y100250D03*
Y120250D03*
Y140250D03*
Y160250D03*
Y180250D03*
Y215250D03*
Y235250D03*
Y255250D03*
Y275250D03*
Y295250D03*
Y315250D03*
Y335250D03*
Y355250D03*
X357750Y200250D03*
X425250Y207750D03*
D02*
D79*
X118350Y50250D03*
Y70250D03*
Y90250D03*
Y110250D03*
Y130250D03*
Y150250D03*
Y170250D03*
Y190250D03*
Y225250D03*
Y245250D03*
Y265250D03*
Y285250D03*
Y305250D03*
Y325250D03*
Y345250D03*
Y365250D03*
X127050Y46250D03*
Y54250D03*
Y66250D03*
Y74250D03*
Y86250D03*
Y94250D03*
Y106250D03*
Y114250D03*
Y126250D03*
Y134250D03*
Y146250D03*
Y154250D03*
Y166250D03*
Y174250D03*
Y186250D03*
Y194250D03*
Y221250D03*
Y229250D03*
Y241250D03*
Y249250D03*
Y261250D03*
Y269250D03*
Y281250D03*
Y289250D03*
Y301250D03*
Y309250D03*
Y321250D03*
Y329250D03*
Y341250D03*
Y349250D03*
Y361250D03*
Y369250D03*
X373450Y46250D03*
Y54250D03*
Y66250D03*
Y74250D03*
Y86250D03*
Y94250D03*
Y106250D03*
Y114250D03*
Y126250D03*
Y134250D03*
Y146250D03*
Y154250D03*
Y166250D03*
Y174250D03*
Y186250D03*
Y194250D03*
Y221250D03*
Y229250D03*
Y241250D03*
Y249250D03*
Y261250D03*
Y269250D03*
Y281250D03*
Y289250D03*
Y301250D03*
Y309250D03*
Y321250D03*
Y329250D03*
Y341250D03*
Y349250D03*
Y361250D03*
Y369250D03*
X382150Y50250D03*
Y70250D03*
Y90250D03*
Y110250D03*
Y130250D03*
Y150250D03*
Y170250D03*
Y190250D03*
Y225250D03*
Y245250D03*
Y265250D03*
Y285250D03*
Y305250D03*
Y325250D03*
Y345250D03*
Y365250D03*
X393350Y50250D03*
Y70250D03*
Y90250D03*
Y110250D03*
Y130250D03*
Y150250D03*
Y170250D03*
Y190250D03*
Y225250D03*
Y245250D03*
Y265250D03*
Y285250D03*
Y305250D03*
Y325250D03*
Y345250D03*
Y365250D03*
X402050Y46250D03*
Y54250D03*
Y66250D03*
Y74250D03*
Y86250D03*
Y94250D03*
Y106250D03*
Y114250D03*
Y126250D03*
Y134250D03*
Y146250D03*
Y154250D03*
Y166250D03*
Y174250D03*
Y186250D03*
Y194250D03*
Y221250D03*
Y229250D03*
Y241250D03*
Y249250D03*
Y261250D03*
Y269250D03*
Y281250D03*
Y289250D03*
Y301250D03*
Y309250D03*
Y321250D03*
Y329250D03*
Y341250D03*
Y349250D03*
Y361250D03*
Y369250D03*
D02*
D80*
X139600Y45250D03*
Y55250D03*
Y65250D03*
Y75250D03*
Y85250D03*
Y95250D03*
Y105250D03*
Y115250D03*
Y125250D03*
Y135250D03*
Y145250D03*
Y155250D03*
Y165250D03*
Y175250D03*
Y185250D03*
Y195250D03*
Y220250D03*
Y230250D03*
Y240250D03*
Y250250D03*
Y260250D03*
Y270250D03*
Y280250D03*
Y290250D03*
Y300250D03*
Y310250D03*
Y320250D03*
Y330250D03*
Y340250D03*
Y350250D03*
Y360250D03*
Y370250D03*
X145900Y45250D03*
Y55250D03*
Y65250D03*
Y75250D03*
Y85250D03*
Y95250D03*
Y105250D03*
Y115250D03*
Y125250D03*
Y135250D03*
Y145250D03*
Y155250D03*
Y165250D03*
Y175250D03*
Y185250D03*
Y195250D03*
Y220250D03*
Y230250D03*
Y240250D03*
Y250250D03*
Y260250D03*
Y270250D03*
Y280250D03*
Y290250D03*
Y300250D03*
Y310250D03*
Y320250D03*
Y330250D03*
Y340250D03*
Y350250D03*
Y360250D03*
Y370250D03*
X169600Y45250D03*
Y65250D03*
Y85250D03*
Y105250D03*
Y125250D03*
Y145250D03*
Y165250D03*
Y185250D03*
Y220250D03*
Y240250D03*
Y260250D03*
Y280250D03*
Y300250D03*
Y320250D03*
Y340250D03*
Y360250D03*
X175900Y45250D03*
Y65250D03*
Y85250D03*
Y105250D03*
Y125250D03*
Y145250D03*
Y165250D03*
Y185250D03*
Y220250D03*
Y240250D03*
Y260250D03*
Y280250D03*
Y300250D03*
Y320250D03*
Y340250D03*
Y360250D03*
D02*
D81*
X55250Y50250D03*
Y225250D03*
X467750Y50250D03*
Y225250D03*
D02*
D82*
X55250Y69935D03*
Y89620D03*
Y109305D03*
Y128990D03*
Y148675D03*
Y168360D03*
Y188045D03*
Y244935D03*
Y264620D03*
Y284305D03*
Y303990D03*
Y323675D03*
Y343360D03*
Y363045D03*
X467750Y69935D03*
Y89620D03*
Y109305D03*
Y128990D03*
Y148675D03*
Y168360D03*
Y188045D03*
Y244935D03*
Y264620D03*
Y284305D03*
Y303990D03*
Y323675D03*
Y343360D03*
Y363045D03*
D02*
D83*
X232750Y352750D03*
Y362750D03*
X235250Y52750D03*
Y62750D03*
X242750Y352750D03*
Y362750D03*
X245250Y52750D03*
Y62750D03*
X252750Y352750D03*
Y362750D03*
X255250Y52750D03*
Y62750D03*
X262750Y352750D03*
Y362750D03*
X265250Y52750D03*
Y62750D03*
X272750Y352750D03*
Y362750D03*
X275250Y52750D03*
Y62750D03*
X282750Y352750D03*
Y362750D03*
X285250Y52750D03*
Y62750D03*
X292750Y352750D03*
Y362750D03*
X295250Y52750D03*
Y62750D03*
X302750Y352750D03*
Y362750D03*
X305250Y52750D03*
Y62750D03*
D02*
D92*
X199148Y82750D03*
Y87750D03*
Y92750D03*
Y97750D03*
Y102750D03*
Y107750D03*
Y112750D03*
Y117750D03*
Y122750D03*
Y127750D03*
Y257750D03*
Y262750D03*
Y267750D03*
Y272750D03*
Y277750D03*
Y282750D03*
Y287750D03*
Y292750D03*
Y297750D03*
Y302750D03*
X236352Y82750D03*
Y87750D03*
Y92750D03*
Y97750D03*
Y102750D03*
Y107750D03*
Y112750D03*
Y117750D03*
Y122750D03*
Y127750D03*
Y257750D03*
Y262750D03*
Y267750D03*
Y272750D03*
Y277750D03*
Y282750D03*
Y287750D03*
Y292750D03*
Y297750D03*
Y302750D03*
D02*
D93*
X357750Y47100D03*
Y53400D03*
Y67100D03*
Y73400D03*
Y87100D03*
Y93400D03*
Y107100D03*
Y113400D03*
Y127100D03*
Y133400D03*
Y147100D03*
Y153400D03*
Y167100D03*
Y173400D03*
Y187100D03*
Y193400D03*
Y222100D03*
Y228400D03*
Y242100D03*
Y248400D03*
Y262100D03*
Y268400D03*
Y282100D03*
Y288400D03*
Y302100D03*
Y308400D03*
Y322100D03*
Y328400D03*
Y342100D03*
Y348400D03*
Y362100D03*
Y368400D03*
D02*
D94*
X84482Y50250D03*
Y70250D03*
Y90250D03*
Y110250D03*
Y130250D03*
Y150250D03*
Y170250D03*
Y190250D03*
Y225250D03*
Y245250D03*
Y265250D03*
Y285250D03*
Y305250D03*
Y325250D03*
Y345250D03*
Y365250D03*
X101018Y50250D03*
Y70250D03*
Y90250D03*
Y110250D03*
Y130250D03*
Y150250D03*
Y170250D03*
Y190250D03*
Y225250D03*
Y245250D03*
Y265250D03*
Y285250D03*
Y305250D03*
Y325250D03*
Y345250D03*
Y365250D03*
X419482Y50250D03*
Y70250D03*
Y90250D03*
Y110250D03*
Y130250D03*
Y150250D03*
Y170250D03*
Y190250D03*
Y225250D03*
Y245250D03*
Y265250D03*
Y285250D03*
Y305250D03*
Y325250D03*
Y345250D03*
Y365250D03*
X436018Y50250D03*
Y70250D03*
Y90250D03*
Y110250D03*
Y130250D03*
Y150250D03*
Y170250D03*
Y190250D03*
Y225250D03*
Y245250D03*
Y265250D03*
Y285250D03*
Y305250D03*
Y325250D03*
Y345250D03*
Y365250D03*
D02*
D95*
X169250Y55250D03*
Y75250D03*
Y95250D03*
Y115250D03*
Y135250D03*
Y155250D03*
Y175250D03*
Y195250D03*
Y230250D03*
Y250250D03*
Y270250D03*
Y290250D03*
Y310250D03*
Y330250D03*
Y350250D03*
Y370250D03*
X176250Y55250D03*
Y75250D03*
Y95250D03*
Y115250D03*
Y135250D03*
Y155250D03*
Y175250D03*
Y195250D03*
Y230250D03*
Y250250D03*
Y270250D03*
Y290250D03*
Y310250D03*
Y330250D03*
Y350250D03*
Y370250D03*
D02*
D108*
X90250Y20250D03*
Y395250D03*
X430250Y20250D03*
Y395250D03*
D02*
D109*
X442750Y50250D03*
Y70250D03*
Y90250D03*
Y110250D03*
Y130250D03*
Y150250D03*
Y170250D03*
Y190250D03*
Y225250D03*
Y245250D03*
Y265250D03*
Y285250D03*
Y305250D03*
Y322750D03*
Y342750D03*
Y362750D03*
D02*
D110*
X252022Y97750D03*
Y102750D03*
Y107750D03*
Y112750D03*
Y117750D03*
Y122750D03*
Y127750D03*
Y132750D03*
Y272750D03*
Y277750D03*
Y282750D03*
Y287750D03*
Y292750D03*
Y297750D03*
Y302750D03*
Y307750D03*
X273478Y97750D03*
Y102750D03*
Y107750D03*
Y112750D03*
Y117750D03*
Y122750D03*
Y127750D03*
Y132750D03*
Y272750D03*
Y277750D03*
Y282750D03*
Y287750D03*
Y292750D03*
Y297750D03*
Y302750D03*
Y307750D03*
D02*
D112*
X237750Y175250D03*
Y195250D03*
Y215250D03*
Y235250D03*
X0Y0D02*
M02*
