G04 Easy-PC Gerber Version 25.0 Build 5877*
G04 #@! TF.Part,Single*
G04 #@! TF.FileFunction,Legend,Bot*
G04 #@! TF.FilePolarity,Positive*
%FSLAX35Y35*%
%MOIN*%
%ADD19C,0.00500*%
%ADD18C,0.00787*%
G04 #@! TD.AperFunction*
X0Y0D02*
D02*
D18*
X82907Y55565D02*
X104069D01*
X82907Y75565D02*
X104069D01*
X82907Y95565D02*
X104069D01*
X82907Y115565D02*
X104069D01*
X82907Y135565D02*
X104069D01*
X82907Y155565D02*
X104069D01*
X82907Y175565D02*
X104069D01*
X82907Y195565D02*
X104069D01*
X82907Y230565D02*
X104069D01*
X82907Y250565D02*
X104069D01*
X82907Y270565D02*
X104069D01*
X82907Y290565D02*
X104069D01*
X82907Y310565D02*
X104069D01*
X82907Y330565D02*
X104069D01*
X82907Y350565D02*
X104069D01*
X82907Y370565D02*
X104069D01*
X102593Y44935D02*
X82907D01*
X102593Y64935D02*
X82907D01*
X102593Y84935D02*
X82907D01*
X102593Y104935D02*
X82907D01*
X102593Y124935D02*
X82907D01*
X102593Y144935D02*
X82907D01*
X102593Y164935D02*
X82907D01*
X102593Y184935D02*
X82907D01*
X102593Y219935D02*
X82907D01*
X102593Y239935D02*
X82907D01*
X102593Y259935D02*
X82907D01*
X102593Y279935D02*
X82907D01*
X102593Y299935D02*
X82907D01*
X102593Y319935D02*
X82907D01*
X102593Y339935D02*
X82907D01*
X102593Y359935D02*
X82907D01*
X142750Y46431D02*
Y44069D01*
Y56431D02*
Y54069D01*
Y66431D02*
Y64069D01*
Y76431D02*
Y74069D01*
Y86431D02*
Y84069D01*
Y96431D02*
Y94069D01*
Y106431D02*
Y104069D01*
Y116431D02*
Y114069D01*
Y126431D02*
Y124069D01*
Y136431D02*
Y134069D01*
Y146431D02*
Y144069D01*
Y156431D02*
Y154069D01*
Y166431D02*
Y164069D01*
Y176431D02*
Y174069D01*
Y186431D02*
Y184069D01*
Y196431D02*
Y194069D01*
Y221431D02*
Y219069D01*
Y231431D02*
Y229069D01*
Y241431D02*
Y239069D01*
Y251431D02*
Y249069D01*
Y261431D02*
Y259069D01*
Y271431D02*
Y269069D01*
Y281431D02*
Y279069D01*
Y291431D02*
Y289069D01*
Y301431D02*
Y299069D01*
Y311431D02*
Y309069D01*
Y321431D02*
Y319069D01*
Y331431D02*
Y329069D01*
Y341431D02*
Y339069D01*
Y351431D02*
Y349069D01*
Y361431D02*
Y359069D01*
Y371431D02*
Y369069D01*
X172750Y44069D02*
Y46431D01*
Y64069D02*
Y66431D01*
Y84069D02*
Y86431D01*
Y104069D02*
Y106431D01*
Y124069D02*
Y126431D01*
Y144069D02*
Y146431D01*
Y164069D02*
Y166431D01*
Y184069D02*
Y186431D01*
Y219069D02*
Y221431D01*
Y239069D02*
Y241431D01*
Y259069D02*
Y261431D01*
Y279069D02*
Y281431D01*
Y299069D02*
Y301431D01*
Y319069D02*
Y321431D01*
Y339069D02*
Y341431D01*
Y359069D02*
Y361431D01*
X195309Y79994D02*
X202986D01*
X195309Y254994D02*
X202986D01*
X204364Y80053D02*
X231136D01*
Y130447D01*
X204364D01*
Y80053D01*
Y255053D02*
X231136D01*
Y305447D01*
X204364D01*
Y255053D01*
X248970Y94994D02*
X255073D01*
X248970Y269994D02*
X255073D01*
X256451Y95762D02*
X269049D01*
Y134738D01*
X256451D01*
Y95762D01*
Y270762D02*
X269049D01*
Y309738D01*
X256451D01*
Y270762D01*
X358931Y50250D02*
X356569D01*
X358931Y70250D02*
X356569D01*
X358931Y90250D02*
X356569D01*
X358931Y110250D02*
X356569D01*
X358931Y130250D02*
X356569D01*
X358931Y150250D02*
X356569D01*
X358931Y170250D02*
X356569D01*
X358931Y190250D02*
X356569D01*
X358931Y225250D02*
X356569D01*
X358931Y245250D02*
X356569D01*
X358931Y265250D02*
X356569D01*
X358931Y285250D02*
X356569D01*
X358931Y305250D02*
X356569D01*
X358931Y325250D02*
X356569D01*
X358931Y345250D02*
X356569D01*
X358931Y365250D02*
X356569D01*
X417907Y55565D02*
X439069D01*
X417907Y75565D02*
X439069D01*
X417907Y95565D02*
X439069D01*
X417907Y115565D02*
X439069D01*
X417907Y135565D02*
X439069D01*
X417907Y155565D02*
X439069D01*
X417907Y175565D02*
X439069D01*
X417907Y195565D02*
X439069D01*
X417907Y230565D02*
X439069D01*
X417907Y250565D02*
X439069D01*
X417907Y270565D02*
X439069D01*
X417907Y290565D02*
X439069D01*
X417907Y310565D02*
X439069D01*
X417907Y330565D02*
X439069D01*
X417907Y350565D02*
X439069D01*
X417907Y370565D02*
X439069D01*
X437593Y44935D02*
X417907D01*
X437593Y64935D02*
X417907D01*
X437593Y84935D02*
X417907D01*
X437593Y104935D02*
X417907D01*
X437593Y124935D02*
X417907D01*
X437593Y144935D02*
X417907D01*
X437593Y164935D02*
X417907D01*
X437593Y184935D02*
X417907D01*
X437593Y219935D02*
X417907D01*
X437593Y239935D02*
X417907D01*
X437593Y259935D02*
X417907D01*
X437593Y279935D02*
X417907D01*
X437593Y299935D02*
X417907D01*
X437593Y319935D02*
X417907D01*
X437593Y339935D02*
X417907D01*
X437593Y359935D02*
X417907D01*
D02*
D19*
X100750Y58187D02*
Y61937D01*
X98875D01*
X98250Y61625D01*
X97937Y61313D01*
X97625Y60687D01*
Y59437D01*
X97937Y58813D01*
X98250Y58500D01*
X98875Y58187D01*
X100750D01*
X95437Y58500D02*
X94813Y58187D01*
X94187D01*
X93563Y58500D01*
X93250Y59125D01*
X93563Y59750D01*
X94187Y60063D01*
X94813D01*
X94187D02*
X93563Y60375D01*
X93250Y61000D01*
X93563Y61625D01*
X94187Y61937D01*
X94813D01*
X95437Y61625D01*
X100750Y78187D02*
Y81937D01*
X98875D01*
X98250Y81625D01*
X97937Y81313D01*
X97625Y80687D01*
Y79437D01*
X97937Y78813D01*
X98250Y78500D01*
X98875Y78187D01*
X100750D01*
X95750D02*
X93250Y81937D01*
X95750D01*
X100750Y98187D02*
Y101937D01*
X98875D01*
X98250Y101625D01*
X97937Y101313D01*
X97625Y100687D01*
Y99437D01*
X97937Y98813D01*
X98250Y98500D01*
X98875Y98187D01*
X100750D01*
X95125D02*
X93875D01*
X94500D02*
Y101937D01*
X95125Y101313D01*
X90125Y98187D02*
X88875D01*
X89500D02*
Y101937D01*
X90125Y101313D01*
X100750Y118187D02*
Y121937D01*
X98875D01*
X98250Y121625D01*
X97937Y121313D01*
X97625Y120687D01*
Y119437D01*
X97937Y118813D01*
X98250Y118500D01*
X98875Y118187D01*
X100750D01*
X95125D02*
X93875D01*
X94500D02*
Y121937D01*
X95125Y121313D01*
X90750Y118500D02*
X90125Y118187D01*
X89187D01*
X88563Y118500D01*
X88250Y119125D01*
Y119437D01*
X88563Y120063D01*
X89187Y120375D01*
X90750D01*
Y121937D01*
X88250D01*
X100750Y138187D02*
Y141937D01*
X98875D01*
X98250Y141625D01*
X97937Y141313D01*
X97625Y140687D01*
Y139437D01*
X97937Y138813D01*
X98250Y138500D01*
X98875Y138187D01*
X100750D01*
X95125D02*
X93875D01*
X94500D02*
Y141937D01*
X95125Y141313D01*
X89813Y138187D02*
X89187Y138500D01*
X88563Y139125D01*
X88250Y140063D01*
Y141000D01*
X88563Y141625D01*
X89187Y141937D01*
X89813D01*
X90437Y141625D01*
X90750Y141000D01*
X90437Y140375D01*
X89813Y140063D01*
X89187D01*
X88563Y140375D01*
X88250Y141000D01*
X100750Y158187D02*
Y161937D01*
X98875D01*
X98250Y161625D01*
X97937Y161313D01*
X97625Y160687D01*
Y159437D01*
X97937Y158813D01*
X98250Y158500D01*
X98875Y158187D01*
X100750D01*
X93250D02*
X95750D01*
X93563Y160375D01*
X93250Y161000D01*
X93563Y161625D01*
X94187Y161937D01*
X95125D01*
X95750Y161625D01*
X90437Y158500D02*
X89813Y158187D01*
X89187D01*
X88563Y158500D01*
X88250Y159125D01*
X88563Y159750D01*
X89187Y160063D01*
X89813D01*
X89187D02*
X88563Y160375D01*
X88250Y161000D01*
X88563Y161625D01*
X89187Y161937D01*
X89813D01*
X90437Y161625D01*
X100750Y178187D02*
Y181937D01*
X98875D01*
X98250Y181625D01*
X97937Y181313D01*
X97625Y180687D01*
Y179437D01*
X97937Y178813D01*
X98250Y178500D01*
X98875Y178187D01*
X100750D01*
X93250D02*
X95750D01*
X93563Y180375D01*
X93250Y181000D01*
X93563Y181625D01*
X94187Y181937D01*
X95125D01*
X95750Y181625D01*
X90750Y178187D02*
X88250Y181937D01*
X90750D01*
X100750Y198187D02*
Y201937D01*
X98875D01*
X98250Y201625D01*
X97937Y201313D01*
X97625Y200687D01*
Y199437D01*
X97937Y198813D01*
X98250Y198500D01*
X98875Y198187D01*
X100750D01*
X95437Y198500D02*
X94813Y198187D01*
X94187D01*
X93563Y198500D01*
X93250Y199125D01*
X93563Y199750D01*
X94187Y200063D01*
X94813D01*
X94187D02*
X93563Y200375D01*
X93250Y201000D01*
X93563Y201625D01*
X94187Y201937D01*
X94813D01*
X95437Y201625D01*
X90125Y198187D02*
X88875D01*
X89500D02*
Y201937D01*
X90125Y201313D01*
X100750Y233187D02*
Y236937D01*
X98875D01*
X98250Y236625D01*
X97937Y236313D01*
X97625Y235687D01*
Y234437D01*
X97937Y233813D01*
X98250Y233500D01*
X98875Y233187D01*
X100750D01*
X95437Y233500D02*
X94813Y233187D01*
X94187D01*
X93563Y233500D01*
X93250Y234125D01*
X93563Y234750D01*
X94187Y235063D01*
X94813D01*
X94187D02*
X93563Y235375D01*
X93250Y236000D01*
X93563Y236625D01*
X94187Y236937D01*
X94813D01*
X95437Y236625D01*
X90750Y233500D02*
X90125Y233187D01*
X89187D01*
X88563Y233500D01*
X88250Y234125D01*
Y234437D01*
X88563Y235063D01*
X89187Y235375D01*
X90750D01*
Y236937D01*
X88250D01*
X100750Y253187D02*
Y256937D01*
X98875D01*
X98250Y256625D01*
X97937Y256313D01*
X97625Y255687D01*
Y254437D01*
X97937Y253813D01*
X98250Y253500D01*
X98875Y253187D01*
X100750D01*
X95437Y253500D02*
X94813Y253187D01*
X94187D01*
X93563Y253500D01*
X93250Y254125D01*
X93563Y254750D01*
X94187Y255063D01*
X94813D01*
X94187D02*
X93563Y255375D01*
X93250Y256000D01*
X93563Y256625D01*
X94187Y256937D01*
X94813D01*
X95437Y256625D01*
X89813Y253187D02*
X89187Y253500D01*
X88563Y254125D01*
X88250Y255063D01*
Y256000D01*
X88563Y256625D01*
X89187Y256937D01*
X89813D01*
X90437Y256625D01*
X90750Y256000D01*
X90437Y255375D01*
X89813Y255063D01*
X89187D01*
X88563Y255375D01*
X88250Y256000D01*
X100750Y273187D02*
Y276937D01*
X98875D01*
X98250Y276625D01*
X97937Y276313D01*
X97625Y275687D01*
Y274437D01*
X97937Y273813D01*
X98250Y273500D01*
X98875Y273187D01*
X100750D01*
X94187D02*
Y276937D01*
X95750Y274437D01*
X93250D01*
X90437Y273500D02*
X89813Y273187D01*
X89187D01*
X88563Y273500D01*
X88250Y274125D01*
X88563Y274750D01*
X89187Y275063D01*
X89813D01*
X89187D02*
X88563Y275375D01*
X88250Y276000D01*
X88563Y276625D01*
X89187Y276937D01*
X89813D01*
X90437Y276625D01*
X100750Y293187D02*
Y296937D01*
X98875D01*
X98250Y296625D01*
X97937Y296313D01*
X97625Y295687D01*
Y294437D01*
X97937Y293813D01*
X98250Y293500D01*
X98875Y293187D01*
X100750D01*
X94187D02*
Y296937D01*
X95750Y294437D01*
X93250D01*
X90750Y293187D02*
X88250Y296937D01*
X90750D01*
X100750Y313187D02*
Y316937D01*
X98875D01*
X98250Y316625D01*
X97937Y316313D01*
X97625Y315687D01*
Y314437D01*
X97937Y313813D01*
X98250Y313500D01*
X98875Y313187D01*
X100750D01*
X95750Y313500D02*
X95125Y313187D01*
X94187D01*
X93563Y313500D01*
X93250Y314125D01*
Y314437D01*
X93563Y315063D01*
X94187Y315375D01*
X95750D01*
Y316937D01*
X93250D01*
X90125Y313187D02*
X88875D01*
X89500D02*
Y316937D01*
X90125Y316313D01*
X100750Y333187D02*
Y336937D01*
X98875D01*
X98250Y336625D01*
X97937Y336313D01*
X97625Y335687D01*
Y334437D01*
X97937Y333813D01*
X98250Y333500D01*
X98875Y333187D01*
X100750D01*
X95750Y333500D02*
X95125Y333187D01*
X94187D01*
X93563Y333500D01*
X93250Y334125D01*
Y334437D01*
X93563Y335063D01*
X94187Y335375D01*
X95750D01*
Y336937D01*
X93250D01*
X90750Y333500D02*
X90125Y333187D01*
X89187D01*
X88563Y333500D01*
X88250Y334125D01*
Y334437D01*
X88563Y335063D01*
X89187Y335375D01*
X90750D01*
Y336937D01*
X88250D01*
X100750Y353187D02*
Y356937D01*
X98875D01*
X98250Y356625D01*
X97937Y356313D01*
X97625Y355687D01*
Y354437D01*
X97937Y353813D01*
X98250Y353500D01*
X98875Y353187D01*
X100750D01*
X95750Y353500D02*
X95125Y353187D01*
X94187D01*
X93563Y353500D01*
X93250Y354125D01*
Y354437D01*
X93563Y355063D01*
X94187Y355375D01*
X95750D01*
Y356937D01*
X93250D01*
X89813Y353187D02*
X89187Y353500D01*
X88563Y354125D01*
X88250Y355063D01*
Y356000D01*
X88563Y356625D01*
X89187Y356937D01*
X89813D01*
X90437Y356625D01*
X90750Y356000D01*
X90437Y355375D01*
X89813Y355063D01*
X89187D01*
X88563Y355375D01*
X88250Y356000D01*
X100750Y373187D02*
Y376937D01*
X98875D01*
X98250Y376625D01*
X97937Y376313D01*
X97625Y375687D01*
Y374437D01*
X97937Y373813D01*
X98250Y373500D01*
X98875Y373187D01*
X100750D01*
X95750Y374125D02*
X95437Y374750D01*
X94813Y375063D01*
X94187D01*
X93563Y374750D01*
X93250Y374125D01*
X93563Y373500D01*
X94187Y373187D01*
X94813D01*
X95437Y373500D01*
X95750Y374125D01*
Y375063D01*
X95437Y376000D01*
X94813Y376625D01*
X94187Y376937D01*
X90437Y373500D02*
X89813Y373187D01*
X89187D01*
X88563Y373500D01*
X88250Y374125D01*
X88563Y374750D01*
X89187Y375063D01*
X89813D01*
X89187D02*
X88563Y375375D01*
X88250Y376000D01*
X88563Y376625D01*
X89187Y376937D01*
X89813D01*
X90437Y376625D01*
X115250Y57250D02*
X130250D01*
Y43250D01*
X115250D01*
Y57150D01*
Y77250D02*
X130250D01*
Y63250D01*
X115250D01*
Y77150D01*
Y97250D02*
X130250D01*
Y83250D01*
X115250D01*
Y97150D01*
Y117250D02*
X130250D01*
Y103250D01*
X115250D01*
Y117150D01*
Y137250D02*
X130250D01*
Y123250D01*
X115250D01*
Y137150D01*
Y157250D02*
X130250D01*
Y143250D01*
X115250D01*
Y157150D01*
Y177250D02*
X130250D01*
Y163250D01*
X115250D01*
Y177150D01*
Y197250D02*
X130250D01*
Y183250D01*
X115250D01*
Y197150D01*
Y232250D02*
X130250D01*
Y218250D01*
X115250D01*
Y232150D01*
Y252250D02*
X130250D01*
Y238250D01*
X115250D01*
Y252150D01*
Y272250D02*
X130250D01*
Y258250D01*
X115250D01*
Y272150D01*
Y292250D02*
X130250D01*
Y278250D01*
X115250D01*
Y292150D01*
Y312250D02*
X130250D01*
Y298250D01*
X115250D01*
Y312150D01*
Y332250D02*
X130250D01*
Y318250D01*
X115250D01*
Y332150D01*
Y352250D02*
X130250D01*
Y338250D01*
X115250D01*
Y352150D01*
Y372250D02*
X130250D01*
Y358250D01*
X115250D01*
Y372150D01*
X130250Y58187D02*
Y61937D01*
X128375D01*
X127750Y61625D01*
X127437Y61313D01*
X127125Y60687D01*
Y59437D01*
X127437Y58813D01*
X127750Y58500D01*
X128375Y58187D01*
X130250D01*
X123687D02*
Y61937D01*
X125250Y59437D01*
X122750D01*
X130250Y78187D02*
Y81937D01*
X128375D01*
X127750Y81625D01*
X127437Y81313D01*
X127125Y80687D01*
Y79437D01*
X127437Y78813D01*
X127750Y78500D01*
X128375Y78187D01*
X130250D01*
X124313Y80063D02*
X123687D01*
X123063Y80375D01*
X122750Y81000D01*
X123063Y81625D01*
X123687Y81937D01*
X124313D01*
X124937Y81625D01*
X125250Y81000D01*
X124937Y80375D01*
X124313Y80063D01*
X124937Y79750D01*
X125250Y79125D01*
X124937Y78500D01*
X124313Y78187D01*
X123687D01*
X123063Y78500D01*
X122750Y79125D01*
X123063Y79750D01*
X123687Y80063D01*
X130250Y98187D02*
Y101937D01*
X128375D01*
X127750Y101625D01*
X127437Y101313D01*
X127125Y100687D01*
Y99437D01*
X127437Y98813D01*
X127750Y98500D01*
X128375Y98187D01*
X130250D01*
X124625D02*
X123375D01*
X124000D02*
Y101937D01*
X124625Y101313D01*
X117750Y98187D02*
X120250D01*
X118063Y100375D01*
X117750Y101000D01*
X118063Y101625D01*
X118687Y101937D01*
X119625D01*
X120250Y101625D01*
X130250Y118187D02*
Y121937D01*
X128375D01*
X127750Y121625D01*
X127437Y121313D01*
X127125Y120687D01*
Y119437D01*
X127437Y118813D01*
X127750Y118500D01*
X128375Y118187D01*
X130250D01*
X124625D02*
X123375D01*
X124000D02*
Y121937D01*
X124625Y121313D01*
X120250Y119125D02*
X119937Y119750D01*
X119313Y120063D01*
X118687D01*
X118063Y119750D01*
X117750Y119125D01*
X118063Y118500D01*
X118687Y118187D01*
X119313D01*
X119937Y118500D01*
X120250Y119125D01*
Y120063D01*
X119937Y121000D01*
X119313Y121625D01*
X118687Y121937D01*
X130250Y138187D02*
Y141937D01*
X128375D01*
X127750Y141625D01*
X127437Y141313D01*
X127125Y140687D01*
Y139437D01*
X127437Y138813D01*
X127750Y138500D01*
X128375Y138187D01*
X130250D01*
X122750D02*
X125250D01*
X123063Y140375D01*
X122750Y141000D01*
X123063Y141625D01*
X123687Y141937D01*
X124625D01*
X125250Y141625D01*
X119937Y138500D02*
X119313Y138187D01*
X118687D01*
X118063Y138500D01*
X117750Y139125D01*
Y141000D01*
X118063Y141625D01*
X118687Y141937D01*
X119313D01*
X119937Y141625D01*
X120250Y141000D01*
Y139125D01*
X119937Y138500D01*
X118063Y141625D01*
X130250Y158187D02*
Y161937D01*
X128375D01*
X127750Y161625D01*
X127437Y161313D01*
X127125Y160687D01*
Y159437D01*
X127437Y158813D01*
X127750Y158500D01*
X128375Y158187D01*
X130250D01*
X122750D02*
X125250D01*
X123063Y160375D01*
X122750Y161000D01*
X123063Y161625D01*
X123687Y161937D01*
X124625D01*
X125250Y161625D01*
X118687Y158187D02*
Y161937D01*
X120250Y159437D01*
X117750D01*
X130250Y178187D02*
Y181937D01*
X128375D01*
X127750Y181625D01*
X127437Y181313D01*
X127125Y180687D01*
Y179437D01*
X127437Y178813D01*
X127750Y178500D01*
X128375Y178187D01*
X130250D01*
X122750D02*
X125250D01*
X123063Y180375D01*
X122750Y181000D01*
X123063Y181625D01*
X123687Y181937D01*
X124625D01*
X125250Y181625D01*
X119313Y180063D02*
X118687D01*
X118063Y180375D01*
X117750Y181000D01*
X118063Y181625D01*
X118687Y181937D01*
X119313D01*
X119937Y181625D01*
X120250Y181000D01*
X119937Y180375D01*
X119313Y180063D01*
X119937Y179750D01*
X120250Y179125D01*
X119937Y178500D01*
X119313Y178187D01*
X118687D01*
X118063Y178500D01*
X117750Y179125D01*
X118063Y179750D01*
X118687Y180063D01*
X130250Y198187D02*
Y201937D01*
X128375D01*
X127750Y201625D01*
X127437Y201313D01*
X127125Y200687D01*
Y199437D01*
X127437Y198813D01*
X127750Y198500D01*
X128375Y198187D01*
X130250D01*
X124937Y198500D02*
X124313Y198187D01*
X123687D01*
X123063Y198500D01*
X122750Y199125D01*
X123063Y199750D01*
X123687Y200063D01*
X124313D01*
X123687D02*
X123063Y200375D01*
X122750Y201000D01*
X123063Y201625D01*
X123687Y201937D01*
X124313D01*
X124937Y201625D01*
X117750Y198187D02*
X120250D01*
X118063Y200375D01*
X117750Y201000D01*
X118063Y201625D01*
X118687Y201937D01*
X119625D01*
X120250Y201625D01*
X130250Y233187D02*
Y236937D01*
X128375D01*
X127750Y236625D01*
X127437Y236313D01*
X127125Y235687D01*
Y234437D01*
X127437Y233813D01*
X127750Y233500D01*
X128375Y233187D01*
X130250D01*
X124937Y233500D02*
X124313Y233187D01*
X123687D01*
X123063Y233500D01*
X122750Y234125D01*
X123063Y234750D01*
X123687Y235063D01*
X124313D01*
X123687D02*
X123063Y235375D01*
X122750Y236000D01*
X123063Y236625D01*
X123687Y236937D01*
X124313D01*
X124937Y236625D01*
X120250Y234125D02*
X119937Y234750D01*
X119313Y235063D01*
X118687D01*
X118063Y234750D01*
X117750Y234125D01*
X118063Y233500D01*
X118687Y233187D01*
X119313D01*
X119937Y233500D01*
X120250Y234125D01*
Y235063D01*
X119937Y236000D01*
X119313Y236625D01*
X118687Y236937D01*
X130250Y253187D02*
Y256937D01*
X128375D01*
X127750Y256625D01*
X127437Y256313D01*
X127125Y255687D01*
Y254437D01*
X127437Y253813D01*
X127750Y253500D01*
X128375Y253187D01*
X130250D01*
X123687D02*
Y256937D01*
X125250Y254437D01*
X122750D01*
X119937Y253500D02*
X119313Y253187D01*
X118687D01*
X118063Y253500D01*
X117750Y254125D01*
Y256000D01*
X118063Y256625D01*
X118687Y256937D01*
X119313D01*
X119937Y256625D01*
X120250Y256000D01*
Y254125D01*
X119937Y253500D01*
X118063Y256625D01*
X130250Y273187D02*
Y276937D01*
X128375D01*
X127750Y276625D01*
X127437Y276313D01*
X127125Y275687D01*
Y274437D01*
X127437Y273813D01*
X127750Y273500D01*
X128375Y273187D01*
X130250D01*
X123687D02*
Y276937D01*
X125250Y274437D01*
X122750D01*
X118687Y273187D02*
Y276937D01*
X120250Y274437D01*
X117750D01*
X130250Y293187D02*
Y296937D01*
X128375D01*
X127750Y296625D01*
X127437Y296313D01*
X127125Y295687D01*
Y294437D01*
X127437Y293813D01*
X127750Y293500D01*
X128375Y293187D01*
X130250D01*
X123687D02*
Y296937D01*
X125250Y294437D01*
X122750D01*
X119313Y295063D02*
X118687D01*
X118063Y295375D01*
X117750Y296000D01*
X118063Y296625D01*
X118687Y296937D01*
X119313D01*
X119937Y296625D01*
X120250Y296000D01*
X119937Y295375D01*
X119313Y295063D01*
X119937Y294750D01*
X120250Y294125D01*
X119937Y293500D01*
X119313Y293187D01*
X118687D01*
X118063Y293500D01*
X117750Y294125D01*
X118063Y294750D01*
X118687Y295063D01*
X130250Y313187D02*
Y316937D01*
X128375D01*
X127750Y316625D01*
X127437Y316313D01*
X127125Y315687D01*
Y314437D01*
X127437Y313813D01*
X127750Y313500D01*
X128375Y313187D01*
X130250D01*
X125250Y313500D02*
X124625Y313187D01*
X123687D01*
X123063Y313500D01*
X122750Y314125D01*
Y314437D01*
X123063Y315063D01*
X123687Y315375D01*
X125250D01*
Y316937D01*
X122750D01*
X117750Y313187D02*
X120250D01*
X118063Y315375D01*
X117750Y316000D01*
X118063Y316625D01*
X118687Y316937D01*
X119625D01*
X120250Y316625D01*
X130250Y333187D02*
Y336937D01*
X128375D01*
X127750Y336625D01*
X127437Y336313D01*
X127125Y335687D01*
Y334437D01*
X127437Y333813D01*
X127750Y333500D01*
X128375Y333187D01*
X130250D01*
X125250Y333500D02*
X124625Y333187D01*
X123687D01*
X123063Y333500D01*
X122750Y334125D01*
Y334437D01*
X123063Y335063D01*
X123687Y335375D01*
X125250D01*
Y336937D01*
X122750D01*
X120250Y334125D02*
X119937Y334750D01*
X119313Y335063D01*
X118687D01*
X118063Y334750D01*
X117750Y334125D01*
X118063Y333500D01*
X118687Y333187D01*
X119313D01*
X119937Y333500D01*
X120250Y334125D01*
Y335063D01*
X119937Y336000D01*
X119313Y336625D01*
X118687Y336937D01*
X130250Y353187D02*
Y356937D01*
X128375D01*
X127750Y356625D01*
X127437Y356313D01*
X127125Y355687D01*
Y354437D01*
X127437Y353813D01*
X127750Y353500D01*
X128375Y353187D01*
X130250D01*
X125250Y354125D02*
X124937Y354750D01*
X124313Y355063D01*
X123687D01*
X123063Y354750D01*
X122750Y354125D01*
X123063Y353500D01*
X123687Y353187D01*
X124313D01*
X124937Y353500D01*
X125250Y354125D01*
Y355063D01*
X124937Y356000D01*
X124313Y356625D01*
X123687Y356937D01*
X119937Y353500D02*
X119313Y353187D01*
X118687D01*
X118063Y353500D01*
X117750Y354125D01*
Y356000D01*
X118063Y356625D01*
X118687Y356937D01*
X119313D01*
X119937Y356625D01*
X120250Y356000D01*
Y354125D01*
X119937Y353500D01*
X118063Y356625D01*
X130250Y373187D02*
Y376937D01*
X128375D01*
X127750Y376625D01*
X127437Y376313D01*
X127125Y375687D01*
Y374437D01*
X127437Y373813D01*
X127750Y373500D01*
X128375Y373187D01*
X130250D01*
X125250Y374125D02*
X124937Y374750D01*
X124313Y375063D01*
X123687D01*
X123063Y374750D01*
X122750Y374125D01*
X123063Y373500D01*
X123687Y373187D01*
X124313D01*
X124937Y373500D01*
X125250Y374125D01*
Y375063D01*
X124937Y376000D01*
X124313Y376625D01*
X123687Y376937D01*
X118687Y373187D02*
Y376937D01*
X120250Y374437D01*
X117750D01*
X157750Y43500D02*
Y46500D01*
X156000D01*
X155500Y46250D01*
X155250Y45750D01*
X155500Y45250D01*
X156000Y45000D01*
X157750D01*
X156000D02*
X155250Y43500D01*
X153500Y43750D02*
X153000Y43500D01*
X152500D01*
X152000Y43750D01*
X151750Y44250D01*
X152000Y44750D01*
X152500Y45000D01*
X153000D01*
X152500D02*
X152000Y45250D01*
X151750Y45750D01*
X152000Y46250D01*
X152500Y46500D01*
X153000D01*
X153500Y46250D01*
X157750Y51000D02*
Y54000D01*
X156000D01*
X155500Y53750D01*
X155250Y53250D01*
X155500Y52750D01*
X156000Y52500D01*
X157750D01*
X156000D02*
X155250Y51000D01*
X153750Y51250D02*
X153250Y51000D01*
X152500D01*
X152000Y51250D01*
X151750Y51750D01*
Y52000D01*
X152000Y52500D01*
X152500Y52750D01*
X153750D01*
Y54000D01*
X151750D01*
X157750Y63500D02*
Y66500D01*
X156000D01*
X155500Y66250D01*
X155250Y65750D01*
X155500Y65250D01*
X156000Y65000D01*
X157750D01*
X156000D02*
X155250Y63500D01*
X153000D02*
X152500Y63750D01*
X152000Y64250D01*
X151750Y65000D01*
Y65750D01*
X152000Y66250D01*
X152500Y66500D01*
X153000D01*
X153500Y66250D01*
X153750Y65750D01*
X153500Y65250D01*
X153000Y65000D01*
X152500D01*
X152000Y65250D01*
X151750Y65750D01*
X160250Y71000D02*
Y74000D01*
X158500D01*
X158000Y73750D01*
X157750Y73250D01*
X158000Y72750D01*
X158500Y72500D01*
X160250D01*
X158500D02*
X157750Y71000D01*
X155750D02*
X154750D01*
X155250D02*
Y74000D01*
X155750Y73500D01*
X151750Y71000D02*
X150750D01*
X151250D02*
Y74000D01*
X151750Y73500D01*
X160250Y83500D02*
Y86500D01*
X158500D01*
X158000Y86250D01*
X157750Y85750D01*
X158000Y85250D01*
X158500Y85000D01*
X160250D01*
X158500D02*
X157750Y83500D01*
X155750D02*
X154750D01*
X155250D02*
Y86500D01*
X155750Y86000D01*
X152250Y83750D02*
X151750Y83500D01*
X151000D01*
X150500Y83750D01*
X150250Y84250D01*
Y84500D01*
X150500Y85000D01*
X151000Y85250D01*
X152250D01*
Y86500D01*
X150250D01*
X160250Y91000D02*
Y94000D01*
X158500D01*
X158000Y93750D01*
X157750Y93250D01*
X158000Y92750D01*
X158500Y92500D01*
X160250D01*
X158500D02*
X157750Y91000D01*
X155750D02*
X154750D01*
X155250D02*
Y94000D01*
X155750Y93500D01*
X152250Y91000D02*
X150250Y94000D01*
X152250D01*
X160250Y103500D02*
Y106500D01*
X158500D01*
X158000Y106250D01*
X157750Y105750D01*
X158000Y105250D01*
X158500Y105000D01*
X160250D01*
X158500D02*
X157750Y103500D01*
X154250D02*
X156250D01*
X154500Y105250D01*
X154250Y105750D01*
X154500Y106250D01*
X155000Y106500D01*
X155750D01*
X156250Y106250D01*
X151750Y103500D02*
X150750D01*
X151250D02*
Y106500D01*
X151750Y106000D01*
X160250Y111000D02*
Y114000D01*
X158500D01*
X158000Y113750D01*
X157750Y113250D01*
X158000Y112750D01*
X158500Y112500D01*
X160250D01*
X158500D02*
X157750Y111000D01*
X154250D02*
X156250D01*
X154500Y112750D01*
X154250Y113250D01*
X154500Y113750D01*
X155000Y114000D01*
X155750D01*
X156250Y113750D01*
X152000Y111250D02*
X151500Y111000D01*
X151000D01*
X150500Y111250D01*
X150250Y111750D01*
X150500Y112250D01*
X151000Y112500D01*
X151500D01*
X151000D02*
X150500Y112750D01*
X150250Y113250D01*
X150500Y113750D01*
X151000Y114000D01*
X151500D01*
X152000Y113750D01*
X160250Y123500D02*
Y126500D01*
X158500D01*
X158000Y126250D01*
X157750Y125750D01*
X158000Y125250D01*
X158500Y125000D01*
X160250D01*
X158500D02*
X157750Y123500D01*
X154250D02*
X156250D01*
X154500Y125250D01*
X154250Y125750D01*
X154500Y126250D01*
X155000Y126500D01*
X155750D01*
X156250Y126250D01*
X152250Y123500D02*
X150250Y126500D01*
X152250D01*
X160250Y131000D02*
Y134000D01*
X158500D01*
X158000Y133750D01*
X157750Y133250D01*
X158000Y132750D01*
X158500Y132500D01*
X160250D01*
X158500D02*
X157750Y131000D01*
X154250D02*
X156250D01*
X154500Y132750D01*
X154250Y133250D01*
X154500Y133750D01*
X155000Y134000D01*
X155750D01*
X156250Y133750D01*
X151500Y131000D02*
X151000Y131250D01*
X150500Y131750D01*
X150250Y132500D01*
Y133250D01*
X150500Y133750D01*
X151000Y134000D01*
X151500D01*
X152000Y133750D01*
X152250Y133250D01*
X152000Y132750D01*
X151500Y132500D01*
X151000D01*
X150500Y132750D01*
X150250Y133250D01*
X160250Y143500D02*
Y146500D01*
X158500D01*
X158000Y146250D01*
X157750Y145750D01*
X158000Y145250D01*
X158500Y145000D01*
X160250D01*
X158500D02*
X157750Y143500D01*
X156000Y143750D02*
X155500Y143500D01*
X155000D01*
X154500Y143750D01*
X154250Y144250D01*
X154500Y144750D01*
X155000Y145000D01*
X155500D01*
X155000D02*
X154500Y145250D01*
X154250Y145750D01*
X154500Y146250D01*
X155000Y146500D01*
X155500D01*
X156000Y146250D01*
X152000Y143750D02*
X151500Y143500D01*
X151000D01*
X150500Y143750D01*
X150250Y144250D01*
X150500Y144750D01*
X151000Y145000D01*
X151500D01*
X151000D02*
X150500Y145250D01*
X150250Y145750D01*
X150500Y146250D01*
X151000Y146500D01*
X151500D01*
X152000Y146250D01*
X160250Y151000D02*
Y154000D01*
X158500D01*
X158000Y153750D01*
X157750Y153250D01*
X158000Y152750D01*
X158500Y152500D01*
X160250D01*
X158500D02*
X157750Y151000D01*
X156000Y151250D02*
X155500Y151000D01*
X155000D01*
X154500Y151250D01*
X154250Y151750D01*
X154500Y152250D01*
X155000Y152500D01*
X155500D01*
X155000D02*
X154500Y152750D01*
X154250Y153250D01*
X154500Y153750D01*
X155000Y154000D01*
X155500D01*
X156000Y153750D01*
X152250Y151250D02*
X151750Y151000D01*
X151000D01*
X150500Y151250D01*
X150250Y151750D01*
Y152000D01*
X150500Y152500D01*
X151000Y152750D01*
X152250D01*
Y154000D01*
X150250D01*
X160250Y163500D02*
Y166500D01*
X158500D01*
X158000Y166250D01*
X157750Y165750D01*
X158000Y165250D01*
X158500Y165000D01*
X160250D01*
X158500D02*
X157750Y163500D01*
X156000Y163750D02*
X155500Y163500D01*
X155000D01*
X154500Y163750D01*
X154250Y164250D01*
X154500Y164750D01*
X155000Y165000D01*
X155500D01*
X155000D02*
X154500Y165250D01*
X154250Y165750D01*
X154500Y166250D01*
X155000Y166500D01*
X155500D01*
X156000Y166250D01*
X151500Y163500D02*
X151000Y163750D01*
X150500Y164250D01*
X150250Y165000D01*
Y165750D01*
X150500Y166250D01*
X151000Y166500D01*
X151500D01*
X152000Y166250D01*
X152250Y165750D01*
X152000Y165250D01*
X151500Y165000D01*
X151000D01*
X150500Y165250D01*
X150250Y165750D01*
X160250Y171000D02*
Y174000D01*
X158500D01*
X158000Y173750D01*
X157750Y173250D01*
X158000Y172750D01*
X158500Y172500D01*
X160250D01*
X158500D02*
X157750Y171000D01*
X155000D02*
Y174000D01*
X156250Y172000D01*
X154250D01*
X151750Y171000D02*
X150750D01*
X151250D02*
Y174000D01*
X151750Y173500D01*
X160250Y183500D02*
Y186500D01*
X158500D01*
X158000Y186250D01*
X157750Y185750D01*
X158000Y185250D01*
X158500Y185000D01*
X160250D01*
X158500D02*
X157750Y183500D01*
X155000D02*
Y186500D01*
X156250Y184500D01*
X154250D01*
X152250Y183750D02*
X151750Y183500D01*
X151000D01*
X150500Y183750D01*
X150250Y184250D01*
Y184500D01*
X150500Y185000D01*
X151000Y185250D01*
X152250D01*
Y186500D01*
X150250D01*
X160250Y218500D02*
Y221500D01*
X158500D01*
X158000Y221250D01*
X157750Y220750D01*
X158000Y220250D01*
X158500Y220000D01*
X160250D01*
X158500D02*
X157750Y218500D01*
X156250Y218750D02*
X155750Y218500D01*
X155000D01*
X154500Y218750D01*
X154250Y219250D01*
Y219500D01*
X154500Y220000D01*
X155000Y220250D01*
X156250D01*
Y221500D01*
X154250D01*
X151750Y218500D02*
X150750D01*
X151250D02*
Y221500D01*
X151750Y221000D01*
X160250Y226000D02*
Y229000D01*
X158500D01*
X158000Y228750D01*
X157750Y228250D01*
X158000Y227750D01*
X158500Y227500D01*
X160250D01*
X158500D02*
X157750Y226000D01*
X156250Y226250D02*
X155750Y226000D01*
X155000D01*
X154500Y226250D01*
X154250Y226750D01*
Y227000D01*
X154500Y227500D01*
X155000Y227750D01*
X156250D01*
Y229000D01*
X154250D01*
X152000Y226250D02*
X151500Y226000D01*
X151000D01*
X150500Y226250D01*
X150250Y226750D01*
X150500Y227250D01*
X151000Y227500D01*
X151500D01*
X151000D02*
X150500Y227750D01*
X150250Y228250D01*
X150500Y228750D01*
X151000Y229000D01*
X151500D01*
X152000Y228750D01*
X160250Y238500D02*
Y241500D01*
X158500D01*
X158000Y241250D01*
X157750Y240750D01*
X158000Y240250D01*
X158500Y240000D01*
X160250D01*
X158500D02*
X157750Y238500D01*
X156250Y238750D02*
X155750Y238500D01*
X155000D01*
X154500Y238750D01*
X154250Y239250D01*
Y239500D01*
X154500Y240000D01*
X155000Y240250D01*
X156250D01*
Y241500D01*
X154250D01*
X152250Y238500D02*
X150250Y241500D01*
X152250D01*
X160250Y246000D02*
Y249000D01*
X158500D01*
X158000Y248750D01*
X157750Y248250D01*
X158000Y247750D01*
X158500Y247500D01*
X160250D01*
X158500D02*
X157750Y246000D01*
X156250Y246250D02*
X155750Y246000D01*
X155000D01*
X154500Y246250D01*
X154250Y246750D01*
Y247000D01*
X154500Y247500D01*
X155000Y247750D01*
X156250D01*
Y249000D01*
X154250D01*
X151500Y246000D02*
X151000Y246250D01*
X150500Y246750D01*
X150250Y247500D01*
Y248250D01*
X150500Y248750D01*
X151000Y249000D01*
X151500D01*
X152000Y248750D01*
X152250Y248250D01*
X152000Y247750D01*
X151500Y247500D01*
X151000D01*
X150500Y247750D01*
X150250Y248250D01*
X160250Y258500D02*
Y261500D01*
X158500D01*
X158000Y261250D01*
X157750Y260750D01*
X158000Y260250D01*
X158500Y260000D01*
X160250D01*
X158500D02*
X157750Y258500D01*
X156250Y259250D02*
X156000Y259750D01*
X155500Y260000D01*
X155000D01*
X154500Y259750D01*
X154250Y259250D01*
X154500Y258750D01*
X155000Y258500D01*
X155500D01*
X156000Y258750D01*
X156250Y259250D01*
Y260000D01*
X156000Y260750D01*
X155500Y261250D01*
X155000Y261500D01*
X152000Y258750D02*
X151500Y258500D01*
X151000D01*
X150500Y258750D01*
X150250Y259250D01*
X150500Y259750D01*
X151000Y260000D01*
X151500D01*
X151000D02*
X150500Y260250D01*
X150250Y260750D01*
X150500Y261250D01*
X151000Y261500D01*
X151500D01*
X152000Y261250D01*
X160250Y266000D02*
Y269000D01*
X158500D01*
X158000Y268750D01*
X157750Y268250D01*
X158000Y267750D01*
X158500Y267500D01*
X160250D01*
X158500D02*
X157750Y266000D01*
X156250Y266750D02*
X156000Y267250D01*
X155500Y267500D01*
X155000D01*
X154500Y267250D01*
X154250Y266750D01*
X154500Y266250D01*
X155000Y266000D01*
X155500D01*
X156000Y266250D01*
X156250Y266750D01*
Y267500D01*
X156000Y268250D01*
X155500Y268750D01*
X155000Y269000D01*
X152250Y266250D02*
X151750Y266000D01*
X151000D01*
X150500Y266250D01*
X150250Y266750D01*
Y267000D01*
X150500Y267500D01*
X151000Y267750D01*
X152250D01*
Y269000D01*
X150250D01*
X160250Y278500D02*
Y281500D01*
X158500D01*
X158000Y281250D01*
X157750Y280750D01*
X158000Y280250D01*
X158500Y280000D01*
X160250D01*
X158500D02*
X157750Y278500D01*
X156250Y279250D02*
X156000Y279750D01*
X155500Y280000D01*
X155000D01*
X154500Y279750D01*
X154250Y279250D01*
X154500Y278750D01*
X155000Y278500D01*
X155500D01*
X156000Y278750D01*
X156250Y279250D01*
Y280000D01*
X156000Y280750D01*
X155500Y281250D01*
X155000Y281500D01*
X151500Y278500D02*
X151000Y278750D01*
X150500Y279250D01*
X150250Y280000D01*
Y280750D01*
X150500Y281250D01*
X151000Y281500D01*
X151500D01*
X152000Y281250D01*
X152250Y280750D01*
X152000Y280250D01*
X151500Y280000D01*
X151000D01*
X150500Y280250D01*
X150250Y280750D01*
X160250Y286000D02*
Y289000D01*
X158500D01*
X158000Y288750D01*
X157750Y288250D01*
X158000Y287750D01*
X158500Y287500D01*
X160250D01*
X158500D02*
X157750Y286000D01*
X156250D02*
X154250Y289000D01*
X156250D01*
X151750Y286000D02*
X150750D01*
X151250D02*
Y289000D01*
X151750Y288500D01*
X160250Y298500D02*
Y301500D01*
X158500D01*
X158000Y301250D01*
X157750Y300750D01*
X158000Y300250D01*
X158500Y300000D01*
X160250D01*
X158500D02*
X157750Y298500D01*
X156250D02*
X154250Y301500D01*
X156250D01*
X152250Y298750D02*
X151750Y298500D01*
X151000D01*
X150500Y298750D01*
X150250Y299250D01*
Y299500D01*
X150500Y300000D01*
X151000Y300250D01*
X152250D01*
Y301500D01*
X150250D01*
X160250Y306000D02*
Y309000D01*
X158500D01*
X158000Y308750D01*
X157750Y308250D01*
X158000Y307750D01*
X158500Y307500D01*
X160250D01*
X158500D02*
X157750Y306000D01*
X156250D02*
X154250Y309000D01*
X156250D01*
X152250Y306000D02*
X150250Y309000D01*
X152250D01*
X160250Y318500D02*
Y321500D01*
X158500D01*
X158000Y321250D01*
X157750Y320750D01*
X158000Y320250D01*
X158500Y320000D01*
X160250D01*
X158500D02*
X157750Y318500D01*
X155500Y320000D02*
X155000D01*
X154500Y320250D01*
X154250Y320750D01*
X154500Y321250D01*
X155000Y321500D01*
X155500D01*
X156000Y321250D01*
X156250Y320750D01*
X156000Y320250D01*
X155500Y320000D01*
X156000Y319750D01*
X156250Y319250D01*
X156000Y318750D01*
X155500Y318500D01*
X155000D01*
X154500Y318750D01*
X154250Y319250D01*
X154500Y319750D01*
X155000Y320000D01*
X151750Y318500D02*
X150750D01*
X151250D02*
Y321500D01*
X151750Y321000D01*
X160250Y326000D02*
Y329000D01*
X158500D01*
X158000Y328750D01*
X157750Y328250D01*
X158000Y327750D01*
X158500Y327500D01*
X160250D01*
X158500D02*
X157750Y326000D01*
X155500Y327500D02*
X155000D01*
X154500Y327750D01*
X154250Y328250D01*
X154500Y328750D01*
X155000Y329000D01*
X155500D01*
X156000Y328750D01*
X156250Y328250D01*
X156000Y327750D01*
X155500Y327500D01*
X156000Y327250D01*
X156250Y326750D01*
X156000Y326250D01*
X155500Y326000D01*
X155000D01*
X154500Y326250D01*
X154250Y326750D01*
X154500Y327250D01*
X155000Y327500D01*
X152000Y326250D02*
X151500Y326000D01*
X151000D01*
X150500Y326250D01*
X150250Y326750D01*
X150500Y327250D01*
X151000Y327500D01*
X151500D01*
X151000D02*
X150500Y327750D01*
X150250Y328250D01*
X150500Y328750D01*
X151000Y329000D01*
X151500D01*
X152000Y328750D01*
X160250Y338500D02*
Y341500D01*
X158500D01*
X158000Y341250D01*
X157750Y340750D01*
X158000Y340250D01*
X158500Y340000D01*
X160250D01*
X158500D02*
X157750Y338500D01*
X155500Y340000D02*
X155000D01*
X154500Y340250D01*
X154250Y340750D01*
X154500Y341250D01*
X155000Y341500D01*
X155500D01*
X156000Y341250D01*
X156250Y340750D01*
X156000Y340250D01*
X155500Y340000D01*
X156000Y339750D01*
X156250Y339250D01*
X156000Y338750D01*
X155500Y338500D01*
X155000D01*
X154500Y338750D01*
X154250Y339250D01*
X154500Y339750D01*
X155000Y340000D01*
X152250Y338500D02*
X150250Y341500D01*
X152250D01*
X160250Y346000D02*
Y349000D01*
X158500D01*
X158000Y348750D01*
X157750Y348250D01*
X158000Y347750D01*
X158500Y347500D01*
X160250D01*
X158500D02*
X157750Y346000D01*
X155500Y347500D02*
X155000D01*
X154500Y347750D01*
X154250Y348250D01*
X154500Y348750D01*
X155000Y349000D01*
X155500D01*
X156000Y348750D01*
X156250Y348250D01*
X156000Y347750D01*
X155500Y347500D01*
X156000Y347250D01*
X156250Y346750D01*
X156000Y346250D01*
X155500Y346000D01*
X155000D01*
X154500Y346250D01*
X154250Y346750D01*
X154500Y347250D01*
X155000Y347500D01*
X151500Y346000D02*
X151000Y346250D01*
X150500Y346750D01*
X150250Y347500D01*
Y348250D01*
X150500Y348750D01*
X151000Y349000D01*
X151500D01*
X152000Y348750D01*
X152250Y348250D01*
X152000Y347750D01*
X151500Y347500D01*
X151000D01*
X150500Y347750D01*
X150250Y348250D01*
X160250Y358500D02*
Y361500D01*
X158500D01*
X158000Y361250D01*
X157750Y360750D01*
X158000Y360250D01*
X158500Y360000D01*
X160250D01*
X158500D02*
X157750Y358500D01*
X155500D02*
X155000Y358750D01*
X154500Y359250D01*
X154250Y360000D01*
Y360750D01*
X154500Y361250D01*
X155000Y361500D01*
X155500D01*
X156000Y361250D01*
X156250Y360750D01*
X156000Y360250D01*
X155500Y360000D01*
X155000D01*
X154500Y360250D01*
X154250Y360750D01*
X152000Y358750D02*
X151500Y358500D01*
X151000D01*
X150500Y358750D01*
X150250Y359250D01*
X150500Y359750D01*
X151000Y360000D01*
X151500D01*
X151000D02*
X150500Y360250D01*
X150250Y360750D01*
X150500Y361250D01*
X151000Y361500D01*
X151500D01*
X152000Y361250D01*
X160250Y368500D02*
Y371500D01*
X158500D01*
X158000Y371250D01*
X157750Y370750D01*
X158000Y370250D01*
X158500Y370000D01*
X160250D01*
X158500D02*
X157750Y368500D01*
X155500D02*
X155000Y368750D01*
X154500Y369250D01*
X154250Y370000D01*
Y370750D01*
X154500Y371250D01*
X155000Y371500D01*
X155500D01*
X156000Y371250D01*
X156250Y370750D01*
X156000Y370250D01*
X155500Y370000D01*
X155000D01*
X154500Y370250D01*
X154250Y370750D01*
X152250Y368750D02*
X151750Y368500D01*
X151000D01*
X150500Y368750D01*
X150250Y369250D01*
Y369500D01*
X150500Y370000D01*
X151000Y370250D01*
X152250D01*
Y371500D01*
X150250D01*
X162750Y193500D02*
Y196500D01*
X161000D01*
X160500Y196250D01*
X160250Y195750D01*
X160500Y195250D01*
X161000Y195000D01*
X162750D01*
X161000D02*
X160250Y193500D01*
X157500D02*
Y196500D01*
X158750Y194500D01*
X156750D01*
X154750Y193500D02*
X152750Y196500D01*
X154750D01*
X178900Y52600D02*
Y57900D01*
X166600D01*
Y52600D01*
X178900D01*
Y72600D02*
Y77900D01*
X166600D01*
Y72600D01*
X178900D01*
Y92600D02*
Y97900D01*
X166600D01*
Y92600D01*
X178900D01*
Y112600D02*
Y117900D01*
X166600D01*
Y112600D01*
X178900D01*
Y132600D02*
Y137900D01*
X166600D01*
Y132600D01*
X178900D01*
Y152600D02*
Y157900D01*
X166600D01*
Y152600D01*
X178900D01*
Y172600D02*
Y177900D01*
X166600D01*
Y172600D01*
X178900D01*
Y192600D02*
Y197900D01*
X166600D01*
Y192600D01*
X178900D01*
Y227600D02*
Y232900D01*
X166600D01*
Y227600D01*
X178900D01*
Y247600D02*
Y252900D01*
X166600D01*
Y247600D01*
X178900D01*
Y267600D02*
Y272900D01*
X166600D01*
Y267600D01*
X178900D01*
Y287600D02*
Y292900D01*
X166600D01*
Y287600D01*
X178900D01*
Y307600D02*
Y312900D01*
X166600D01*
Y307600D01*
X178900D01*
Y327600D02*
Y332900D01*
X166600D01*
Y327600D01*
X178900D01*
Y347600D02*
Y352900D01*
X166600D01*
Y347600D01*
X178900D01*
Y367600D02*
Y372900D01*
X166600D01*
Y367600D01*
X178900D01*
X185250Y43500D02*
Y46500D01*
X183500D01*
X183000Y46250D01*
X182750Y45750D01*
X183000Y45250D01*
X183500Y45000D01*
X185250D01*
X183500D02*
X182750Y43500D01*
X180000D02*
Y46500D01*
X181250Y44500D01*
X179250D01*
X182750Y54000D02*
X183000Y53750D01*
X183500Y53500D01*
X184250D01*
X184750Y53750D01*
X185000Y54000D01*
X185250Y54500D01*
Y55500D01*
X185000Y56000D01*
X184750Y56250D01*
X184250Y56500D01*
X183500D01*
X183000Y56250D01*
X182750Y56000D01*
X180750Y53500D02*
X179750D01*
X180250D02*
Y56500D01*
X180750Y56000D01*
X182750Y74000D02*
X183000Y73750D01*
X183500Y73500D01*
X184250D01*
X184750Y73750D01*
X185000Y74000D01*
X185250Y74500D01*
Y75500D01*
X185000Y76000D01*
X184750Y76250D01*
X184250Y76500D01*
X183500D01*
X183000Y76250D01*
X182750Y76000D01*
X179250Y73500D02*
X181250D01*
X179500Y75250D01*
X179250Y75750D01*
X179500Y76250D01*
X180000Y76500D01*
X180750D01*
X181250Y76250D01*
X182750Y154000D02*
X183000Y153750D01*
X183500Y153500D01*
X184250D01*
X184750Y153750D01*
X185000Y154000D01*
X185250Y154500D01*
Y155500D01*
X185000Y156000D01*
X184750Y156250D01*
X184250Y156500D01*
X183500D01*
X183000Y156250D01*
X182750Y156000D01*
X181250Y154250D02*
X181000Y154750D01*
X180500Y155000D01*
X180000D01*
X179500Y154750D01*
X179250Y154250D01*
X179500Y153750D01*
X180000Y153500D01*
X180500D01*
X181000Y153750D01*
X181250Y154250D01*
Y155000D01*
X181000Y155750D01*
X180500Y156250D01*
X180000Y156500D01*
X185250Y94000D02*
X185500Y93750D01*
X186000Y93500D01*
X186750D01*
X187250Y93750D01*
X187500Y94000D01*
X187750Y94500D01*
Y95500D01*
X187500Y96000D01*
X187250Y96250D01*
X186750Y96500D01*
X186000D01*
X185500Y96250D01*
X185250Y96000D01*
X183500Y93750D02*
X183000Y93500D01*
X182500D01*
X182000Y93750D01*
X181750Y94250D01*
X182000Y94750D01*
X182500Y95000D01*
X183000D01*
X182500D02*
X182000Y95250D01*
X181750Y95750D01*
X182000Y96250D01*
X182500Y96500D01*
X183000D01*
X183500Y96250D01*
X185250Y114000D02*
X185500Y113750D01*
X186000Y113500D01*
X186750D01*
X187250Y113750D01*
X187500Y114000D01*
X187750Y114500D01*
Y115500D01*
X187500Y116000D01*
X187250Y116250D01*
X186750Y116500D01*
X186000D01*
X185500Y116250D01*
X185250Y116000D01*
X182500Y113500D02*
Y116500D01*
X183750Y114500D01*
X181750D01*
X185250Y134000D02*
X185500Y133750D01*
X186000Y133500D01*
X186750D01*
X187250Y133750D01*
X187500Y134000D01*
X187750Y134500D01*
Y135500D01*
X187500Y136000D01*
X187250Y136250D01*
X186750Y136500D01*
X186000D01*
X185500Y136250D01*
X185250Y136000D01*
X183750Y133750D02*
X183250Y133500D01*
X182500D01*
X182000Y133750D01*
X181750Y134250D01*
Y134500D01*
X182000Y135000D01*
X182500Y135250D01*
X183750D01*
Y136500D01*
X181750D01*
X185250Y174000D02*
X185500Y173750D01*
X186000Y173500D01*
X186750D01*
X187250Y173750D01*
X187500Y174000D01*
X187750Y174500D01*
Y175500D01*
X187500Y176000D01*
X187250Y176250D01*
X186750Y176500D01*
X186000D01*
X185500Y176250D01*
X185250Y176000D01*
X183750Y173500D02*
X181750Y176500D01*
X183750D01*
X185250Y196500D02*
X185500Y196250D01*
X186000Y196000D01*
X186750D01*
X187250Y196250D01*
X187500Y196500D01*
X187750Y197000D01*
Y198000D01*
X187500Y198500D01*
X187250Y198750D01*
X186750Y199000D01*
X186000D01*
X185500Y198750D01*
X185250Y198500D01*
X183000Y197500D02*
X182500D01*
X182000Y197750D01*
X181750Y198250D01*
X182000Y198750D01*
X182500Y199000D01*
X183000D01*
X183500Y198750D01*
X183750Y198250D01*
X183500Y197750D01*
X183000Y197500D01*
X183500Y197250D01*
X183750Y196750D01*
X183500Y196250D01*
X183000Y196000D01*
X182500D01*
X182000Y196250D01*
X181750Y196750D01*
X182000Y197250D01*
X182500Y197500D01*
X190250Y63500D02*
Y66500D01*
X188500D01*
X188000Y66250D01*
X187750Y65750D01*
X188000Y65250D01*
X188500Y65000D01*
X190250D01*
X188500D02*
X187750Y63500D01*
X185750D02*
X184750D01*
X185250D02*
Y66500D01*
X185750Y66000D01*
X182000Y63750D02*
X181500Y63500D01*
X181000D01*
X180500Y63750D01*
X180250Y64250D01*
Y65750D01*
X180500Y66250D01*
X181000Y66500D01*
X181500D01*
X182000Y66250D01*
X182250Y65750D01*
Y64250D01*
X182000Y63750D01*
X180500Y66250D01*
X190250Y83500D02*
Y86500D01*
X188500D01*
X188000Y86250D01*
X187750Y85750D01*
X188000Y85250D01*
X188500Y85000D01*
X190250D01*
X188500D02*
X187750Y83500D01*
X185750D02*
X184750D01*
X185250D02*
Y86500D01*
X185750Y86000D01*
X182250Y84250D02*
X182000Y84750D01*
X181500Y85000D01*
X181000D01*
X180500Y84750D01*
X180250Y84250D01*
X180500Y83750D01*
X181000Y83500D01*
X181500D01*
X182000Y83750D01*
X182250Y84250D01*
Y85000D01*
X182000Y85750D01*
X181500Y86250D01*
X181000Y86500D01*
X190250Y103500D02*
Y106500D01*
X188500D01*
X188000Y106250D01*
X187750Y105750D01*
X188000Y105250D01*
X188500Y105000D01*
X190250D01*
X188500D02*
X187750Y103500D01*
X184250D02*
X186250D01*
X184500Y105250D01*
X184250Y105750D01*
X184500Y106250D01*
X185000Y106500D01*
X185750D01*
X186250Y106250D01*
X180250Y103500D02*
X182250D01*
X180500Y105250D01*
X180250Y105750D01*
X180500Y106250D01*
X181000Y106500D01*
X181750D01*
X182250Y106250D01*
X190250Y123500D02*
Y126500D01*
X188500D01*
X188000Y126250D01*
X187750Y125750D01*
X188000Y125250D01*
X188500Y125000D01*
X190250D01*
X188500D02*
X187750Y123500D01*
X184250D02*
X186250D01*
X184500Y125250D01*
X184250Y125750D01*
X184500Y126250D01*
X185000Y126500D01*
X185750D01*
X186250Y126250D01*
X181500Y125000D02*
X181000D01*
X180500Y125250D01*
X180250Y125750D01*
X180500Y126250D01*
X181000Y126500D01*
X181500D01*
X182000Y126250D01*
X182250Y125750D01*
X182000Y125250D01*
X181500Y125000D01*
X182000Y124750D01*
X182250Y124250D01*
X182000Y123750D01*
X181500Y123500D01*
X181000D01*
X180500Y123750D01*
X180250Y124250D01*
X180500Y124750D01*
X181000Y125000D01*
X190250Y143500D02*
Y146500D01*
X188500D01*
X188000Y146250D01*
X187750Y145750D01*
X188000Y145250D01*
X188500Y145000D01*
X190250D01*
X188500D02*
X187750Y143500D01*
X186000Y143750D02*
X185500Y143500D01*
X185000D01*
X184500Y143750D01*
X184250Y144250D01*
X184500Y144750D01*
X185000Y145000D01*
X185500D01*
X185000D02*
X184500Y145250D01*
X184250Y145750D01*
X184500Y146250D01*
X185000Y146500D01*
X185500D01*
X186000Y146250D01*
X181000Y143500D02*
Y146500D01*
X182250Y144500D01*
X180250D01*
X190250Y163500D02*
Y166500D01*
X188500D01*
X188000Y166250D01*
X187750Y165750D01*
X188000Y165250D01*
X188500Y165000D01*
X190250D01*
X188500D02*
X187750Y163500D01*
X185000D02*
Y166500D01*
X186250Y164500D01*
X184250D01*
X182000Y163750D02*
X181500Y163500D01*
X181000D01*
X180500Y163750D01*
X180250Y164250D01*
Y165750D01*
X180500Y166250D01*
X181000Y166500D01*
X181500D01*
X182000Y166250D01*
X182250Y165750D01*
Y164250D01*
X182000Y163750D01*
X180500Y166250D01*
X190250Y183500D02*
Y186500D01*
X188500D01*
X188000Y186250D01*
X187750Y185750D01*
X188000Y185250D01*
X188500Y185000D01*
X190250D01*
X188500D02*
X187750Y183500D01*
X185000D02*
Y186500D01*
X186250Y184500D01*
X184250D01*
X182250Y184250D02*
X182000Y184750D01*
X181500Y185000D01*
X181000D01*
X180500Y184750D01*
X180250Y184250D01*
X180500Y183750D01*
X181000Y183500D01*
X181500D01*
X182000Y183750D01*
X182250Y184250D01*
Y185000D01*
X182000Y185750D01*
X181500Y186250D01*
X181000Y186500D01*
X190250Y218500D02*
Y221500D01*
X188500D01*
X188000Y221250D01*
X187750Y220750D01*
X188000Y220250D01*
X188500Y220000D01*
X190250D01*
X188500D02*
X187750Y218500D01*
X186250Y218750D02*
X185750Y218500D01*
X185000D01*
X184500Y218750D01*
X184250Y219250D01*
Y219500D01*
X184500Y220000D01*
X185000Y220250D01*
X186250D01*
Y221500D01*
X184250D01*
X180250Y218500D02*
X182250D01*
X180500Y220250D01*
X180250Y220750D01*
X180500Y221250D01*
X181000Y221500D01*
X181750D01*
X182250Y221250D01*
X187750Y229000D02*
X188000Y228750D01*
X188500Y228500D01*
X189250D01*
X189750Y228750D01*
X190000Y229000D01*
X190250Y229500D01*
Y230500D01*
X190000Y231000D01*
X189750Y231250D01*
X189250Y231500D01*
X188500D01*
X188000Y231250D01*
X187750Y231000D01*
X185500Y228500D02*
X185000Y228750D01*
X184500Y229250D01*
X184250Y230000D01*
Y230750D01*
X184500Y231250D01*
X185000Y231500D01*
X185500D01*
X186000Y231250D01*
X186250Y230750D01*
X186000Y230250D01*
X185500Y230000D01*
X185000D01*
X184500Y230250D01*
X184250Y230750D01*
X190250Y238500D02*
Y241500D01*
X188500D01*
X188000Y241250D01*
X187750Y240750D01*
X188000Y240250D01*
X188500Y240000D01*
X190250D01*
X188500D02*
X187750Y238500D01*
X186250Y238750D02*
X185750Y238500D01*
X185000D01*
X184500Y238750D01*
X184250Y239250D01*
Y239500D01*
X184500Y240000D01*
X185000Y240250D01*
X186250D01*
Y241500D01*
X184250D01*
X181500Y240000D02*
X181000D01*
X180500Y240250D01*
X180250Y240750D01*
X180500Y241250D01*
X181000Y241500D01*
X181500D01*
X182000Y241250D01*
X182250Y240750D01*
X182000Y240250D01*
X181500Y240000D01*
X182000Y239750D01*
X182250Y239250D01*
X182000Y238750D01*
X181500Y238500D01*
X181000D01*
X180500Y238750D01*
X180250Y239250D01*
X180500Y239750D01*
X181000Y240000D01*
X187750Y249000D02*
X188000Y248750D01*
X188500Y248500D01*
X189250D01*
X189750Y248750D01*
X190000Y249000D01*
X190250Y249500D01*
Y250500D01*
X190000Y251000D01*
X189750Y251250D01*
X189250Y251500D01*
X188500D01*
X188000Y251250D01*
X187750Y251000D01*
X185750Y248500D02*
X184750D01*
X185250D02*
Y251500D01*
X185750Y251000D01*
X182000Y248750D02*
X181500Y248500D01*
X181000D01*
X180500Y248750D01*
X180250Y249250D01*
Y250750D01*
X180500Y251250D01*
X181000Y251500D01*
X181500D01*
X182000Y251250D01*
X182250Y250750D01*
Y249250D01*
X182000Y248750D01*
X180500Y251250D01*
X190250Y258500D02*
Y261500D01*
X188500D01*
X188000Y261250D01*
X187750Y260750D01*
X188000Y260250D01*
X188500Y260000D01*
X190250D01*
X188500D02*
X187750Y258500D01*
X186250Y259250D02*
X186000Y259750D01*
X185500Y260000D01*
X185000D01*
X184500Y259750D01*
X184250Y259250D01*
X184500Y258750D01*
X185000Y258500D01*
X185500D01*
X186000Y258750D01*
X186250Y259250D01*
Y260000D01*
X186000Y260750D01*
X185500Y261250D01*
X185000Y261500D01*
X181000Y258500D02*
Y261500D01*
X182250Y259500D01*
X180250D01*
X187750Y269000D02*
X188000Y268750D01*
X188500Y268500D01*
X189250D01*
X189750Y268750D01*
X190000Y269000D01*
X190250Y269500D01*
Y270500D01*
X190000Y271000D01*
X189750Y271250D01*
X189250Y271500D01*
X188500D01*
X188000Y271250D01*
X187750Y271000D01*
X185750Y268500D02*
X184750D01*
X185250D02*
Y271500D01*
X185750Y271000D01*
X181750Y268500D02*
X180750D01*
X181250D02*
Y271500D01*
X181750Y271000D01*
X190250Y278500D02*
Y281500D01*
X188500D01*
X188000Y281250D01*
X187750Y280750D01*
X188000Y280250D01*
X188500Y280000D01*
X190250D01*
X188500D02*
X187750Y278500D01*
X186250D02*
X184250Y281500D01*
X186250D01*
X182000Y278750D02*
X181500Y278500D01*
X181000D01*
X180500Y278750D01*
X180250Y279250D01*
Y280750D01*
X180500Y281250D01*
X181000Y281500D01*
X181500D01*
X182000Y281250D01*
X182250Y280750D01*
Y279250D01*
X182000Y278750D01*
X180500Y281250D01*
X187750Y289000D02*
X188000Y288750D01*
X188500Y288500D01*
X189250D01*
X189750Y288750D01*
X190000Y289000D01*
X190250Y289500D01*
Y290500D01*
X190000Y291000D01*
X189750Y291250D01*
X189250Y291500D01*
X188500D01*
X188000Y291250D01*
X187750Y291000D01*
X185750Y288500D02*
X184750D01*
X185250D02*
Y291500D01*
X185750Y291000D01*
X180250Y288500D02*
X182250D01*
X180500Y290250D01*
X180250Y290750D01*
X180500Y291250D01*
X181000Y291500D01*
X181750D01*
X182250Y291250D01*
X190250Y298500D02*
Y301500D01*
X188500D01*
X188000Y301250D01*
X187750Y300750D01*
X188000Y300250D01*
X188500Y300000D01*
X190250D01*
X188500D02*
X187750Y298500D01*
X186250D02*
X184250Y301500D01*
X186250D01*
X182250Y299250D02*
X182000Y299750D01*
X181500Y300000D01*
X181000D01*
X180500Y299750D01*
X180250Y299250D01*
X180500Y298750D01*
X181000Y298500D01*
X181500D01*
X182000Y298750D01*
X182250Y299250D01*
Y300000D01*
X182000Y300750D01*
X181500Y301250D01*
X181000Y301500D01*
X187750Y309000D02*
X188000Y308750D01*
X188500Y308500D01*
X189250D01*
X189750Y308750D01*
X190000Y309000D01*
X190250Y309500D01*
Y310500D01*
X190000Y311000D01*
X189750Y311250D01*
X189250Y311500D01*
X188500D01*
X188000Y311250D01*
X187750Y311000D01*
X185750Y308500D02*
X184750D01*
X185250D02*
Y311500D01*
X185750Y311000D01*
X182000Y308750D02*
X181500Y308500D01*
X181000D01*
X180500Y308750D01*
X180250Y309250D01*
X180500Y309750D01*
X181000Y310000D01*
X181500D01*
X181000D02*
X180500Y310250D01*
X180250Y310750D01*
X180500Y311250D01*
X181000Y311500D01*
X181500D01*
X182000Y311250D01*
X190250Y318500D02*
Y321500D01*
X188500D01*
X188000Y321250D01*
X187750Y320750D01*
X188000Y320250D01*
X188500Y320000D01*
X190250D01*
X188500D02*
X187750Y318500D01*
X185500Y320000D02*
X185000D01*
X184500Y320250D01*
X184250Y320750D01*
X184500Y321250D01*
X185000Y321500D01*
X185500D01*
X186000Y321250D01*
X186250Y320750D01*
X186000Y320250D01*
X185500Y320000D01*
X186000Y319750D01*
X186250Y319250D01*
X186000Y318750D01*
X185500Y318500D01*
X185000D01*
X184500Y318750D01*
X184250Y319250D01*
X184500Y319750D01*
X185000Y320000D01*
X180250Y318500D02*
X182250D01*
X180500Y320250D01*
X180250Y320750D01*
X180500Y321250D01*
X181000Y321500D01*
X181750D01*
X182250Y321250D01*
X187750Y329000D02*
X188000Y328750D01*
X188500Y328500D01*
X189250D01*
X189750Y328750D01*
X190000Y329000D01*
X190250Y329500D01*
Y330500D01*
X190000Y331000D01*
X189750Y331250D01*
X189250Y331500D01*
X188500D01*
X188000Y331250D01*
X187750Y331000D01*
X185750Y328500D02*
X184750D01*
X185250D02*
Y331500D01*
X185750Y331000D01*
X181000Y328500D02*
Y331500D01*
X182250Y329500D01*
X180250D01*
X190250Y338500D02*
Y341500D01*
X188500D01*
X188000Y341250D01*
X187750Y340750D01*
X188000Y340250D01*
X188500Y340000D01*
X190250D01*
X188500D02*
X187750Y338500D01*
X185500Y340000D02*
X185000D01*
X184500Y340250D01*
X184250Y340750D01*
X184500Y341250D01*
X185000Y341500D01*
X185500D01*
X186000Y341250D01*
X186250Y340750D01*
X186000Y340250D01*
X185500Y340000D01*
X186000Y339750D01*
X186250Y339250D01*
X186000Y338750D01*
X185500Y338500D01*
X185000D01*
X184500Y338750D01*
X184250Y339250D01*
X184500Y339750D01*
X185000Y340000D01*
X181500D02*
X181000D01*
X180500Y340250D01*
X180250Y340750D01*
X180500Y341250D01*
X181000Y341500D01*
X181500D01*
X182000Y341250D01*
X182250Y340750D01*
X182000Y340250D01*
X181500Y340000D01*
X182000Y339750D01*
X182250Y339250D01*
X182000Y338750D01*
X181500Y338500D01*
X181000D01*
X180500Y338750D01*
X180250Y339250D01*
X180500Y339750D01*
X181000Y340000D01*
X187750Y349000D02*
X188000Y348750D01*
X188500Y348500D01*
X189250D01*
X189750Y348750D01*
X190000Y349000D01*
X190250Y349500D01*
Y350500D01*
X190000Y351000D01*
X189750Y351250D01*
X189250Y351500D01*
X188500D01*
X188000Y351250D01*
X187750Y351000D01*
X185750Y348500D02*
X184750D01*
X185250D02*
Y351500D01*
X185750Y351000D01*
X182250Y348750D02*
X181750Y348500D01*
X181000D01*
X180500Y348750D01*
X180250Y349250D01*
Y349500D01*
X180500Y350000D01*
X181000Y350250D01*
X182250D01*
Y351500D01*
X180250D01*
X190250Y358500D02*
Y361500D01*
X188500D01*
X188000Y361250D01*
X187750Y360750D01*
X188000Y360250D01*
X188500Y360000D01*
X190250D01*
X188500D02*
X187750Y358500D01*
X185500D02*
X185000Y358750D01*
X184500Y359250D01*
X184250Y360000D01*
Y360750D01*
X184500Y361250D01*
X185000Y361500D01*
X185500D01*
X186000Y361250D01*
X186250Y360750D01*
X186000Y360250D01*
X185500Y360000D01*
X185000D01*
X184500Y360250D01*
X184250Y360750D01*
X181000Y358500D02*
Y361500D01*
X182250Y359500D01*
X180250D01*
X187750Y369000D02*
X188000Y368750D01*
X188500Y368500D01*
X189250D01*
X189750Y368750D01*
X190000Y369000D01*
X190250Y369500D01*
Y370500D01*
X190000Y371000D01*
X189750Y371250D01*
X189250Y371500D01*
X188500D01*
X188000Y371250D01*
X187750Y371000D01*
X185750Y368500D02*
X184750D01*
X185250D02*
Y371500D01*
X185750Y371000D01*
X182250Y369250D02*
X182000Y369750D01*
X181500Y370000D01*
X181000D01*
X180500Y369750D01*
X180250Y369250D01*
X180500Y368750D01*
X181000Y368500D01*
X181500D01*
X182000Y368750D01*
X182250Y369250D01*
Y370000D01*
X182000Y370750D01*
X181500Y371250D01*
X181000Y371500D01*
X198687Y251813D02*
X199937D01*
X199313D02*
Y248063D01*
X198687D02*
X199937D01*
X205875Y251187D02*
X205563Y251500D01*
X204937Y251813D01*
X204000D01*
X203375Y251500D01*
X203063Y251187D01*
X202750Y250563D01*
Y249313D01*
X203063Y248687D01*
X203375Y248375D01*
X204000Y248063D01*
X204937D01*
X205563Y248375D01*
X205875Y248687D01*
X207750Y251500D02*
X208375Y251813D01*
X209313D01*
X209937Y251500D01*
X210250Y250875D01*
Y250563D01*
X209937Y249937D01*
X209313Y249625D01*
X207750D01*
Y248063D01*
X210250D01*
X204313Y73687D02*
X203063D01*
X203687D02*
Y77437D01*
X204313D02*
X203063D01*
X197125Y74313D02*
X197437Y74000D01*
X198063Y73687D01*
X199000D01*
X199625Y74000D01*
X199937Y74313D01*
X200250Y74937D01*
Y76187D01*
X199937Y76813D01*
X199625Y77125D01*
X199000Y77437D01*
X198063D01*
X197437Y77125D01*
X197125Y76813D01*
X194937Y74000D02*
X194313Y73687D01*
X193687D01*
X193063Y74000D01*
X192750Y74625D01*
X193063Y75250D01*
X193687Y75563D01*
X194313D01*
X193687D02*
X193063Y75875D01*
X192750Y76500D01*
X193063Y77125D01*
X193687Y77437D01*
X194313D01*
X194937Y77125D01*
X251187Y91813D02*
X252437D01*
X251813D02*
Y88063D01*
X251187D02*
X252437D01*
X258375Y91187D02*
X258063Y91500D01*
X257437Y91813D01*
X256500D01*
X255875Y91500D01*
X255563Y91187D01*
X255250Y90563D01*
Y89313D01*
X255563Y88687D01*
X255875Y88375D01*
X256500Y88063D01*
X257437D01*
X258063Y88375D01*
X258375Y88687D01*
X262750Y91813D02*
X260250D01*
X262437Y89625D01*
X262750Y89000D01*
X262437Y88375D01*
X261813Y88063D01*
X260875D01*
X260250Y88375D01*
X251187Y266813D02*
X252437D01*
X251813D02*
Y263063D01*
X251187D02*
X252437D01*
X258375Y266187D02*
X258063Y266500D01*
X257437Y266813D01*
X256500D01*
X255875Y266500D01*
X255563Y266187D01*
X255250Y265563D01*
Y264313D01*
X255563Y263687D01*
X255875Y263375D01*
X256500Y263063D01*
X257437D01*
X258063Y263375D01*
X258375Y263687D01*
X261813Y266813D02*
Y263063D01*
X260250Y265563D01*
X262750D01*
X354313Y55250D02*
X350563D01*
Y53063D01*
X350875Y52437D01*
X351500Y52125D01*
X352125Y52437D01*
X352437Y53063D01*
Y55250D01*
Y53063D02*
X354313Y52125D01*
Y49625D02*
Y48375D01*
Y49000D02*
X350563D01*
X351187Y49625D01*
X354313Y75250D02*
X350563D01*
Y73063D01*
X350875Y72437D01*
X351500Y72125D01*
X352125Y72437D01*
X352437Y73063D01*
Y75250D01*
Y73063D02*
X354313Y72125D01*
Y70250D02*
X350563Y67750D01*
Y70250D01*
X354313Y95250D02*
X350563D01*
Y93063D01*
X350875Y92437D01*
X351500Y92125D01*
X352125Y92437D01*
X352437Y93063D01*
Y95250D01*
Y93063D02*
X354313Y92125D01*
Y89625D02*
Y88375D01*
Y89000D02*
X350563D01*
X351187Y89625D01*
X354000Y84937D02*
X354313Y84313D01*
Y83687D01*
X354000Y83063D01*
X353375Y82750D01*
X352750Y83063D01*
X352437Y83687D01*
Y84313D01*
Y83687D02*
X352125Y83063D01*
X351500Y82750D01*
X350875Y83063D01*
X350563Y83687D01*
Y84313D01*
X350875Y84937D01*
X354313Y115250D02*
X350563D01*
Y113063D01*
X350875Y112437D01*
X351500Y112125D01*
X352125Y112437D01*
X352437Y113063D01*
Y115250D01*
Y113063D02*
X354313Y112125D01*
Y109625D02*
Y108375D01*
Y109000D02*
X350563D01*
X351187Y109625D01*
X354313Y104313D02*
X354000Y103687D01*
X353375Y103063D01*
X352437Y102750D01*
X351500D01*
X350875Y103063D01*
X350563Y103687D01*
Y104313D01*
X350875Y104937D01*
X351500Y105250D01*
X352125Y104937D01*
X352437Y104313D01*
Y103687D01*
X352125Y103063D01*
X351500Y102750D01*
X354313Y135250D02*
X350563D01*
Y133063D01*
X350875Y132437D01*
X351500Y132125D01*
X352125Y132437D01*
X352437Y133063D01*
Y135250D01*
Y133063D02*
X354313Y132125D01*
Y127750D02*
Y130250D01*
X352125Y128063D01*
X351500Y127750D01*
X350875Y128063D01*
X350563Y128687D01*
Y129625D01*
X350875Y130250D01*
X354000Y125250D02*
X354313Y124625D01*
Y123687D01*
X354000Y123063D01*
X353375Y122750D01*
X353063D01*
X352437Y123063D01*
X352125Y123687D01*
Y125250D01*
X350563D01*
Y122750D01*
X354313Y155250D02*
X350563D01*
Y153063D01*
X350875Y152437D01*
X351500Y152125D01*
X352125Y152437D01*
X352437Y153063D01*
Y155250D01*
Y153063D02*
X354313Y152125D01*
X354000Y149937D02*
X354313Y149313D01*
Y148687D01*
X354000Y148063D01*
X353375Y147750D01*
X352750Y148063D01*
X352437Y148687D01*
Y149313D01*
Y148687D02*
X352125Y148063D01*
X351500Y147750D01*
X350875Y148063D01*
X350563Y148687D01*
Y149313D01*
X350875Y149937D01*
X354313Y144625D02*
Y143375D01*
Y144000D02*
X350563D01*
X351187Y144625D01*
X354313Y175250D02*
X350563D01*
Y173063D01*
X350875Y172437D01*
X351500Y172125D01*
X352125Y172437D01*
X352437Y173063D01*
Y175250D01*
Y173063D02*
X354313Y172125D01*
X354000Y169937D02*
X354313Y169313D01*
Y168687D01*
X354000Y168063D01*
X353375Y167750D01*
X352750Y168063D01*
X352437Y168687D01*
Y169313D01*
Y168687D02*
X352125Y168063D01*
X351500Y167750D01*
X350875Y168063D01*
X350563Y168687D01*
Y169313D01*
X350875Y169937D01*
X354313Y165250D02*
X350563Y162750D01*
Y165250D01*
X354313Y195250D02*
X350563D01*
Y193063D01*
X350875Y192437D01*
X351500Y192125D01*
X352125Y192437D01*
X352437Y193063D01*
Y195250D01*
Y193063D02*
X354313Y192125D01*
Y188687D02*
X350563D01*
X353063Y190250D01*
Y187750D01*
X354000Y184937D02*
X354313Y184313D01*
Y183687D01*
X354000Y183063D01*
X353375Y182750D01*
X352750Y183063D01*
X352437Y183687D01*
Y184313D01*
Y183687D02*
X352125Y183063D01*
X351500Y182750D01*
X350875Y183063D01*
X350563Y183687D01*
Y184313D01*
X350875Y184937D01*
X354313Y230250D02*
X350563D01*
Y228063D01*
X350875Y227437D01*
X351500Y227125D01*
X352125Y227437D01*
X352437Y228063D01*
Y230250D01*
Y228063D02*
X354313Y227125D01*
Y223687D02*
X350563D01*
X353063Y225250D01*
Y222750D01*
X354313Y219313D02*
X354000Y218687D01*
X353375Y218063D01*
X352437Y217750D01*
X351500D01*
X350875Y218063D01*
X350563Y218687D01*
Y219313D01*
X350875Y219937D01*
X351500Y220250D01*
X352125Y219937D01*
X352437Y219313D01*
Y218687D01*
X352125Y218063D01*
X351500Y217750D01*
X354313Y252750D02*
X350563D01*
Y250563D01*
X350875Y249937D01*
X351500Y249625D01*
X352125Y249937D01*
X352437Y250563D01*
Y252750D01*
Y250563D02*
X354313Y249625D01*
X354000Y247750D02*
X354313Y247125D01*
Y246187D01*
X354000Y245563D01*
X353375Y245250D01*
X353063D01*
X352437Y245563D01*
X352125Y246187D01*
Y247750D01*
X350563D01*
Y245250D01*
X354000Y242750D02*
X354313Y242125D01*
Y241187D01*
X354000Y240563D01*
X353375Y240250D01*
X353063D01*
X352437Y240563D01*
X352125Y241187D01*
Y242750D01*
X350563D01*
Y240250D01*
X354313Y270250D02*
X350563D01*
Y268063D01*
X350875Y267437D01*
X351500Y267125D01*
X352125Y267437D01*
X352437Y268063D01*
Y270250D01*
Y268063D02*
X354313Y267125D01*
X353375Y265250D02*
X352750Y264937D01*
X352437Y264313D01*
Y263687D01*
X352750Y263063D01*
X353375Y262750D01*
X354000Y263063D01*
X354313Y263687D01*
Y264313D01*
X354000Y264937D01*
X353375Y265250D01*
X352437D01*
X351500Y264937D01*
X350875Y264313D01*
X350563Y263687D01*
X354313Y259625D02*
Y258375D01*
Y259000D02*
X350563D01*
X351187Y259625D01*
X354313Y290250D02*
X350563D01*
Y288063D01*
X350875Y287437D01*
X351500Y287125D01*
X352125Y287437D01*
X352437Y288063D01*
Y290250D01*
Y288063D02*
X354313Y287125D01*
X353375Y285250D02*
X352750Y284937D01*
X352437Y284313D01*
Y283687D01*
X352750Y283063D01*
X353375Y282750D01*
X354000Y283063D01*
X354313Y283687D01*
Y284313D01*
X354000Y284937D01*
X353375Y285250D01*
X352437D01*
X351500Y284937D01*
X350875Y284313D01*
X350563Y283687D01*
X354313Y280250D02*
X350563Y277750D01*
Y280250D01*
X354313Y310250D02*
X350563D01*
Y308063D01*
X350875Y307437D01*
X351500Y307125D01*
X352125Y307437D01*
X352437Y308063D01*
Y310250D01*
Y308063D02*
X354313Y307125D01*
Y305250D02*
X350563Y302750D01*
Y305250D01*
X354000Y299937D02*
X354313Y299313D01*
Y298687D01*
X354000Y298063D01*
X353375Y297750D01*
X352750Y298063D01*
X352437Y298687D01*
Y299313D01*
Y298687D02*
X352125Y298063D01*
X351500Y297750D01*
X350875Y298063D01*
X350563Y298687D01*
Y299313D01*
X350875Y299937D01*
X354313Y330250D02*
X350563D01*
Y328063D01*
X350875Y327437D01*
X351500Y327125D01*
X352125Y327437D01*
X352437Y328063D01*
Y330250D01*
Y328063D02*
X354313Y327125D01*
Y325250D02*
X350563Y322750D01*
Y325250D01*
X354313Y319313D02*
X354000Y318687D01*
X353375Y318063D01*
X352437Y317750D01*
X351500D01*
X350875Y318063D01*
X350563Y318687D01*
Y319313D01*
X350875Y319937D01*
X351500Y320250D01*
X352125Y319937D01*
X352437Y319313D01*
Y318687D01*
X352125Y318063D01*
X351500Y317750D01*
X354313Y350250D02*
X350563D01*
Y348063D01*
X350875Y347437D01*
X351500Y347125D01*
X352125Y347437D01*
X352437Y348063D01*
Y350250D01*
Y348063D02*
X354313Y347125D01*
X352437Y344313D02*
Y343687D01*
X352125Y343063D01*
X351500Y342750D01*
X350875Y343063D01*
X350563Y343687D01*
Y344313D01*
X350875Y344937D01*
X351500Y345250D01*
X352125Y344937D01*
X352437Y344313D01*
X352750Y344937D01*
X353375Y345250D01*
X354000Y344937D01*
X354313Y344313D01*
Y343687D01*
X354000Y343063D01*
X353375Y342750D01*
X352750Y343063D01*
X352437Y343687D01*
X354000Y340250D02*
X354313Y339625D01*
Y338687D01*
X354000Y338063D01*
X353375Y337750D01*
X353063D01*
X352437Y338063D01*
X352125Y338687D01*
Y340250D01*
X350563D01*
Y337750D01*
X354313Y370250D02*
X350563D01*
Y368063D01*
X350875Y367437D01*
X351500Y367125D01*
X352125Y367437D01*
X352437Y368063D01*
Y370250D01*
Y368063D02*
X354313Y367125D01*
Y364313D02*
X354000Y363687D01*
X353375Y363063D01*
X352437Y362750D01*
X351500D01*
X350875Y363063D01*
X350563Y363687D01*
Y364313D01*
X350875Y364937D01*
X351500Y365250D01*
X352125Y364937D01*
X352437Y364313D01*
Y363687D01*
X352125Y363063D01*
X351500Y362750D01*
X354313Y359625D02*
Y358375D01*
Y359000D02*
X350563D01*
X351187Y359625D01*
X383750Y58937D02*
Y60187D01*
X383437Y60813D01*
X383125Y61125D01*
X382500Y61437D01*
X381875D01*
X381250Y61125D01*
X380937Y60813D01*
X380625Y60187D01*
Y58937D01*
X380937Y58313D01*
X381250Y58000D01*
X381875Y57687D01*
X382500D01*
X383125Y58000D01*
X383437Y58313D01*
X383750Y58937D01*
X381563Y58625D02*
X380625Y57687D01*
X378125D02*
X376875D01*
X377500D02*
Y61437D01*
X378125Y60813D01*
X383750Y78937D02*
Y80187D01*
X383437Y80813D01*
X383125Y81125D01*
X382500Y81437D01*
X381875D01*
X381250Y81125D01*
X380937Y80813D01*
X380625Y80187D01*
Y78937D01*
X380937Y78313D01*
X381250Y78000D01*
X381875Y77687D01*
X382500D01*
X383125Y78000D01*
X383437Y78313D01*
X383750Y78937D01*
X381563Y78625D02*
X380625Y77687D01*
X377187D02*
Y81437D01*
X378750Y78937D01*
X376250D01*
X383750Y98937D02*
Y100187D01*
X383437Y100813D01*
X383125Y101125D01*
X382500Y101437D01*
X381875D01*
X381250Y101125D01*
X380937Y100813D01*
X380625Y100187D01*
Y98937D01*
X380937Y98313D01*
X381250Y98000D01*
X381875Y97687D01*
X382500D01*
X383125Y98000D01*
X383437Y98313D01*
X383750Y98937D01*
X381563Y98625D02*
X380625Y97687D01*
X378750D02*
X376250Y101437D01*
X378750D01*
X383750Y198937D02*
Y200187D01*
X383437Y200813D01*
X383125Y201125D01*
X382500Y201437D01*
X381875D01*
X381250Y201125D01*
X380937Y200813D01*
X380625Y200187D01*
Y198937D01*
X380937Y198313D01*
X381250Y198000D01*
X381875Y197687D01*
X382500D01*
X383125Y198000D01*
X383437Y198313D01*
X383750Y198937D01*
X381563Y198625D02*
X380625Y197687D01*
X376250D02*
X378750D01*
X376563Y199875D01*
X376250Y200500D01*
X376563Y201125D01*
X377187Y201437D01*
X378125D01*
X378750Y201125D01*
X371250Y197687D02*
X373750D01*
X371563Y199875D01*
X371250Y200500D01*
X371563Y201125D01*
X372187Y201437D01*
X373125D01*
X373750Y201125D01*
X383750Y373937D02*
Y375187D01*
X383437Y375813D01*
X383125Y376125D01*
X382500Y376437D01*
X381875D01*
X381250Y376125D01*
X380937Y375813D01*
X380625Y375187D01*
Y373937D01*
X380937Y373313D01*
X381250Y373000D01*
X381875Y372687D01*
X382500D01*
X383125Y373000D01*
X383437Y373313D01*
X383750Y373937D01*
X381563Y373625D02*
X380625Y372687D01*
X377187D02*
Y376437D01*
X378750Y373937D01*
X376250D01*
X373750Y373625D02*
X373437Y374250D01*
X372813Y374563D01*
X372187D01*
X371563Y374250D01*
X371250Y373625D01*
X371563Y373000D01*
X372187Y372687D01*
X372813D01*
X373437Y373000D01*
X373750Y373625D01*
Y374563D01*
X373437Y375500D01*
X372813Y376125D01*
X372187Y376437D01*
X385250Y43250D02*
X370250D01*
Y57250D01*
X385250D01*
Y43350D01*
Y63250D02*
X370250D01*
Y77250D01*
X385250D01*
Y63350D01*
Y83250D02*
X370250D01*
Y97250D01*
X385250D01*
Y83350D01*
Y103250D02*
X370250D01*
Y117250D01*
X385250D01*
Y103350D01*
Y123250D02*
X370250D01*
Y137250D01*
X385250D01*
Y123350D01*
Y143250D02*
X370250D01*
Y157250D01*
X385250D01*
Y143350D01*
Y163250D02*
X370250D01*
Y177250D01*
X385250D01*
Y163350D01*
Y183250D02*
X370250D01*
Y197250D01*
X385250D01*
Y183350D01*
Y218250D02*
X370250D01*
Y232250D01*
X385250D01*
Y218350D01*
Y238250D02*
X370250D01*
Y252250D01*
X385250D01*
Y238350D01*
Y258250D02*
X370250D01*
Y272250D01*
X385250D01*
Y258350D01*
Y273937D02*
Y275187D01*
X384937Y275813D01*
X384625Y276125D01*
X384000Y276437D01*
X383375D01*
X382750Y276125D01*
X382437Y275813D01*
X382125Y275187D01*
Y273937D01*
X382437Y273313D01*
X382750Y273000D01*
X383375Y272687D01*
X384000D01*
X384625Y273000D01*
X384937Y273313D01*
X385250Y273937D01*
X383063Y273625D02*
X382125Y272687D01*
X379937Y273000D02*
X379313Y272687D01*
X378687D01*
X378063Y273000D01*
X377750Y273625D01*
X378063Y274250D01*
X378687Y274563D01*
X379313D01*
X378687D02*
X378063Y274875D01*
X377750Y275500D01*
X378063Y276125D01*
X378687Y276437D01*
X379313D01*
X379937Y276125D01*
X374625Y272687D02*
X373375D01*
X374000D02*
Y276437D01*
X374625Y275813D01*
X385250Y278250D02*
X370250D01*
Y292250D01*
X385250D01*
Y278350D01*
Y298250D02*
X370250D01*
Y312250D01*
X385250D01*
Y298350D01*
Y318250D02*
X370250D01*
Y332250D01*
X385250D01*
Y318350D01*
Y333937D02*
Y335187D01*
X384937Y335813D01*
X384625Y336125D01*
X384000Y336437D01*
X383375D01*
X382750Y336125D01*
X382437Y335813D01*
X382125Y335187D01*
Y333937D01*
X382437Y333313D01*
X382750Y333000D01*
X383375Y332687D01*
X384000D01*
X384625Y333000D01*
X384937Y333313D01*
X385250Y333937D01*
X383063Y333625D02*
X382125Y332687D01*
X378687D02*
Y336437D01*
X380250Y333937D01*
X377750D01*
X374937Y333000D02*
X374313Y332687D01*
X373687D01*
X373063Y333000D01*
X372750Y333625D01*
Y335500D01*
X373063Y336125D01*
X373687Y336437D01*
X374313D01*
X374937Y336125D01*
X375250Y335500D01*
Y333625D01*
X374937Y333000D01*
X373063Y336125D01*
X385250Y338250D02*
X370250D01*
Y352250D01*
X385250D01*
Y338350D01*
Y353937D02*
Y355187D01*
X384937Y355813D01*
X384625Y356125D01*
X384000Y356437D01*
X383375D01*
X382750Y356125D01*
X382437Y355813D01*
X382125Y355187D01*
Y353937D01*
X382437Y353313D01*
X382750Y353000D01*
X383375Y352687D01*
X384000D01*
X384625Y353000D01*
X384937Y353313D01*
X385250Y353937D01*
X383063Y353625D02*
X382125Y352687D01*
X378687D02*
Y356437D01*
X380250Y353937D01*
X377750D01*
X374937Y353000D02*
X374313Y352687D01*
X373687D01*
X373063Y353000D01*
X372750Y353625D01*
X373063Y354250D01*
X373687Y354563D01*
X374313D01*
X373687D02*
X373063Y354875D01*
X372750Y355500D01*
X373063Y356125D01*
X373687Y356437D01*
X374313D01*
X374937Y356125D01*
X385250Y358250D02*
X370250D01*
Y372250D01*
X385250D01*
Y358350D01*
X385750Y118937D02*
Y120187D01*
X385437Y120813D01*
X385125Y121125D01*
X384500Y121437D01*
X383875D01*
X383250Y121125D01*
X382937Y120813D01*
X382625Y120187D01*
Y118937D01*
X382937Y118313D01*
X383250Y118000D01*
X383875Y117687D01*
X384500D01*
X385125Y118000D01*
X385437Y118313D01*
X385750Y118937D01*
X383563Y118625D02*
X382625Y117687D01*
X380125D02*
X378875D01*
X379500D02*
Y121437D01*
X380125Y120813D01*
X375437Y118000D02*
X374813Y117687D01*
X374187D01*
X373563Y118000D01*
X373250Y118625D01*
Y120500D01*
X373563Y121125D01*
X374187Y121437D01*
X374813D01*
X375437Y121125D01*
X375750Y120500D01*
Y118625D01*
X375437Y118000D01*
X373563Y121125D01*
X385750Y138937D02*
Y140187D01*
X385437Y140813D01*
X385125Y141125D01*
X384500Y141437D01*
X383875D01*
X383250Y141125D01*
X382937Y140813D01*
X382625Y140187D01*
Y138937D01*
X382937Y138313D01*
X383250Y138000D01*
X383875Y137687D01*
X384500D01*
X385125Y138000D01*
X385437Y138313D01*
X385750Y138937D01*
X383563Y138625D02*
X382625Y137687D01*
X380125D02*
X378875D01*
X379500D02*
Y141437D01*
X380125Y140813D01*
X375437Y138000D02*
X374813Y137687D01*
X374187D01*
X373563Y138000D01*
X373250Y138625D01*
X373563Y139250D01*
X374187Y139563D01*
X374813D01*
X374187D02*
X373563Y139875D01*
X373250Y140500D01*
X373563Y141125D01*
X374187Y141437D01*
X374813D01*
X375437Y141125D01*
X385750Y158937D02*
Y160187D01*
X385437Y160813D01*
X385125Y161125D01*
X384500Y161437D01*
X383875D01*
X383250Y161125D01*
X382937Y160813D01*
X382625Y160187D01*
Y158937D01*
X382937Y158313D01*
X383250Y158000D01*
X383875Y157687D01*
X384500D01*
X385125Y158000D01*
X385437Y158313D01*
X385750Y158937D01*
X383563Y158625D02*
X382625Y157687D01*
X380125D02*
X378875D01*
X379500D02*
Y161437D01*
X380125Y160813D01*
X375750Y158625D02*
X375437Y159250D01*
X374813Y159563D01*
X374187D01*
X373563Y159250D01*
X373250Y158625D01*
X373563Y158000D01*
X374187Y157687D01*
X374813D01*
X375437Y158000D01*
X375750Y158625D01*
Y159563D01*
X375437Y160500D01*
X374813Y161125D01*
X374187Y161437D01*
X385750Y178937D02*
Y180187D01*
X385437Y180813D01*
X385125Y181125D01*
X384500Y181437D01*
X383875D01*
X383250Y181125D01*
X382937Y180813D01*
X382625Y180187D01*
Y178937D01*
X382937Y178313D01*
X383250Y178000D01*
X383875Y177687D01*
X384500D01*
X385125Y178000D01*
X385437Y178313D01*
X385750Y178937D01*
X383563Y178625D02*
X382625Y177687D01*
X380125D02*
X378875D01*
X379500D02*
Y181437D01*
X380125Y180813D01*
X374813Y177687D02*
X374187Y178000D01*
X373563Y178625D01*
X373250Y179563D01*
Y180500D01*
X373563Y181125D01*
X374187Y181437D01*
X374813D01*
X375437Y181125D01*
X375750Y180500D01*
X375437Y179875D01*
X374813Y179563D01*
X374187D01*
X373563Y179875D01*
X373250Y180500D01*
X385750Y233937D02*
Y235187D01*
X385437Y235813D01*
X385125Y236125D01*
X384500Y236437D01*
X383875D01*
X383250Y236125D01*
X382937Y235813D01*
X382625Y235187D01*
Y233937D01*
X382937Y233313D01*
X383250Y233000D01*
X383875Y232687D01*
X384500D01*
X385125Y233000D01*
X385437Y233313D01*
X385750Y233937D01*
X383563Y233625D02*
X382625Y232687D01*
X378250D02*
X380750D01*
X378563Y234875D01*
X378250Y235500D01*
X378563Y236125D01*
X379187Y236437D01*
X380125D01*
X380750Y236125D01*
X375750Y233000D02*
X375125Y232687D01*
X374187D01*
X373563Y233000D01*
X373250Y233625D01*
Y233937D01*
X373563Y234563D01*
X374187Y234875D01*
X375750D01*
Y236437D01*
X373250D01*
X385750Y253937D02*
Y255187D01*
X385437Y255813D01*
X385125Y256125D01*
X384500Y256437D01*
X383875D01*
X383250Y256125D01*
X382937Y255813D01*
X382625Y255187D01*
Y253937D01*
X382937Y253313D01*
X383250Y253000D01*
X383875Y252687D01*
X384500D01*
X385125Y253000D01*
X385437Y253313D01*
X385750Y253937D01*
X383563Y253625D02*
X382625Y252687D01*
X378250D02*
X380750D01*
X378563Y254875D01*
X378250Y255500D01*
X378563Y256125D01*
X379187Y256437D01*
X380125D01*
X380750Y256125D01*
X374813Y254563D02*
X374187D01*
X373563Y254875D01*
X373250Y255500D01*
X373563Y256125D01*
X374187Y256437D01*
X374813D01*
X375437Y256125D01*
X375750Y255500D01*
X375437Y254875D01*
X374813Y254563D01*
X375437Y254250D01*
X375750Y253625D01*
X375437Y253000D01*
X374813Y252687D01*
X374187D01*
X373563Y253000D01*
X373250Y253625D01*
X373563Y254250D01*
X374187Y254563D01*
X385750Y293937D02*
Y295187D01*
X385437Y295813D01*
X385125Y296125D01*
X384500Y296437D01*
X383875D01*
X383250Y296125D01*
X382937Y295813D01*
X382625Y295187D01*
Y293937D01*
X382937Y293313D01*
X383250Y293000D01*
X383875Y292687D01*
X384500D01*
X385125Y293000D01*
X385437Y293313D01*
X385750Y293937D01*
X383563Y293625D02*
X382625Y292687D01*
X380437Y293000D02*
X379813Y292687D01*
X379187D01*
X378563Y293000D01*
X378250Y293625D01*
X378563Y294250D01*
X379187Y294563D01*
X379813D01*
X379187D02*
X378563Y294875D01*
X378250Y295500D01*
X378563Y296125D01*
X379187Y296437D01*
X379813D01*
X380437Y296125D01*
X374187Y292687D02*
Y296437D01*
X375750Y293937D01*
X373250D01*
X385750Y313937D02*
Y315187D01*
X385437Y315813D01*
X385125Y316125D01*
X384500Y316437D01*
X383875D01*
X383250Y316125D01*
X382937Y315813D01*
X382625Y315187D01*
Y313937D01*
X382937Y313313D01*
X383250Y313000D01*
X383875Y312687D01*
X384500D01*
X385125Y313000D01*
X385437Y313313D01*
X385750Y313937D01*
X383563Y313625D02*
X382625Y312687D01*
X380437Y313000D02*
X379813Y312687D01*
X379187D01*
X378563Y313000D01*
X378250Y313625D01*
X378563Y314250D01*
X379187Y314563D01*
X379813D01*
X379187D02*
X378563Y314875D01*
X378250Y315500D01*
X378563Y316125D01*
X379187Y316437D01*
X379813D01*
X380437Y316125D01*
X375750Y312687D02*
X373250Y316437D01*
X375750D01*
X390250Y57250D02*
X405250D01*
Y43250D01*
X390250D01*
Y57150D01*
Y77250D02*
X405250D01*
Y63250D01*
X390250D01*
Y77150D01*
Y97250D02*
X405250D01*
Y83250D01*
X390250D01*
Y97150D01*
Y117250D02*
X405250D01*
Y103250D01*
X390250D01*
Y117150D01*
Y137250D02*
X405250D01*
Y123250D01*
X390250D01*
Y137150D01*
Y157250D02*
X405250D01*
Y143250D01*
X390250D01*
Y157150D01*
Y177250D02*
X405250D01*
Y163250D01*
X390250D01*
Y177150D01*
Y197250D02*
X405250D01*
Y183250D01*
X390250D01*
Y197150D01*
Y232250D02*
X405250D01*
Y218250D01*
X390250D01*
Y232150D01*
Y252250D02*
X405250D01*
Y238250D01*
X390250D01*
Y252150D01*
Y272250D02*
X405250D01*
Y258250D01*
X390250D01*
Y272150D01*
Y292250D02*
X405250D01*
Y278250D01*
X390250D01*
Y292150D01*
Y312250D02*
X405250D01*
Y298250D01*
X390250D01*
Y312150D01*
Y332250D02*
X405250D01*
Y318250D01*
X390250D01*
Y332150D01*
Y352250D02*
X405250D01*
Y338250D01*
X390250D01*
Y352150D01*
Y372250D02*
X405250D01*
Y358250D01*
X390250D01*
Y372150D01*
X404750Y58187D02*
Y61937D01*
X402875D01*
X402250Y61625D01*
X401937Y61313D01*
X401625Y60687D01*
Y59437D01*
X401937Y58813D01*
X402250Y58500D01*
X402875Y58187D01*
X404750D01*
X399125D02*
X397875D01*
X398500D02*
Y61937D01*
X399125Y61313D01*
X404750Y78187D02*
Y81937D01*
X402875D01*
X402250Y81625D01*
X401937Y81313D01*
X401625Y80687D01*
Y79437D01*
X401937Y78813D01*
X402250Y78500D01*
X402875Y78187D01*
X404750D01*
X399750Y78500D02*
X399125Y78187D01*
X398187D01*
X397563Y78500D01*
X397250Y79125D01*
Y79437D01*
X397563Y80063D01*
X398187Y80375D01*
X399750D01*
Y81937D01*
X397250D01*
X404750Y98187D02*
Y101937D01*
X402875D01*
X402250Y101625D01*
X401937Y101313D01*
X401625Y100687D01*
Y99437D01*
X401937Y98813D01*
X402250Y98500D01*
X402875Y98187D01*
X404750D01*
X398813D02*
X398187Y98500D01*
X397563Y99125D01*
X397250Y100063D01*
Y101000D01*
X397563Y101625D01*
X398187Y101937D01*
X398813D01*
X399437Y101625D01*
X399750Y101000D01*
X399437Y100375D01*
X398813Y100063D01*
X398187D01*
X397563Y100375D01*
X397250Y101000D01*
X404750Y118187D02*
Y121937D01*
X402875D01*
X402250Y121625D01*
X401937Y121313D01*
X401625Y120687D01*
Y119437D01*
X401937Y118813D01*
X402250Y118500D01*
X402875Y118187D01*
X404750D01*
X399125D02*
X397875D01*
X398500D02*
Y121937D01*
X399125Y121313D01*
X394437Y118500D02*
X393813Y118187D01*
X393187D01*
X392563Y118500D01*
X392250Y119125D01*
X392563Y119750D01*
X393187Y120063D01*
X393813D01*
X393187D02*
X392563Y120375D01*
X392250Y121000D01*
X392563Y121625D01*
X393187Y121937D01*
X393813D01*
X394437Y121625D01*
X404750Y138187D02*
Y141937D01*
X402875D01*
X402250Y141625D01*
X401937Y141313D01*
X401625Y140687D01*
Y139437D01*
X401937Y138813D01*
X402250Y138500D01*
X402875Y138187D01*
X404750D01*
X399125D02*
X397875D01*
X398500D02*
Y141937D01*
X399125Y141313D01*
X394750Y138187D02*
X392250Y141937D01*
X394750D01*
X404750Y158187D02*
Y161937D01*
X402875D01*
X402250Y161625D01*
X401937Y161313D01*
X401625Y160687D01*
Y159437D01*
X401937Y158813D01*
X402250Y158500D01*
X402875Y158187D01*
X404750D01*
X397250D02*
X399750D01*
X397563Y160375D01*
X397250Y161000D01*
X397563Y161625D01*
X398187Y161937D01*
X399125D01*
X399750Y161625D01*
X394125Y158187D02*
X392875D01*
X393500D02*
Y161937D01*
X394125Y161313D01*
X404750Y178187D02*
Y181937D01*
X402875D01*
X402250Y181625D01*
X401937Y181313D01*
X401625Y180687D01*
Y179437D01*
X401937Y178813D01*
X402250Y178500D01*
X402875Y178187D01*
X404750D01*
X397250D02*
X399750D01*
X397563Y180375D01*
X397250Y181000D01*
X397563Y181625D01*
X398187Y181937D01*
X399125D01*
X399750Y181625D01*
X394750Y178500D02*
X394125Y178187D01*
X393187D01*
X392563Y178500D01*
X392250Y179125D01*
Y179437D01*
X392563Y180063D01*
X393187Y180375D01*
X394750D01*
Y181937D01*
X392250D01*
X404750Y198187D02*
Y201937D01*
X402875D01*
X402250Y201625D01*
X401937Y201313D01*
X401625Y200687D01*
Y199437D01*
X401937Y198813D01*
X402250Y198500D01*
X402875Y198187D01*
X404750D01*
X397250D02*
X399750D01*
X397563Y200375D01*
X397250Y201000D01*
X397563Y201625D01*
X398187Y201937D01*
X399125D01*
X399750Y201625D01*
X393813Y198187D02*
X393187Y198500D01*
X392563Y199125D01*
X392250Y200063D01*
Y201000D01*
X392563Y201625D01*
X393187Y201937D01*
X393813D01*
X394437Y201625D01*
X394750Y201000D01*
X394437Y200375D01*
X393813Y200063D01*
X393187D01*
X392563Y200375D01*
X392250Y201000D01*
X404750Y233187D02*
Y236937D01*
X402875D01*
X402250Y236625D01*
X401937Y236313D01*
X401625Y235687D01*
Y234437D01*
X401937Y233813D01*
X402250Y233500D01*
X402875Y233187D01*
X404750D01*
X399437Y233500D02*
X398813Y233187D01*
X398187D01*
X397563Y233500D01*
X397250Y234125D01*
X397563Y234750D01*
X398187Y235063D01*
X398813D01*
X398187D02*
X397563Y235375D01*
X397250Y236000D01*
X397563Y236625D01*
X398187Y236937D01*
X398813D01*
X399437Y236625D01*
X394437Y233500D02*
X393813Y233187D01*
X393187D01*
X392563Y233500D01*
X392250Y234125D01*
X392563Y234750D01*
X393187Y235063D01*
X393813D01*
X393187D02*
X392563Y235375D01*
X392250Y236000D01*
X392563Y236625D01*
X393187Y236937D01*
X393813D01*
X394437Y236625D01*
X404750Y253187D02*
Y256937D01*
X402875D01*
X402250Y256625D01*
X401937Y256313D01*
X401625Y255687D01*
Y254437D01*
X401937Y253813D01*
X402250Y253500D01*
X402875Y253187D01*
X404750D01*
X399437Y253500D02*
X398813Y253187D01*
X398187D01*
X397563Y253500D01*
X397250Y254125D01*
X397563Y254750D01*
X398187Y255063D01*
X398813D01*
X398187D02*
X397563Y255375D01*
X397250Y256000D01*
X397563Y256625D01*
X398187Y256937D01*
X398813D01*
X399437Y256625D01*
X394750Y253187D02*
X392250Y256937D01*
X394750D01*
X404750Y273187D02*
Y276937D01*
X402875D01*
X402250Y276625D01*
X401937Y276313D01*
X401625Y275687D01*
Y274437D01*
X401937Y273813D01*
X402250Y273500D01*
X402875Y273187D01*
X404750D01*
X398187D02*
Y276937D01*
X399750Y274437D01*
X397250D01*
X394125Y273187D02*
X392875D01*
X393500D02*
Y276937D01*
X394125Y276313D01*
X404750Y293187D02*
Y296937D01*
X402875D01*
X402250Y296625D01*
X401937Y296313D01*
X401625Y295687D01*
Y294437D01*
X401937Y293813D01*
X402250Y293500D01*
X402875Y293187D01*
X404750D01*
X398187D02*
Y296937D01*
X399750Y294437D01*
X397250D01*
X394750Y293500D02*
X394125Y293187D01*
X393187D01*
X392563Y293500D01*
X392250Y294125D01*
Y294437D01*
X392563Y295063D01*
X393187Y295375D01*
X394750D01*
Y296937D01*
X392250D01*
X404750Y313187D02*
Y316937D01*
X402875D01*
X402250Y316625D01*
X401937Y316313D01*
X401625Y315687D01*
Y314437D01*
X401937Y313813D01*
X402250Y313500D01*
X402875Y313187D01*
X404750D01*
X398187D02*
Y316937D01*
X399750Y314437D01*
X397250D01*
X393813Y313187D02*
X393187Y313500D01*
X392563Y314125D01*
X392250Y315063D01*
Y316000D01*
X392563Y316625D01*
X393187Y316937D01*
X393813D01*
X394437Y316625D01*
X394750Y316000D01*
X394437Y315375D01*
X393813Y315063D01*
X393187D01*
X392563Y315375D01*
X392250Y316000D01*
X404750Y333187D02*
Y336937D01*
X402875D01*
X402250Y336625D01*
X401937Y336313D01*
X401625Y335687D01*
Y334437D01*
X401937Y333813D01*
X402250Y333500D01*
X402875Y333187D01*
X404750D01*
X399750Y333500D02*
X399125Y333187D01*
X398187D01*
X397563Y333500D01*
X397250Y334125D01*
Y334437D01*
X397563Y335063D01*
X398187Y335375D01*
X399750D01*
Y336937D01*
X397250D01*
X394437Y333500D02*
X393813Y333187D01*
X393187D01*
X392563Y333500D01*
X392250Y334125D01*
X392563Y334750D01*
X393187Y335063D01*
X393813D01*
X393187D02*
X392563Y335375D01*
X392250Y336000D01*
X392563Y336625D01*
X393187Y336937D01*
X393813D01*
X394437Y336625D01*
X404750Y353187D02*
Y356937D01*
X402875D01*
X402250Y356625D01*
X401937Y356313D01*
X401625Y355687D01*
Y354437D01*
X401937Y353813D01*
X402250Y353500D01*
X402875Y353187D01*
X404750D01*
X399750Y353500D02*
X399125Y353187D01*
X398187D01*
X397563Y353500D01*
X397250Y354125D01*
Y354437D01*
X397563Y355063D01*
X398187Y355375D01*
X399750D01*
Y356937D01*
X397250D01*
X394750Y353187D02*
X392250Y356937D01*
X394750D01*
X404750Y373187D02*
Y376937D01*
X402875D01*
X402250Y376625D01*
X401937Y376313D01*
X401625Y375687D01*
Y374437D01*
X401937Y373813D01*
X402250Y373500D01*
X402875Y373187D01*
X404750D01*
X399750Y374125D02*
X399437Y374750D01*
X398813Y375063D01*
X398187D01*
X397563Y374750D01*
X397250Y374125D01*
X397563Y373500D01*
X398187Y373187D01*
X398813D01*
X399437Y373500D01*
X399750Y374125D01*
Y375063D01*
X399437Y376000D01*
X398813Y376625D01*
X398187Y376937D01*
X394125Y373187D02*
X392875D01*
X393500D02*
Y376937D01*
X394125Y376313D01*
X433750Y57687D02*
Y61437D01*
X431875D01*
X431250Y61125D01*
X430937Y60813D01*
X430625Y60187D01*
Y58937D01*
X430937Y58313D01*
X431250Y58000D01*
X431875Y57687D01*
X433750D01*
X426250D02*
X428750D01*
X426563Y59875D01*
X426250Y60500D01*
X426563Y61125D01*
X427187Y61437D01*
X428125D01*
X428750Y61125D01*
X433750Y77687D02*
Y81437D01*
X431875D01*
X431250Y81125D01*
X430937Y80813D01*
X430625Y80187D01*
Y78937D01*
X430937Y78313D01*
X431250Y78000D01*
X431875Y77687D01*
X433750D01*
X428750Y78625D02*
X428437Y79250D01*
X427813Y79563D01*
X427187D01*
X426563Y79250D01*
X426250Y78625D01*
X426563Y78000D01*
X427187Y77687D01*
X427813D01*
X428437Y78000D01*
X428750Y78625D01*
Y79563D01*
X428437Y80500D01*
X427813Y81125D01*
X427187Y81437D01*
X433750Y97687D02*
Y101437D01*
X431875D01*
X431250Y101125D01*
X430937Y100813D01*
X430625Y100187D01*
Y98937D01*
X430937Y98313D01*
X431250Y98000D01*
X431875Y97687D01*
X433750D01*
X428125D02*
X426875D01*
X427500D02*
Y101437D01*
X428125Y100813D01*
X423437Y98000D02*
X422813Y97687D01*
X422187D01*
X421563Y98000D01*
X421250Y98625D01*
Y100500D01*
X421563Y101125D01*
X422187Y101437D01*
X422813D01*
X423437Y101125D01*
X423750Y100500D01*
Y98625D01*
X423437Y98000D01*
X421563Y101125D01*
X433750Y117687D02*
Y121437D01*
X431875D01*
X431250Y121125D01*
X430937Y120813D01*
X430625Y120187D01*
Y118937D01*
X430937Y118313D01*
X431250Y118000D01*
X431875Y117687D01*
X433750D01*
X428125D02*
X426875D01*
X427500D02*
Y121437D01*
X428125Y120813D01*
X422187Y117687D02*
Y121437D01*
X423750Y118937D01*
X421250D01*
X433750Y137687D02*
Y141437D01*
X431875D01*
X431250Y141125D01*
X430937Y140813D01*
X430625Y140187D01*
Y138937D01*
X430937Y138313D01*
X431250Y138000D01*
X431875Y137687D01*
X433750D01*
X428125D02*
X426875D01*
X427500D02*
Y141437D01*
X428125Y140813D01*
X422813Y139563D02*
X422187D01*
X421563Y139875D01*
X421250Y140500D01*
X421563Y141125D01*
X422187Y141437D01*
X422813D01*
X423437Y141125D01*
X423750Y140500D01*
X423437Y139875D01*
X422813Y139563D01*
X423437Y139250D01*
X423750Y138625D01*
X423437Y138000D01*
X422813Y137687D01*
X422187D01*
X421563Y138000D01*
X421250Y138625D01*
X421563Y139250D01*
X422187Y139563D01*
X433750Y157687D02*
Y161437D01*
X431875D01*
X431250Y161125D01*
X430937Y160813D01*
X430625Y160187D01*
Y158937D01*
X430937Y158313D01*
X431250Y158000D01*
X431875Y157687D01*
X433750D01*
X426250D02*
X428750D01*
X426563Y159875D01*
X426250Y160500D01*
X426563Y161125D01*
X427187Y161437D01*
X428125D01*
X428750Y161125D01*
X421250Y157687D02*
X423750D01*
X421563Y159875D01*
X421250Y160500D01*
X421563Y161125D01*
X422187Y161437D01*
X423125D01*
X423750Y161125D01*
X433750Y177687D02*
Y181437D01*
X431875D01*
X431250Y181125D01*
X430937Y180813D01*
X430625Y180187D01*
Y178937D01*
X430937Y178313D01*
X431250Y178000D01*
X431875Y177687D01*
X433750D01*
X426250D02*
X428750D01*
X426563Y179875D01*
X426250Y180500D01*
X426563Y181125D01*
X427187Y181437D01*
X428125D01*
X428750Y181125D01*
X423750Y178625D02*
X423437Y179250D01*
X422813Y179563D01*
X422187D01*
X421563Y179250D01*
X421250Y178625D01*
X421563Y178000D01*
X422187Y177687D01*
X422813D01*
X423437Y178000D01*
X423750Y178625D01*
Y179563D01*
X423437Y180500D01*
X422813Y181125D01*
X422187Y181437D01*
X433750Y197687D02*
Y201437D01*
X431875D01*
X431250Y201125D01*
X430937Y200813D01*
X430625Y200187D01*
Y198937D01*
X430937Y198313D01*
X431250Y198000D01*
X431875Y197687D01*
X433750D01*
X428437Y198000D02*
X427813Y197687D01*
X427187D01*
X426563Y198000D01*
X426250Y198625D01*
X426563Y199250D01*
X427187Y199563D01*
X427813D01*
X427187D02*
X426563Y199875D01*
X426250Y200500D01*
X426563Y201125D01*
X427187Y201437D01*
X427813D01*
X428437Y201125D01*
X423437Y198000D02*
X422813Y197687D01*
X422187D01*
X421563Y198000D01*
X421250Y198625D01*
Y200500D01*
X421563Y201125D01*
X422187Y201437D01*
X422813D01*
X423437Y201125D01*
X423750Y200500D01*
Y198625D01*
X423437Y198000D01*
X421563Y201125D01*
X433750Y232687D02*
Y236437D01*
X431875D01*
X431250Y236125D01*
X430937Y235813D01*
X430625Y235187D01*
Y233937D01*
X430937Y233313D01*
X431250Y233000D01*
X431875Y232687D01*
X433750D01*
X428437Y233000D02*
X427813Y232687D01*
X427187D01*
X426563Y233000D01*
X426250Y233625D01*
X426563Y234250D01*
X427187Y234563D01*
X427813D01*
X427187D02*
X426563Y234875D01*
X426250Y235500D01*
X426563Y236125D01*
X427187Y236437D01*
X427813D01*
X428437Y236125D01*
X422187Y232687D02*
Y236437D01*
X423750Y233937D01*
X421250D01*
X433750Y252687D02*
Y256437D01*
X431875D01*
X431250Y256125D01*
X430937Y255813D01*
X430625Y255187D01*
Y253937D01*
X430937Y253313D01*
X431250Y253000D01*
X431875Y252687D01*
X433750D01*
X428437Y253000D02*
X427813Y252687D01*
X427187D01*
X426563Y253000D01*
X426250Y253625D01*
X426563Y254250D01*
X427187Y254563D01*
X427813D01*
X427187D02*
X426563Y254875D01*
X426250Y255500D01*
X426563Y256125D01*
X427187Y256437D01*
X427813D01*
X428437Y256125D01*
X422813Y254563D02*
X422187D01*
X421563Y254875D01*
X421250Y255500D01*
X421563Y256125D01*
X422187Y256437D01*
X422813D01*
X423437Y256125D01*
X423750Y255500D01*
X423437Y254875D01*
X422813Y254563D01*
X423437Y254250D01*
X423750Y253625D01*
X423437Y253000D01*
X422813Y252687D01*
X422187D01*
X421563Y253000D01*
X421250Y253625D01*
X421563Y254250D01*
X422187Y254563D01*
X433750Y272687D02*
Y276437D01*
X431875D01*
X431250Y276125D01*
X430937Y275813D01*
X430625Y275187D01*
Y273937D01*
X430937Y273313D01*
X431250Y273000D01*
X431875Y272687D01*
X433750D01*
X427187D02*
Y276437D01*
X428750Y273937D01*
X426250D01*
X421250Y272687D02*
X423750D01*
X421563Y274875D01*
X421250Y275500D01*
X421563Y276125D01*
X422187Y276437D01*
X423125D01*
X423750Y276125D01*
X433750Y292687D02*
Y296437D01*
X431875D01*
X431250Y296125D01*
X430937Y295813D01*
X430625Y295187D01*
Y293937D01*
X430937Y293313D01*
X431250Y293000D01*
X431875Y292687D01*
X433750D01*
X427187D02*
Y296437D01*
X428750Y293937D01*
X426250D01*
X423750Y293625D02*
X423437Y294250D01*
X422813Y294563D01*
X422187D01*
X421563Y294250D01*
X421250Y293625D01*
X421563Y293000D01*
X422187Y292687D01*
X422813D01*
X423437Y293000D01*
X423750Y293625D01*
Y294563D01*
X423437Y295500D01*
X422813Y296125D01*
X422187Y296437D01*
X433750Y312687D02*
Y316437D01*
X431875D01*
X431250Y316125D01*
X430937Y315813D01*
X430625Y315187D01*
Y313937D01*
X430937Y313313D01*
X431250Y313000D01*
X431875Y312687D01*
X433750D01*
X428750Y313000D02*
X428125Y312687D01*
X427187D01*
X426563Y313000D01*
X426250Y313625D01*
Y313937D01*
X426563Y314563D01*
X427187Y314875D01*
X428750D01*
Y316437D01*
X426250D01*
X423437Y313000D02*
X422813Y312687D01*
X422187D01*
X421563Y313000D01*
X421250Y313625D01*
Y315500D01*
X421563Y316125D01*
X422187Y316437D01*
X422813D01*
X423437Y316125D01*
X423750Y315500D01*
Y313625D01*
X423437Y313000D01*
X421563Y316125D01*
X433750Y332687D02*
Y336437D01*
X431875D01*
X431250Y336125D01*
X430937Y335813D01*
X430625Y335187D01*
Y333937D01*
X430937Y333313D01*
X431250Y333000D01*
X431875Y332687D01*
X433750D01*
X428750Y333000D02*
X428125Y332687D01*
X427187D01*
X426563Y333000D01*
X426250Y333625D01*
Y333937D01*
X426563Y334563D01*
X427187Y334875D01*
X428750D01*
Y336437D01*
X426250D01*
X422187Y332687D02*
Y336437D01*
X423750Y333937D01*
X421250D01*
X433750Y352687D02*
Y356437D01*
X431875D01*
X431250Y356125D01*
X430937Y355813D01*
X430625Y355187D01*
Y353937D01*
X430937Y353313D01*
X431250Y353000D01*
X431875Y352687D01*
X433750D01*
X428750Y353000D02*
X428125Y352687D01*
X427187D01*
X426563Y353000D01*
X426250Y353625D01*
Y353937D01*
X426563Y354563D01*
X427187Y354875D01*
X428750D01*
Y356437D01*
X426250D01*
X422813Y354563D02*
X422187D01*
X421563Y354875D01*
X421250Y355500D01*
X421563Y356125D01*
X422187Y356437D01*
X422813D01*
X423437Y356125D01*
X423750Y355500D01*
X423437Y354875D01*
X422813Y354563D01*
X423437Y354250D01*
X423750Y353625D01*
X423437Y353000D01*
X422813Y352687D01*
X422187D01*
X421563Y353000D01*
X421250Y353625D01*
X421563Y354250D01*
X422187Y354563D01*
X433750Y372687D02*
Y376437D01*
X431875D01*
X431250Y376125D01*
X430937Y375813D01*
X430625Y375187D01*
Y373937D01*
X430937Y373313D01*
X431250Y373000D01*
X431875Y372687D01*
X433750D01*
X428750Y373625D02*
X428437Y374250D01*
X427813Y374563D01*
X427187D01*
X426563Y374250D01*
X426250Y373625D01*
X426563Y373000D01*
X427187Y372687D01*
X427813D01*
X428437Y373000D01*
X428750Y373625D01*
Y374563D01*
X428437Y375500D01*
X427813Y376125D01*
X427187Y376437D01*
X421250Y372687D02*
X423750D01*
X421563Y374875D01*
X421250Y375500D01*
X421563Y376125D01*
X422187Y376437D01*
X423125D01*
X423750Y376125D01*
X0Y0D02*
M02*
