G04 Easy-PC Gerber Version 25.0 Build 5877*
G04 #@! TF.Part,Single*
G04 #@! TF.FileFunction,Copper,L1,Top*
G04 #@! TF.FilePolarity,Positive*
%FSLAX35Y35*%
%MOIN*%
G04 #@! TA.AperFunction,SMDPad,CuDef*
%ADD73R,0.04000X0.04400*%
%ADD29R,0.04500X0.04500*%
%ADD106R,0.06300X0.06300*%
G04 #@! TA.AperFunction,ComponentPad*
%ADD74R,0.07677X0.07677*%
G04 #@! TD.AperFunction*
%ADD23C,0.01500*%
%ADD100C,0.02000*%
%ADD25C,0.02500*%
%ADD99C,0.04000*%
G04 #@! TA.AperFunction,ViaPad*
%ADD24C,0.04800*%
G04 #@! TD.AperFunction*
%ADD26C,0.05000*%
G04 #@! TA.AperFunction,ComponentPad*
%ADD107C,0.05500*%
G04 #@! TA.AperFunction,ViaPad*
%ADD27C,0.05600*%
G04 #@! TA.AperFunction,ComponentPad*
%ADD76C,0.06319*%
G04 #@! TA.AperFunction,SMDPad,CuDef*
%ADD105R,0.06102X0.02756*%
%ADD91R,0.04291X0.03937*%
%ADD72R,0.04800X0.04000*%
G04 #@! TA.AperFunction,ComponentPad*
%ADD75C,0.07677*%
G04 #@! TA.AperFunction,SMDPad,CuDef*
%ADD90R,0.07874X0.06102*%
G04 #@! TA.AperFunction,WasherPad*
%ADD104C,0.09600*%
G04 #@! TA.AperFunction,ViaPad*
%ADD98C,0.10000*%
G04 #@! TD.AperFunction*
%ADD101C,0.15000*%
G04 #@! TA.AperFunction,WasherPad*
%ADD102C,0.26000*%
%ADD103R,0.46000X0.18000*%
G04 #@! TD.AperFunction*
X0Y0D02*
D02*
D23*
X95703Y50250D02*
X114600D01*
X95703Y70250D02*
X114600D01*
X95703Y90250D02*
X114600D01*
X95703Y110250D02*
X114600D01*
X95703Y130250D02*
X114600D01*
X95703Y150250D02*
X114600D01*
X95703Y170250D02*
X114600D01*
X95703Y190250D02*
X114600D01*
X95703Y225250D02*
X114600D01*
X95703Y245250D02*
X114600D01*
X95703Y265250D02*
X114600D01*
X95703Y285250D02*
X114600D01*
X95703Y305250D02*
X114600D01*
X95703Y325250D02*
X114600D01*
X95703Y345250D02*
X114600D01*
X95703Y365250D02*
X114600D01*
X120900Y50250D02*
X148350D01*
X120900Y70250D02*
X148350D01*
X120900Y90250D02*
X148350D01*
X120900Y110250D02*
X148350D01*
X120900Y130250D02*
X148350D01*
X120900Y150250D02*
X148350D01*
X120900Y170250D02*
X148350D01*
X120900Y190250D02*
X148350D01*
X120900Y225250D02*
X148350D01*
X120900Y245250D02*
X148350D01*
X120900Y265250D02*
X148350D01*
X120900Y285250D02*
X148350D01*
X120900Y305250D02*
X148350D01*
X120900Y325250D02*
X148350D01*
X120900Y345250D02*
X148350D01*
X120900Y365250D02*
X148350D01*
X222750Y92750D02*
X195250D01*
X172750Y70250D01*
Y55250D01*
X162750Y45250D01*
X158050D01*
X157050Y46250D01*
X222750Y102750D02*
X180250D01*
X165250Y87750D01*
X158550D01*
X157050Y86250D01*
X222750Y112750D02*
X220250D01*
X207750Y125250D01*
X158050D01*
X157050Y126250D01*
X222750Y122750D02*
X220250D01*
X177750Y165250D01*
X158050D01*
X157050Y166250D01*
X222750Y267750D02*
X195250D01*
X172750Y245250D01*
Y230250D01*
X162750Y220250D01*
X158050D01*
X157050Y221250D01*
X222750Y277750D02*
X180250D01*
X165250Y262750D01*
X158550D01*
X157050Y261250D01*
X222750Y287750D02*
X220250D01*
X207750Y300250D01*
X158050D01*
X157050Y301250D01*
X222750Y297750D02*
X220250D01*
X177750Y340250D01*
X158050D01*
X157050Y341250D01*
X224250Y255250D02*
X221250D01*
X217750Y258750D01*
X227750Y97750D02*
X195250D01*
X162750Y65250D01*
X158050D01*
X157050Y66250D01*
X227750Y107750D02*
X158550D01*
X157050Y106250D01*
X227750Y117750D02*
X220250D01*
X192750Y145250D01*
X158050D01*
X157050Y146250D01*
X227750Y127750D02*
X220250D01*
X162750Y185250D01*
X158050D01*
X157050Y186250D01*
X227750Y272750D02*
X195250D01*
X162750Y240250D01*
X158050D01*
X157050Y241250D01*
X227750Y282750D02*
X158550D01*
X157050Y281250D01*
X227750Y292750D02*
X220250D01*
X192750Y320250D01*
X158050D01*
X157050Y321250D01*
X227750Y302750D02*
X220250D01*
X162750Y360250D01*
X158050D01*
X157050Y361250D01*
X231250Y255250D02*
X241750D01*
X243750Y257250D01*
X255250Y325250D02*
X272100D01*
X262750Y137750D02*
Y135250D01*
X260250Y132750D01*
Y112750D01*
X265250Y107750D01*
X262750Y257750D02*
Y280250D01*
X260250Y282750D01*
Y304250D01*
X262750Y306750D01*
X270250Y330250D02*
Y327100D01*
X272100Y325250D01*
X280250Y102750D02*
X242750D01*
X232750Y92750D01*
X222750D01*
X280250Y330250D02*
X278400Y328400D01*
Y325250D01*
X283550Y87750D02*
X290250D01*
X285250Y127750D02*
X265250D01*
X285250Y302750D02*
X276500D01*
X274000Y300250D01*
X265250D01*
X287750Y117750D02*
X265250D01*
X287750Y292750D02*
X265250D01*
X292750Y105250D02*
X295250Y107750D01*
X307022D01*
X292750Y325250D02*
X278400D01*
X294250Y152750D02*
Y145250D01*
X300250Y127750D02*
X285250D01*
X300250Y302750D02*
X285250D01*
X307022Y102750D02*
X310250D01*
X342750Y70250D01*
Y57750D01*
X346250Y54250D01*
X307022Y112750D02*
X315250D01*
X317750Y115250D01*
Y125250D01*
X307022Y117750D02*
X287750D01*
X307022Y122750D02*
X282750D01*
X307022Y127750D02*
X300250D01*
X307022Y132750D02*
X307386D01*
X312386Y137750D01*
X312750D01*
X307022Y277750D02*
X310250D01*
X342750Y245250D01*
Y231750D01*
X345250Y229250D01*
X355250D01*
X307022Y282750D02*
X315250D01*
X307022Y287750D02*
X312750D01*
X317750Y292750D01*
Y310250D01*
X322750Y315250D01*
X307022Y292750D02*
X287750D01*
X307022Y297750D02*
X282750D01*
X307022Y302750D02*
X300250D01*
X307022Y307750D02*
X292750D01*
X317750Y125250D02*
X320250Y127750D01*
Y137750D01*
X322750Y140250D01*
X317750Y135250D02*
Y145250D01*
Y135250D02*
Y125250D01*
X322750Y140250D02*
X317750Y135250D01*
X343750Y94250D02*
X335250Y102750D01*
X328478D01*
X343750Y269250D02*
X335250Y277750D01*
X328478D01*
X346250Y74250D02*
X332750Y87750D01*
Y93478D01*
X328478Y97750D01*
X346250Y249250D02*
X332750Y262750D01*
Y268478D01*
X328478Y272750D01*
X349250Y114250D02*
X342750Y107750D01*
X328478D01*
X349250Y289250D02*
X342750Y282750D01*
X328478D01*
X351750Y134250D02*
X345250Y127750D01*
Y117750D01*
X340250Y112750D01*
X328478D01*
X352750Y309250D02*
X349250D01*
X345250Y305250D01*
Y292750D01*
X340250Y287750D01*
X328478D01*
X354250Y174250D02*
X346750D01*
X340250Y167750D01*
Y125250D01*
X337750Y122750D01*
X328478D01*
X355250Y154250D02*
X349250D01*
X342750Y147750D01*
Y120250D01*
X340250Y117750D01*
X328478D01*
X355250Y194250D02*
X349250D01*
X337750Y182750D01*
Y130250D01*
X335250Y127750D01*
X328478D01*
X355250Y329250D02*
X349250D01*
X342750Y322750D01*
Y295250D01*
X340250Y292750D01*
X328478D01*
X355250Y349250D02*
X346750D01*
X340250Y342750D01*
Y300250D01*
X337750Y297750D01*
X328478D01*
X355250Y369250D02*
X346750D01*
X337750Y360250D01*
Y305250D01*
X335250Y302750D01*
X328478D01*
X379450Y47750D02*
X380950Y46250D01*
X379450Y67750D02*
X380950Y66250D01*
X379450Y87750D02*
X380950Y86250D01*
X379450Y107750D02*
X380950Y106250D01*
X379450Y127750D02*
X380950Y126250D01*
X379450Y147750D02*
X380950Y146250D01*
X379450Y167750D02*
X380950Y166250D01*
X379450Y222750D02*
X380950Y221250D01*
X379450Y242750D02*
X380950Y241250D01*
X379450Y262750D02*
X380950Y261250D01*
X379450Y282750D02*
X380950Y281250D01*
X379450Y302750D02*
X380950Y301250D01*
X379450Y322750D02*
X380950Y321250D01*
X379450Y342750D02*
X380950Y341250D01*
X379950Y187750D02*
X381450Y186250D01*
X379950Y362750D02*
X381450Y361250D01*
D02*
D24*
X152750Y60250D03*
Y80250D03*
Y100250D03*
Y120250D03*
Y140250D03*
Y160250D03*
Y180250D03*
Y234750D03*
Y254750D03*
Y274750D03*
Y294750D03*
Y314750D03*
Y334750D03*
Y354750D03*
X217750Y85250D03*
Y258750D03*
X222750Y92750D03*
Y102750D03*
Y112750D03*
Y122750D03*
Y267750D03*
Y277750D03*
Y287750D03*
Y297750D03*
X227750Y97750D03*
Y107750D03*
Y117750D03*
Y127750D03*
Y272750D03*
Y282750D03*
Y292750D03*
Y302750D03*
X243750Y257250D03*
X255250Y325250D03*
X262750Y137750D03*
Y257750D03*
Y306750D03*
X265250Y107750D03*
Y117750D03*
Y127750D03*
Y292750D03*
Y300250D03*
X270250Y330250D03*
X280250Y102750D03*
Y330250D03*
X282750Y122750D03*
Y297750D03*
X287750Y117750D03*
Y292750D03*
X292750Y105250D03*
Y307750D03*
Y325250D03*
X300250Y127750D03*
Y302750D03*
X305250Y327750D03*
X307022Y152750D03*
X312750Y137750D03*
X315250Y282750D03*
X347750Y207750D03*
X367750Y120250D03*
Y140250D03*
Y160250D03*
Y180250D03*
Y235250D03*
Y255250D03*
Y275250D03*
Y295250D03*
Y315250D03*
Y335250D03*
Y355250D03*
X370250Y40250D03*
Y60250D03*
Y80250D03*
Y100250D03*
Y215250D03*
D02*
D25*
X89797Y50250D02*
Y45250D01*
X90250D01*
X92750Y42750D01*
X107750D01*
X110250Y40250D01*
X89797Y190250D02*
Y50250D01*
Y210250D02*
Y190250D01*
Y225250D02*
Y210250D01*
Y365250D02*
Y225250D01*
X113550Y210250D02*
X89797D01*
X126950D02*
X143250D01*
X152750Y200750D01*
X157050Y54250D02*
Y55950D01*
X152750Y60250D01*
X157050Y74250D02*
Y75950D01*
X152750Y80250D01*
X157050Y94250D02*
Y95950D01*
X152750Y100250D01*
X157050Y114250D02*
Y115950D01*
X152750Y120250D01*
X157050Y134250D02*
Y135950D01*
X152750Y140250D01*
X157050Y154250D02*
Y155950D01*
X152750Y160250D01*
X157050Y174250D02*
Y175950D01*
X152750Y180250D01*
X157050Y194250D02*
Y196450D01*
X152750Y200750D01*
X157050Y229250D02*
Y230450D01*
X152750Y234750D01*
X157050Y249250D02*
Y250450D01*
X152750Y254750D01*
X157050Y269250D02*
Y270450D01*
X152750Y274750D01*
X157050Y289250D02*
Y290450D01*
X152750Y294750D01*
X157050Y309250D02*
Y310450D01*
X152750Y314750D01*
X157050Y329250D02*
Y330450D01*
X152750Y334750D01*
X157050Y349250D02*
Y350450D01*
X152750Y354750D01*
X157050Y369250D02*
Y371450D01*
X152750Y375750D01*
X226750Y85250D02*
X217750D01*
X233750D02*
X242750D01*
X245250Y82750D01*
X260250D01*
X275250Y97750D01*
X250250Y145250D02*
X245250Y140250D01*
Y132750D01*
X250250Y317750D02*
X245250Y312750D01*
Y307750D01*
X268750Y266250D02*
X276250D01*
X282750Y272750D01*
X290250D01*
X302750D01*
X275250Y97750D02*
X272750D01*
Y90250D01*
X275250Y97750D02*
X290250D01*
X285250Y52750D02*
X290250Y57750D01*
Y70250D02*
Y87750D01*
Y97750D01*
X296950Y87750D02*
Y76050D01*
X305250Y67750D01*
Y62750D01*
X301250Y152750D02*
X307022D01*
X302750Y272750D02*
Y270250D01*
X305250Y267750D01*
X305950Y171250D02*
X299250D01*
X295250Y175250D01*
X281018D01*
X305950Y191250D02*
X299250D01*
X295250Y195250D01*
X281018D01*
X305950Y211250D02*
X299250D01*
X295250Y215250D01*
X281018D01*
X305950Y231250D02*
X299250D01*
X295250Y235250D01*
X281018D01*
X307022Y97750D02*
Y92750D01*
Y97750D02*
X290250D01*
X307022Y272750D02*
X302750D01*
X311750Y325250D02*
X307750D01*
X305250Y327750D01*
X314650Y175250D02*
X320250D01*
Y195250D01*
X318750Y325250D02*
Y319250D01*
X322750Y315250D01*
X320250Y195250D02*
X314650D01*
X320250D02*
Y200250D01*
X326950D01*
X327750Y201050D01*
X320250Y200250D02*
Y215250D01*
X314650D01*
X320250D02*
Y235250D01*
X314650D01*
X322750Y140250D02*
Y142750D01*
X320250Y145250D01*
X322750Y315250D02*
X320250Y317750D01*
X328478Y132750D02*
Y134522D01*
X322750Y140250D01*
X328478Y307750D02*
Y309522D01*
X322750Y315250D01*
X347750Y207750D02*
X341050Y214450D01*
X327750D01*
X352100Y47750D02*
Y40900D01*
X352750Y40250D01*
X352100Y222750D02*
Y215900D01*
X352750Y215250D01*
Y60250D02*
X352100Y60900D01*
Y67750D01*
X352750Y80250D02*
X352100Y80900D01*
Y87750D01*
X352750Y100250D02*
X352100Y100900D01*
Y107750D01*
X352750Y120250D02*
X352100Y120900D01*
Y127750D01*
X352750Y140250D02*
X352100Y140900D01*
Y147750D01*
X352750Y160250D02*
X352100Y160900D01*
Y167750D01*
X352750Y180250D02*
X352100Y180900D01*
Y187750D01*
X352750Y235250D02*
X352100Y235900D01*
Y242750D01*
X352750Y255250D02*
X352100Y255900D01*
Y262750D01*
X352750Y275250D02*
X352100Y275900D01*
Y282750D01*
X352750Y295250D02*
X352100Y295900D01*
Y302750D01*
X352750Y315250D02*
X352100Y315900D01*
Y322750D01*
X352750Y335250D02*
X352100Y335900D01*
Y342750D01*
X352750Y355250D02*
X352100Y355900D01*
Y362750D01*
X357750Y200250D02*
X328550D01*
X327750Y201050D01*
X410703Y50250D02*
Y45703D01*
X405250Y40250D01*
X370250D01*
X410703Y70250D02*
Y65703D01*
X405250Y60250D01*
X370250D01*
X410703Y90250D02*
Y85703D01*
X405250Y80250D01*
X370250D01*
X410703Y110250D02*
Y105703D01*
X405250Y100250D01*
X370250D01*
X410703Y130250D02*
Y123203D01*
X407750Y120250D01*
X367750D01*
X410703Y150250D02*
Y145703D01*
X405250Y140250D01*
X367750D01*
X410703Y170250D02*
Y163203D01*
X407750Y160250D01*
X367750D01*
X410703Y190250D02*
Y185703D01*
X405250Y180250D01*
X367750D01*
X410703Y225250D02*
Y220703D01*
X405250Y215250D01*
X370250D01*
X410703Y245250D02*
Y240703D01*
X405250Y235250D01*
X367750D01*
X410703Y265250D02*
Y260703D01*
X405250Y255250D01*
X367750D01*
X410703Y285250D02*
Y280703D01*
X405250Y275250D01*
X367750D01*
X410703Y305250D02*
Y298203D01*
X407750Y295250D01*
X367750D01*
X410703Y325250D02*
Y320703D01*
X405250Y315250D01*
X367750D01*
X410703Y345250D02*
Y338203D01*
X407750Y335250D01*
X367750D01*
X410703Y365250D02*
Y360703D01*
X405250Y355250D01*
X367750D01*
D02*
D26*
X110250Y40250D02*
X147750D01*
X150250Y37750D01*
X287750D01*
X295250Y45250D01*
Y62750D01*
X255250Y52750D02*
Y70250D01*
X235250D01*
Y52750D01*
X292750Y362750D02*
Y367750D01*
X287750Y372750D01*
X170250D01*
X160250Y382750D01*
X147750D01*
X142750Y377750D01*
X122750D01*
X117750Y372750D01*
X92750D01*
X90250Y370250D01*
Y365703D01*
X89797Y365250D01*
X294250Y145250D02*
X250250D01*
X315250Y47750D02*
Y70250D01*
X307022Y78478D01*
Y92750D01*
X317750Y145250D02*
X294250D01*
X320250D02*
X317750D01*
X320250Y317750D02*
X250250D01*
X381050Y207750D02*
X347750D01*
X394450D02*
X425250D01*
D02*
D27*
X152750Y200750D03*
Y375750D03*
X245250Y82750D03*
Y132750D03*
Y307750D03*
X252750Y342750D03*
X268750Y266250D03*
X272750Y90250D03*
X305250Y267750D03*
X307022Y92750D03*
X315250Y47750D03*
X322750Y140250D03*
Y315250D03*
Y342750D03*
X352750Y40250D03*
Y60250D03*
Y80250D03*
Y100250D03*
Y120250D03*
Y140250D03*
Y160250D03*
Y180250D03*
Y215250D03*
Y235250D03*
Y255250D03*
Y275250D03*
Y295250D03*
Y315250D03*
Y335250D03*
Y355250D03*
X357750Y200250D03*
X425250Y207750D03*
D02*
D29*
X89797Y50250D03*
Y70250D03*
Y90250D03*
Y110250D03*
Y130250D03*
Y150250D03*
Y170250D03*
Y190250D03*
Y225250D03*
Y245250D03*
Y265250D03*
Y285250D03*
Y305250D03*
Y325250D03*
Y345250D03*
Y365250D03*
X95703Y50250D03*
Y70250D03*
Y90250D03*
Y110250D03*
Y130250D03*
Y150250D03*
Y170250D03*
Y190250D03*
Y225250D03*
Y245250D03*
Y265250D03*
Y285250D03*
Y305250D03*
Y325250D03*
Y345250D03*
Y365250D03*
X404797Y50250D03*
Y70250D03*
Y90250D03*
Y110250D03*
Y130250D03*
Y150250D03*
Y170250D03*
Y190250D03*
Y225250D03*
Y245250D03*
Y265250D03*
Y285250D03*
Y305250D03*
Y325250D03*
Y345250D03*
Y365250D03*
X410703Y50250D03*
Y70250D03*
Y90250D03*
Y110250D03*
Y130250D03*
Y150250D03*
Y170250D03*
Y190250D03*
Y225250D03*
Y245250D03*
Y265250D03*
Y285250D03*
Y305250D03*
Y325250D03*
Y345250D03*
Y365250D03*
D02*
D72*
X148350Y50250D03*
Y70250D03*
Y90250D03*
Y110250D03*
Y130250D03*
Y150250D03*
Y170250D03*
Y190250D03*
Y225250D03*
Y245250D03*
Y265250D03*
Y285250D03*
Y305250D03*
Y325250D03*
Y345250D03*
Y365250D03*
X157050Y46250D03*
Y54250D03*
Y66250D03*
Y74250D03*
Y86250D03*
Y94250D03*
Y106250D03*
Y114250D03*
Y126250D03*
Y134250D03*
Y146250D03*
Y154250D03*
Y166250D03*
Y174250D03*
Y186250D03*
Y194250D03*
Y221250D03*
Y229250D03*
Y241250D03*
Y249250D03*
Y261250D03*
Y269250D03*
Y281250D03*
Y289250D03*
Y301250D03*
Y309250D03*
Y321250D03*
Y329250D03*
Y341250D03*
Y349250D03*
Y361250D03*
Y369250D03*
X305950Y171250D03*
Y179250D03*
Y191250D03*
Y199250D03*
Y211250D03*
Y219250D03*
Y231250D03*
Y239250D03*
X314650Y175250D03*
Y195250D03*
Y215250D03*
Y235250D03*
X380950Y46250D03*
Y54250D03*
Y66250D03*
Y74250D03*
Y86250D03*
Y94250D03*
Y106250D03*
Y114250D03*
Y126250D03*
Y134250D03*
Y146250D03*
Y154250D03*
Y166250D03*
Y174250D03*
Y221250D03*
Y229250D03*
Y241250D03*
Y249250D03*
Y261250D03*
Y269250D03*
Y281250D03*
Y289250D03*
Y301250D03*
Y309250D03*
Y321250D03*
Y329250D03*
Y341250D03*
Y349250D03*
X381450Y186250D03*
Y194250D03*
Y361250D03*
Y369250D03*
X389650Y50250D03*
Y70250D03*
Y90250D03*
Y110250D03*
Y130250D03*
Y150250D03*
Y170250D03*
Y225250D03*
Y245250D03*
Y265250D03*
Y285250D03*
Y305250D03*
Y325250D03*
Y345250D03*
X390150Y190250D03*
Y365250D03*
D02*
D73*
X114600Y50250D03*
Y70250D03*
Y90250D03*
Y110250D03*
Y130250D03*
Y150250D03*
Y170250D03*
Y190250D03*
Y225250D03*
Y245250D03*
Y265250D03*
Y285250D03*
Y305250D03*
Y325250D03*
Y345250D03*
Y365250D03*
X120900Y50250D03*
Y70250D03*
Y90250D03*
Y110250D03*
Y130250D03*
Y150250D03*
Y170250D03*
Y190250D03*
Y225250D03*
Y245250D03*
Y265250D03*
Y285250D03*
Y305250D03*
Y325250D03*
Y345250D03*
Y365250D03*
X272100Y325250D03*
X278400D03*
X352100Y47750D03*
Y67750D03*
Y87750D03*
Y107750D03*
Y127750D03*
Y147750D03*
Y167750D03*
Y187750D03*
Y222750D03*
Y242750D03*
Y262750D03*
Y282750D03*
Y302750D03*
Y322750D03*
Y342750D03*
Y362750D03*
X358400Y47750D03*
Y67750D03*
Y87750D03*
Y107750D03*
Y127750D03*
Y147750D03*
Y167750D03*
Y187750D03*
Y222750D03*
Y242750D03*
Y262750D03*
Y282750D03*
Y302750D03*
Y322750D03*
Y342750D03*
Y362750D03*
D02*
D74*
X55250Y50250D03*
Y225250D03*
X467750Y50250D03*
Y225250D03*
D02*
D75*
X55250Y69935D03*
Y89620D03*
Y109305D03*
Y128990D03*
Y148675D03*
Y168360D03*
Y188045D03*
Y244935D03*
Y264620D03*
Y284305D03*
Y303990D03*
Y323675D03*
Y343360D03*
Y363045D03*
X467750Y69935D03*
Y89620D03*
Y109305D03*
Y128990D03*
Y148675D03*
Y168360D03*
Y188045D03*
Y244935D03*
Y264620D03*
Y284305D03*
Y303990D03*
Y323675D03*
Y343360D03*
Y363045D03*
D02*
D76*
X232750Y352750D03*
Y362750D03*
X235250Y52750D03*
Y62750D03*
X242750Y352750D03*
Y362750D03*
X245250Y52750D03*
Y62750D03*
X252750Y352750D03*
Y362750D03*
X255250Y52750D03*
Y62750D03*
X262750Y352750D03*
Y362750D03*
X265250Y52750D03*
Y62750D03*
X272750Y352750D03*
Y362750D03*
X275250Y52750D03*
Y62750D03*
X282750Y352750D03*
Y362750D03*
X285250Y52750D03*
Y62750D03*
X292750Y352750D03*
Y362750D03*
X295250Y52750D03*
Y62750D03*
X302750Y352750D03*
Y362750D03*
X305250Y52750D03*
Y62750D03*
D02*
D90*
X264482Y175250D03*
Y195250D03*
Y215250D03*
Y235250D03*
X281018Y175250D03*
Y195250D03*
Y215250D03*
Y235250D03*
D02*
D91*
X224250Y255250D03*
X226750Y85250D03*
X231250Y255250D03*
X233750Y85250D03*
X294250Y152750D03*
X301250D03*
X311750Y325250D03*
X318750D03*
D02*
D98*
X252750Y342750D02*
X322750D01*
D02*
D99*
X346250Y54250D02*
X380950D01*
X355250Y229250D02*
X380950D01*
X358400Y47750D02*
X379450D01*
X358400Y67750D02*
X379450D01*
X358400Y87750D02*
X379450D01*
X358400Y107750D02*
X379450D01*
X358400Y127750D02*
X379450D01*
X358400Y147750D02*
X379450D01*
X358400Y167750D02*
X379450D01*
X358400Y187750D02*
X379950D01*
X358400Y222750D02*
X379450D01*
X358400Y242750D02*
X379450D01*
X358400Y262750D02*
X379450D01*
X358400Y282750D02*
X379450D01*
X358400Y302750D02*
X379450D01*
X358400Y322750D02*
X379450D01*
X358400Y342750D02*
X379450D01*
X358400Y362750D02*
X379950D01*
X380950Y74250D02*
X346250D01*
X380950Y94250D02*
X343750D01*
X380950Y114250D02*
X349250D01*
X380950Y134250D02*
X351750D01*
X380950Y154250D02*
X355250D01*
X380950Y174250D02*
X354250D01*
X380950Y249250D02*
X346250D01*
X380950Y269250D02*
X343750D01*
X380950Y289250D02*
X349250D01*
X380950Y309250D02*
X352750D01*
X380950Y329250D02*
X355250D01*
X380950Y349250D02*
X355250D01*
X381450Y194250D02*
X355250D01*
X381450Y369250D02*
X355250D01*
X389650Y50250D02*
X404797D01*
X389650Y70250D02*
X404797D01*
X389650Y90250D02*
X404797D01*
X389650Y110250D02*
X404797D01*
X389650Y130250D02*
X404797D01*
X389650Y150250D02*
X404797D01*
X389650Y170250D02*
X404797D01*
X389650Y225250D02*
X404797D01*
X389650Y245250D02*
X404797D01*
X389650Y265250D02*
X404797D01*
X389650Y285250D02*
X404797D01*
X389650Y305250D02*
X404797D01*
X389650Y325250D02*
X404797D01*
X389650Y345250D02*
X404797D01*
Y190250D02*
X390150D01*
X404797Y365250D02*
X390150D01*
D02*
D100*
X290250Y57750D02*
Y70250D01*
D02*
D101*
X264482Y175250D02*
X237750D01*
X264482Y195250D02*
X237750D01*
X264482Y215250D02*
X237750D01*
X264482Y235250D02*
X237750D01*
D02*
D102*
X90250Y20250D03*
Y395250D03*
X430250Y20250D03*
Y395250D03*
D02*
D103*
X437750Y50250D03*
Y70250D03*
Y90250D03*
Y110250D03*
Y130250D03*
Y150250D03*
Y170250D03*
Y190250D03*
Y225250D03*
Y245250D03*
Y265250D03*
Y285250D03*
Y305250D03*
Y325250D03*
Y345250D03*
Y365250D03*
D02*
D104*
X442750Y50250D03*
Y70250D03*
Y90250D03*
Y110250D03*
Y130250D03*
Y150250D03*
Y170250D03*
Y190250D03*
Y225250D03*
Y245250D03*
Y265250D03*
Y285250D03*
Y305250D03*
Y322750D03*
Y342750D03*
Y362750D03*
D02*
D105*
X307022Y97750D03*
Y102750D03*
Y107750D03*
Y112750D03*
Y117750D03*
Y122750D03*
Y127750D03*
Y132750D03*
Y272750D03*
Y277750D03*
Y282750D03*
Y287750D03*
Y292750D03*
Y297750D03*
Y302750D03*
Y307750D03*
X328478Y97750D03*
Y102750D03*
Y107750D03*
Y112750D03*
Y117750D03*
Y122750D03*
Y127750D03*
Y132750D03*
Y272750D03*
Y277750D03*
Y282750D03*
Y287750D03*
Y292750D03*
Y297750D03*
Y302750D03*
Y307750D03*
D02*
D106*
X113550Y210250D03*
X126950D03*
X283550Y87750D03*
X296950D03*
X327750Y201050D03*
Y214450D03*
X381050Y207750D03*
X394450D03*
D02*
D107*
X237750Y175250D03*
Y195250D03*
Y215250D03*
Y235250D03*
X0Y0D02*
M02*
