G04 Easy-PC Gerber Version 25.0 Build 5877*
G04 #@! TF.Part,Single*
G04 #@! TF.FileFunction,Copper,L2,Bot*
G04 #@! TF.FilePolarity,Positive*
%FSLAX35Y35*%
%MOIN*%
G04 #@! TA.AperFunction,SMDPad,CuDef*
%ADD73R,0.04000X0.04400*%
G04 #@! TA.AperFunction,ComponentPad*
%ADD74R,0.07677X0.07677*%
G04 #@! TD.AperFunction*
%ADD23C,0.01500*%
%ADD25C,0.02500*%
G04 #@! TA.AperFunction,ViaPad*
%ADD24C,0.04800*%
G04 #@! TD.AperFunction*
%ADD26C,0.05000*%
G04 #@! TA.AperFunction,ComponentPad*
%ADD107C,0.05500*%
G04 #@! TA.AperFunction,ViaPad*
%ADD27C,0.05600*%
G04 #@! TD.AperFunction*
%ADD113C,0.06000*%
G04 #@! TA.AperFunction,ComponentPad*
%ADD76C,0.06319*%
G04 #@! TA.AperFunction,SMDPad,CuDef*
%ADD105R,0.06102X0.02756*%
%ADD88R,0.07677X0.02756*%
%ADD91R,0.04291X0.03937*%
%ADD89R,0.04400X0.04000*%
%ADD72R,0.04800X0.04000*%
G04 #@! TA.AperFunction,ComponentPad*
%ADD75C,0.07677*%
G04 #@! TA.AperFunction,SMDPad,CuDef*
%ADD90R,0.07874X0.06102*%
G04 #@! TA.AperFunction,WasherPad*
%ADD104C,0.09600*%
%ADD102C,0.26000*%
G04 #@! TD.AperFunction*
X0Y0D02*
D02*
D23*
X127050Y46250D02*
X138600D01*
X139600Y45250D01*
X127050Y66250D02*
X138600D01*
X139600Y65250D01*
X127050Y86250D02*
X138600D01*
X139600Y85250D01*
X127050Y106250D02*
X138600D01*
X139600Y105250D01*
X127050Y126250D02*
X138600D01*
X139600Y125250D01*
X127050Y146250D02*
X138600D01*
X139600Y145250D01*
X127050Y166250D02*
X138600D01*
X139600Y165250D01*
X127050Y186250D02*
X138600D01*
X139600Y185250D01*
X127050Y221250D02*
X138600D01*
X139600Y220250D01*
X127050Y241250D02*
X138600D01*
X139600Y240250D01*
X127050Y261250D02*
X138600D01*
X139600Y260250D01*
X127050Y281250D02*
X138600D01*
X139600Y280250D01*
X127050Y301250D02*
X138600D01*
X139600Y300250D01*
X127050Y321250D02*
X138600D01*
X139600Y320250D01*
X127050Y341250D02*
X138600D01*
X139600Y340250D01*
X127050Y361250D02*
X138600D01*
X139600Y360250D01*
Y45250D02*
Y55250D01*
Y65250D02*
Y75250D01*
Y85250D02*
Y95250D01*
Y105250D02*
Y115250D01*
Y125250D02*
Y135250D01*
Y145250D02*
Y155250D01*
Y165250D02*
Y175250D01*
Y185250D02*
Y195250D01*
Y220250D02*
Y230250D01*
Y240250D02*
Y250250D01*
Y260250D02*
Y270250D01*
Y280250D02*
Y290250D01*
Y300250D02*
Y310250D01*
Y320250D02*
Y330250D01*
Y340250D02*
Y350250D01*
Y360250D02*
Y370250D01*
X145900Y55250D02*
X169250D01*
X145900Y75250D02*
X169250D01*
X145900Y95250D02*
X169250D01*
X145900Y115250D02*
X169250D01*
X145900Y135250D02*
X169250D01*
X145900Y155250D02*
X169250D01*
X145900Y175250D02*
X169250D01*
X145900Y195250D02*
X169250D01*
X145900Y230250D02*
X169250D01*
X145900Y250250D02*
X169250D01*
X145900Y270250D02*
X169250D01*
X145900Y290250D02*
X169250D01*
X145900Y310250D02*
X169250D01*
X145900Y330250D02*
X169250D01*
X145900Y350250D02*
X169250D01*
X145900Y370250D02*
X169250D01*
Y55250D02*
Y45600D01*
X169600Y45250D01*
X169250Y75250D02*
Y65600D01*
X169600Y65250D01*
X169250Y95250D02*
Y85600D01*
X169600Y85250D01*
X169250Y115250D02*
Y105600D01*
X169600Y105250D01*
X169250Y125600D02*
X169600Y125250D01*
X169250Y135250D02*
Y125600D01*
Y155250D02*
Y145600D01*
X169600Y145250D01*
X169250Y175250D02*
Y165600D01*
X169600Y165250D01*
X169250Y195250D02*
Y185600D01*
X169600Y185250D01*
X169250Y230250D02*
Y220600D01*
X169600Y220250D01*
X169250Y250250D02*
Y240600D01*
X169600Y240250D01*
X169250Y270250D02*
Y260600D01*
X169600Y260250D01*
X169250Y290250D02*
Y280600D01*
X169600Y280250D01*
X169250Y300600D02*
X169600Y300250D01*
X169250Y310250D02*
Y300600D01*
Y330250D02*
Y320600D01*
X169600Y320250D01*
X169250Y350250D02*
Y340600D01*
X169600Y340250D01*
X169250Y370250D02*
Y360600D01*
X169600Y360250D01*
Y125250D02*
X169250Y125600D01*
X169600Y300250D02*
X169250Y300600D01*
X175900Y45250D02*
Y43400D01*
X172750Y40250D01*
X162750D01*
X157750Y45250D01*
X145900D01*
X175900Y65250D02*
Y63400D01*
X172750Y60250D01*
X162750D01*
X157750Y65250D01*
X145900D01*
X175900Y85250D02*
Y83400D01*
X172750Y80250D01*
X162750D01*
X157750Y85250D01*
X145900D01*
X175900Y105250D02*
Y103400D01*
X172750Y100250D01*
X162750D01*
X157750Y105250D01*
X145900D01*
X175900Y125250D02*
Y123400D01*
X172750Y120250D01*
X162750D01*
X157750Y125250D01*
X145900D01*
X175900Y145250D02*
Y143400D01*
X172750Y140250D01*
X162750D01*
X157750Y145250D01*
X145900D01*
X175900Y165250D02*
Y163400D01*
X172750Y160250D01*
X162750D01*
X157750Y165250D01*
X145900D01*
X175900Y185250D02*
Y183400D01*
X172750Y180250D01*
X162750D01*
X157750Y185250D01*
X145900D01*
X175900Y220250D02*
Y218400D01*
X172750Y215250D01*
X162750D01*
X157750Y220250D01*
X145900D01*
X175900Y240250D02*
Y238400D01*
X172750Y235250D01*
X162750D01*
X157750Y240250D01*
X145900D01*
X175900Y260250D02*
Y258400D01*
X172750Y255250D01*
X162750D01*
X157750Y260250D01*
X145900D01*
X175900Y280250D02*
Y278400D01*
X172750Y275250D01*
X162750D01*
X157750Y280250D01*
X145900D01*
X175900Y300250D02*
Y298400D01*
X172750Y295250D01*
X162750D01*
X157750Y300250D01*
X145900D01*
X175900Y320250D02*
Y318400D01*
X172750Y315250D01*
X162750D01*
X157750Y320250D01*
X145900D01*
X175900Y340250D02*
Y338400D01*
X172750Y335250D01*
X162750D01*
X157750Y340250D01*
X145900D01*
X175900Y360250D02*
Y358400D01*
X172750Y355250D01*
X162750D01*
X157750Y360250D01*
X145900D01*
X176250Y55250D02*
Y45600D01*
X175900Y45250D01*
X176250Y75250D02*
Y65600D01*
X175900Y65250D01*
X176250Y95250D02*
Y85600D01*
X175900Y85250D01*
X176250Y115250D02*
Y105600D01*
X175900Y105250D01*
X176250Y135250D02*
Y125600D01*
X175900Y125250D01*
X176250Y155250D02*
Y145600D01*
X175900Y145250D01*
X176250Y175250D02*
Y165600D01*
X175900Y165250D01*
X176250Y195250D02*
Y185600D01*
X175900Y185250D01*
X176250Y230250D02*
Y220600D01*
X175900Y220250D01*
X176250Y250250D02*
Y240600D01*
X175900Y240250D01*
X176250Y270250D02*
Y260600D01*
X175900Y260250D01*
X176250Y290250D02*
Y280600D01*
X175900Y280250D01*
X176250Y310250D02*
Y300600D01*
X175900Y300250D01*
X176250Y330250D02*
Y320600D01*
X175900Y320250D01*
X176250Y350250D02*
Y340600D01*
X175900Y340250D01*
X176250Y370250D02*
Y360600D01*
X175900Y360250D01*
X199148Y87750D02*
X192750D01*
X182750Y77750D01*
Y62750D01*
X176250Y56250D01*
Y55250D01*
X199148Y92750D02*
X193750D01*
X176250Y75250D01*
X199148Y97750D02*
X190250D01*
X177750Y85250D01*
X175900D01*
X199148Y102750D02*
X182750D01*
X180250Y105250D01*
X175900D01*
X199148Y107750D02*
X185250D01*
X182750Y110250D01*
Y118400D01*
X175900Y125250D01*
X199148Y112750D02*
X187750D01*
X185250Y115250D01*
Y122750D01*
X182750Y125250D01*
Y138400D01*
X175900Y145250D01*
X199148Y117750D02*
X190250D01*
X187750Y120250D01*
Y125250D01*
X185250Y127750D01*
Y155900D01*
X175900Y165250D01*
X199148Y122750D02*
X192750D01*
X190250Y125250D01*
Y127750D01*
X187750Y130250D01*
Y173400D01*
X175900Y185250D01*
X199148Y262750D02*
X192750D01*
X182750Y252750D01*
Y237750D01*
X176250Y231250D01*
Y230250D01*
X199148Y267750D02*
X193750D01*
X176250Y250250D01*
X199148Y272750D02*
X190250D01*
X177750Y260250D01*
X175900D01*
X199148Y277750D02*
X182750D01*
X180250Y280250D01*
X175900D01*
X199148Y282750D02*
X185250D01*
X182750Y285250D01*
Y293400D01*
X175900Y300250D01*
X199148Y287750D02*
X187750D01*
X185250Y290250D01*
Y297750D01*
X182750Y300250D01*
Y313400D01*
X175900Y320250D01*
X199148Y292750D02*
X190250D01*
X187750Y295250D01*
Y300250D01*
X185250Y302750D01*
Y330900D01*
X175900Y340250D01*
X199148Y297750D02*
X192750D01*
X190250Y300250D01*
Y302750D01*
X187750Y305250D01*
Y348400D01*
X175900Y360250D01*
X236352Y92750D02*
X222750D01*
X236352Y97750D02*
X227750D01*
X236352D02*
X252022D01*
X236352Y102750D02*
X222750D01*
X236352D02*
X252022D01*
X236352Y107750D02*
X227750D01*
X236352D02*
X252022D01*
X236352Y112750D02*
X222750D01*
X236352D02*
X252022D01*
X236352Y117750D02*
X227750D01*
X236352D02*
X252022D01*
X236352Y122750D02*
X222750D01*
X236352D02*
X252022D01*
X236352Y127750D02*
X227750D01*
X236352D02*
X252022D01*
X236352Y267750D02*
X222750D01*
X236352Y272750D02*
X227750D01*
X236352D02*
X252022D01*
X236352Y277750D02*
X222750D01*
X236352D02*
X252022D01*
X236352Y282750D02*
X227750D01*
X236352D02*
X252022D01*
X236352Y287750D02*
X222750D01*
X236352D02*
X252022D01*
X236352Y292750D02*
X227750D01*
X236352D02*
X252022D01*
X236352Y297750D02*
X222750D01*
X236352D02*
X252022D01*
X236352Y302750D02*
X227750D01*
X236352D02*
X252022D01*
X243750Y257250D02*
X240250D01*
Y257750D01*
X236352D01*
X262750Y137750D02*
Y257750D01*
Y306750D02*
X267614D01*
X268614Y307750D01*
X273478D01*
X262750Y352750D02*
Y337750D01*
X270250Y330250D01*
X265250Y62750D02*
Y75250D01*
X285250Y95250D01*
Y110250D01*
X282750Y112750D01*
Y120250D01*
X265250Y117750D02*
X270250Y112750D01*
X273478D01*
X265250Y117750D02*
X273478D01*
X265250Y127750D02*
X273478D01*
X265250Y292750D02*
X270250Y287750D01*
X273478D01*
X265250Y292750D02*
X273478D01*
X265250Y300250D02*
X268114D01*
X270614Y302750D01*
X273478D01*
X272750Y362750D02*
X267750Y357750D01*
Y342750D01*
X280250Y330250D01*
X273478Y102750D02*
X280250D01*
X273478Y107750D02*
X265250D01*
X273478Y132750D02*
X262750D01*
X257750Y127750D01*
Y82750D01*
X260250Y80250D01*
Y57750D01*
X265250Y52750D01*
X273478Y277750D02*
X265250D01*
X255250Y267750D01*
X236352D01*
X273478Y282750D02*
X267750D01*
X257750Y292750D01*
Y322750D01*
X255250Y325250D01*
X275250Y52750D02*
X270250Y57750D01*
Y75250D01*
X287750Y92750D01*
Y117750D01*
X275250Y62750D02*
Y75250D01*
X290250Y90250D01*
Y102750D01*
X292750Y105250D01*
X282750Y120250D02*
Y295250D01*
X280250Y297750D01*
X273478D01*
X282750Y120250D02*
X280250Y122750D01*
X273478D01*
X282750D02*
X273478D01*
X282750Y297750D02*
Y307750D01*
X257750Y332750D01*
Y357750D01*
X262750Y362750D01*
X282750Y297750D02*
X273478D01*
X282750Y362750D02*
X277750Y357750D01*
Y347750D01*
X300250Y325250D01*
Y302750D01*
X285250Y62750D02*
Y80250D01*
X300250Y95250D01*
Y127750D01*
X287750Y117750D02*
Y292750D01*
Y330250D01*
X272750Y345250D01*
Y352750D01*
X292750Y307750D02*
Y325250D01*
X300250Y127750D02*
Y302750D01*
X312750Y137750D02*
Y267750D01*
X315250Y270250D01*
Y282750D01*
X367750Y120250D02*
Y120550D01*
X373450Y126250D01*
X367750Y140250D02*
Y140550D01*
X373450Y146250D01*
X367750Y160250D02*
Y160550D01*
X373450Y166250D01*
X367750Y180250D02*
Y180550D01*
X373450Y186250D01*
X367750Y235250D02*
Y235550D01*
X373450Y241250D01*
X367750Y255250D02*
Y255550D01*
X373450Y261250D01*
X367750Y275250D02*
Y275550D01*
X373450Y281250D01*
X367750Y295250D02*
Y295550D01*
X373450Y301250D01*
X367750Y315250D02*
Y315550D01*
X373450Y321250D01*
X367750Y335250D02*
Y335550D01*
X373450Y341250D01*
X367750Y355250D02*
Y355550D01*
X373450Y361250D01*
X370250Y40250D02*
Y43050D01*
X373450Y46250D01*
X370250Y60250D02*
Y63050D01*
X373450Y66250D01*
X370250Y80250D02*
Y83050D01*
X373450Y86250D01*
X370250Y100250D02*
Y103050D01*
X373450Y106250D01*
X370250Y215250D02*
Y218050D01*
X373450Y221250D01*
Y46250D02*
X358600D01*
X357750Y47100D01*
X373450Y66250D02*
X358600D01*
X357750Y67100D01*
X373450Y86250D02*
X358600D01*
X357750Y87100D01*
X373450Y106250D02*
X358600D01*
X357750Y107100D01*
X373450Y126250D02*
X358600D01*
X357750Y127100D01*
X373450Y146250D02*
X358600D01*
X357750Y147100D01*
X373450Y166250D02*
X358600D01*
X357750Y167100D01*
X373450Y186250D02*
X358600D01*
X357750Y187100D01*
X373450Y221250D02*
X358600D01*
X357750Y222100D01*
X373450Y241250D02*
X358600D01*
X357750Y242100D01*
X373450Y261250D02*
X358600D01*
X357750Y262100D01*
X373450Y281250D02*
X358600D01*
X357750Y282100D01*
X373450Y301250D02*
X358600D01*
X357750Y302100D01*
X373450Y321250D02*
X358600D01*
X357750Y322100D01*
X373450Y341250D02*
X358600D01*
X357750Y342100D01*
X373450Y361250D02*
X358600D01*
X357750Y362100D01*
X382150Y50250D02*
X393350D01*
X382150Y70250D02*
X393350D01*
X382150Y90250D02*
X393350D01*
X382150Y110250D02*
X393350D01*
X382150Y130250D02*
X393350D01*
X382150Y150250D02*
X393350D01*
X382150Y170250D02*
X393350D01*
X382150Y190250D02*
X393350D01*
X382150Y225250D02*
X393350D01*
X382150Y245250D02*
X393350D01*
X382150Y265250D02*
X393350D01*
X382150Y285250D02*
X393350D01*
X382150Y305250D02*
X393350D01*
X382150Y325250D02*
X393350D01*
X382150Y345250D02*
X393350D01*
X382150Y365250D02*
X393350D01*
D02*
D24*
X152750Y60250D03*
Y80250D03*
Y100250D03*
Y120250D03*
Y140250D03*
Y160250D03*
Y180250D03*
Y234750D03*
Y254750D03*
Y274750D03*
Y294750D03*
Y314750D03*
Y334750D03*
Y354750D03*
X217750Y85250D03*
Y258750D03*
X222750Y92750D03*
Y102750D03*
Y112750D03*
Y122750D03*
Y267750D03*
Y277750D03*
Y287750D03*
Y297750D03*
X227750Y97750D03*
Y107750D03*
Y117750D03*
Y127750D03*
Y272750D03*
Y282750D03*
Y292750D03*
Y302750D03*
X243750Y257250D03*
X255250Y325250D03*
X262750Y137750D03*
Y257750D03*
Y306750D03*
X265250Y107750D03*
Y117750D03*
Y127750D03*
Y292750D03*
Y300250D03*
X270250Y330250D03*
X280250Y102750D03*
Y330250D03*
X282750Y122750D03*
Y297750D03*
X287750Y117750D03*
Y292750D03*
X292750Y105250D03*
Y307750D03*
Y325250D03*
X300250Y127750D03*
Y302750D03*
X305250Y327750D03*
X307022Y152750D03*
X312750Y137750D03*
X315250Y282750D03*
X347750Y207750D03*
X367750Y120250D03*
Y140250D03*
Y160250D03*
Y180250D03*
Y235250D03*
Y255250D03*
Y275250D03*
Y295250D03*
Y315250D03*
Y335250D03*
Y355250D03*
X370250Y40250D03*
Y60250D03*
Y80250D03*
Y100250D03*
Y215250D03*
D02*
D25*
X92750Y80250D02*
Y60250D01*
X145250D01*
X92750Y80250D02*
X145250D01*
X92750Y100250D02*
Y80250D01*
Y100250D02*
X145250D01*
X92750Y120250D02*
Y100250D01*
Y120250D02*
X145250D01*
X92750Y142750D02*
Y120250D01*
Y142750D02*
Y140250D01*
X145250D01*
X92750Y160250D02*
Y142750D01*
Y160250D02*
X145250D01*
X92750Y180250D02*
Y200250D01*
Y180250D02*
Y160250D01*
Y200250D02*
X145250D01*
X92750Y235250D02*
Y200250D01*
Y235250D02*
X145250D01*
X92750Y255250D02*
Y235250D01*
Y255250D02*
X145250D01*
X92750Y275250D02*
Y255250D01*
Y275250D02*
X145250D01*
X92750Y295250D02*
Y275250D01*
Y295250D02*
X145250D01*
X92750Y317750D02*
Y295250D01*
Y317750D02*
Y315250D01*
X145250D01*
X92750Y335250D02*
Y317750D01*
Y335250D02*
X145250D01*
X92750Y355250D02*
Y375250D01*
X145250D01*
X92750Y355250D02*
Y335250D01*
X145250Y60250D02*
Y55900D01*
X145900Y55250D01*
X145250Y80250D02*
Y75900D01*
X145900Y75250D01*
X145250Y100250D02*
Y95900D01*
X145900Y95250D01*
X145250Y120250D02*
Y115900D01*
X145900Y115250D01*
X145250Y140250D02*
Y135900D01*
X145900Y135250D01*
X145250Y160250D02*
Y155900D01*
X145900Y155250D01*
X145250Y200250D02*
Y195900D01*
X145900Y195250D01*
X145250Y235250D02*
Y230900D01*
X145900Y230250D01*
X145250Y255250D02*
Y250900D01*
X145900Y250250D01*
X145250Y275250D02*
Y270900D01*
X145900Y270250D01*
X145250Y295250D02*
Y290900D01*
X145900Y290250D01*
X145250Y315250D02*
Y310900D01*
X145900Y310250D01*
X145250Y335250D02*
Y330900D01*
X145900Y330250D01*
X145250Y375250D02*
Y370900D01*
X145900Y370250D01*
Y175250D02*
Y180250D01*
X92750D01*
X145900Y350250D02*
Y355250D01*
X92750D01*
X152750Y60250D02*
X145250D01*
X152750Y80250D02*
X145250D01*
X152750Y100250D02*
X145250D01*
X152750Y120250D02*
X145250D01*
X152750Y140250D02*
X145250D01*
X152750Y160250D02*
X145250D01*
X152750Y180250D02*
X145900D01*
X152750Y200750D02*
X149250D01*
Y200250D01*
X145250D01*
X152750Y234750D02*
X149250D01*
Y235250D01*
X145250D01*
X152750Y254750D02*
X149250D01*
Y255250D01*
X145250D01*
X152750Y274750D02*
X149250D01*
Y275250D01*
X145250D01*
X152750Y294750D02*
X149250D01*
Y295250D01*
X145250D01*
X152750Y314750D02*
X149250D01*
Y315250D01*
X145250D01*
X152750Y334750D02*
X149250D01*
Y335250D01*
X145250D01*
X152750Y354750D02*
X149250D01*
Y355250D01*
X145900D01*
X152750Y375750D02*
X149250D01*
Y375250D01*
X145250D01*
X199148Y82750D02*
X207750D01*
X199148Y257750D02*
X207750D01*
Y82750D02*
X215250D01*
X217750Y85250D01*
X207750Y127750D02*
Y82750D01*
Y127750D02*
X199148D01*
X207750Y257750D02*
Y258750D01*
X217750D01*
X207750Y302750D02*
Y257750D01*
Y302750D02*
X199148D01*
X217750Y85250D02*
X220250Y87750D01*
X236352D01*
X217750Y258750D02*
X221750Y262750D01*
X236352D01*
X222750Y135250D02*
X215250Y127750D01*
X207750D01*
X222750Y310250D02*
X215250Y302750D01*
X207750D01*
X236352Y82750D02*
X245250D01*
X236352Y257750D02*
X250250D01*
X258750Y266250D01*
X268750D01*
X245250Y132750D02*
X238636D01*
X236136Y135250D01*
X222750D01*
X245250Y307750D02*
X238636D01*
X236136Y310250D01*
X222750D01*
X252022Y132750D02*
X245250D01*
X252022Y307750D02*
X245250D01*
X268750Y266250D02*
X270750D01*
Y272750D01*
X273478D01*
X272750Y90250D02*
Y97750D01*
X273478D01*
X305250Y267750D02*
Y267022D01*
X307022Y265250D01*
Y92750D02*
Y152750D01*
Y325978D02*
X305250Y327750D01*
X350250Y55250D02*
Y80250D01*
Y55250D02*
Y60250D01*
X352750D01*
X350250Y80250D02*
Y100250D01*
Y80250D02*
X352750D01*
X350250Y100250D02*
Y120250D01*
Y100250D02*
X352750D01*
X350250Y120250D02*
Y137750D01*
Y120250D02*
X352750D01*
X350250Y137750D02*
Y140250D01*
Y160250D01*
Y140250D02*
X352750D01*
X350250Y160250D02*
Y180250D01*
Y160250D02*
X352750D01*
X350250Y180250D02*
X352750D01*
X350250Y215250D02*
Y180250D01*
Y215250D02*
Y230250D01*
Y255250D01*
Y230250D02*
Y235250D01*
X352750D01*
X350250Y255250D02*
Y275250D01*
Y255250D02*
X352750D01*
X350250Y275250D02*
Y295250D01*
Y275250D02*
X352750D01*
X350250Y295250D02*
Y312750D01*
Y295250D02*
X352750D01*
X350250Y312750D02*
Y315250D01*
Y335250D01*
Y315250D02*
X352750D01*
X350250Y335250D02*
Y355250D01*
X352750D01*
X350250Y335250D02*
X352750D01*
Y40250D02*
X350250D01*
Y55250D01*
X352750Y215250D02*
X350250D01*
X373450Y54250D02*
X358600D01*
X357750Y53400D01*
X373450Y74250D02*
X358600D01*
X357750Y73400D01*
X373450Y94250D02*
X358600D01*
X357750Y93400D01*
X373450Y114250D02*
X358600D01*
X357750Y113400D01*
X373450Y134250D02*
X358600D01*
X357750Y133400D01*
X373450Y154250D02*
X358600D01*
X357750Y153400D01*
X373450Y174250D02*
X358600D01*
X357750Y173400D01*
X373450Y194250D02*
X379450Y200250D01*
X373450Y194250D02*
X358600D01*
X357750Y193400D01*
X373450Y229250D02*
X358600D01*
X357750Y228400D01*
X373450Y249250D02*
X358600D01*
X357750Y248400D01*
X373450Y269250D02*
X358600D01*
X357750Y268400D01*
X373450Y289250D02*
X358600D01*
X357750Y288400D01*
X373450Y309250D02*
X358600D01*
X357750Y308400D01*
X373450Y329250D02*
X358600D01*
X357750Y328400D01*
X373450Y349250D02*
X358600D01*
X357750Y348400D01*
X373450Y369250D02*
X379450Y375250D01*
X373450Y369250D02*
X358600D01*
X357750Y368400D01*
X379450Y200250D02*
X357750D01*
X379450D02*
X427750D01*
X379450Y375250D02*
X427750D01*
Y355250D01*
X402050Y46250D02*
X415482D01*
X419482Y50250D01*
X402050Y66250D02*
X415482D01*
X419482Y70250D01*
X402050Y86250D02*
X415482D01*
X419482Y90250D01*
X402050Y106250D02*
X415482D01*
X419482Y110250D01*
X402050Y126250D02*
X415482D01*
X419482Y130250D01*
X402050Y146250D02*
X415482D01*
X419482Y150250D01*
X402050Y166250D02*
X415482D01*
X419482Y170250D01*
X402050Y186250D02*
X415482D01*
X419482Y190250D01*
X402050Y221250D02*
X415482D01*
X419482Y225250D01*
X402050Y241250D02*
X415482D01*
X419482Y245250D01*
X402050Y261250D02*
X415482D01*
X419482Y265250D01*
X402050Y281250D02*
X415482D01*
X419482Y285250D01*
X402050Y301250D02*
X415482D01*
X419482Y305250D01*
X402050Y321250D02*
X415482D01*
X419482Y325250D01*
X402050Y341250D02*
X415482D01*
X419482Y345250D01*
X402050Y361250D02*
X415482D01*
X419482Y365250D01*
X427750Y60250D02*
Y45250D01*
X407750Y25250D01*
X262750D01*
X245250Y42750D01*
Y52750D01*
X427750Y60250D02*
X379450D01*
X373450Y54250D01*
X427750Y80250D02*
Y60250D01*
Y80250D02*
X379450D01*
X373450Y74250D01*
X427750Y100250D02*
Y80250D01*
Y100250D02*
X379450D01*
X373450Y94250D01*
X427750Y120250D02*
Y100250D01*
Y120250D02*
X379450D01*
X373450Y114250D01*
X427750Y140250D02*
Y120250D01*
Y140250D02*
X379450D01*
X373450Y134250D01*
X427750Y160250D02*
Y140250D01*
Y160250D02*
X379450D01*
X373450Y154250D01*
X427750Y180250D02*
Y160250D01*
Y180250D02*
X379450D01*
X373450Y174250D01*
X427750Y200250D02*
Y180250D01*
Y207750D02*
Y200250D01*
Y235250D02*
Y207750D01*
Y235250D02*
X379450D01*
X373450Y229250D01*
X427750Y255250D02*
Y235250D01*
Y255250D02*
X379450D01*
X373450Y249250D01*
X427750Y275250D02*
Y255250D01*
Y275250D02*
X379450D01*
X373450Y269250D01*
X427750Y295250D02*
Y275250D01*
Y295250D02*
X379450D01*
X373450Y289250D01*
X427750Y315250D02*
Y295250D01*
Y315250D02*
X379450D01*
X373450Y309250D01*
X427750Y335250D02*
Y315250D01*
Y335250D02*
X379450D01*
X373450Y329250D01*
X427750Y355250D02*
Y335250D01*
Y355250D02*
X379450D01*
X373450Y349250D01*
D02*
D26*
X84482Y50250D02*
X55250D01*
X84482Y70250D02*
X55565D01*
X55250Y69935D01*
X84482Y90250D02*
X55880D01*
X55250Y89620D01*
X84482Y110250D02*
X56195D01*
X55250Y109305D01*
X84482Y130250D02*
X56510D01*
X55250Y128990D01*
X84482Y150250D02*
X56825D01*
X55250Y148675D01*
X84482Y170250D02*
X57140D01*
X55250Y168360D01*
X84482Y190250D02*
X57455D01*
X55250Y188045D01*
X84482Y225250D02*
X55250D01*
X84482Y245250D02*
X55565D01*
X55250Y244935D01*
X84482Y265250D02*
X55880D01*
X55250Y264620D01*
X84482Y285250D02*
X56195D01*
X55250Y284305D01*
X84482Y305250D02*
X56510D01*
X55250Y303990D01*
X84482Y325250D02*
X56825D01*
X55250Y323675D01*
X84482Y345250D02*
X57140D01*
X55250Y343360D01*
X84482Y365250D02*
X57455D01*
X55250Y363045D01*
X101018Y50250D02*
X118350D01*
X101018Y70250D02*
X118350D01*
X101018Y90250D02*
X118350D01*
X101018Y110250D02*
X118350D01*
X101018Y130250D02*
X118350D01*
X101018Y150250D02*
X118350D01*
X101018Y170250D02*
X118350D01*
X101018Y190250D02*
X118350D01*
X101018Y225250D02*
X118350D01*
X101018Y245250D02*
X118350D01*
X101018Y265250D02*
X118350D01*
X101018Y285250D02*
X118350D01*
X101018Y305250D02*
X118350D01*
X101018Y325250D02*
X118350D01*
X101018Y345250D02*
X118350D01*
X101018Y365250D02*
X118350D01*
X145250Y200250D02*
X147750D01*
X150250Y202750D01*
X185250D01*
X205250Y182750D01*
Y152750D01*
X212750Y145250D01*
X145250Y375250D02*
X147750D01*
X150250Y377750D01*
X185250D01*
X205250Y357750D01*
Y342750D01*
Y327750D01*
X222750Y310250D01*
X212500Y67500D02*
X208750Y71250D01*
Y328750D01*
X232750Y352750D01*
X212750Y145250D02*
Y322750D01*
X232750Y342750D01*
X212750Y145250D02*
Y67750D01*
X212500Y67500D01*
X212750Y145250D02*
X222750Y135250D01*
X232750Y342750D02*
X205250D01*
X232750D02*
Y352750D01*
Y362750D02*
Y352750D01*
X235250Y52750D02*
X227250D01*
X212500Y67500D01*
X235250Y62750D02*
X227750D01*
X207750Y82750D01*
X245250Y62750D02*
Y52750D01*
X252750Y342750D02*
X232750D01*
X252750Y352750D02*
Y342750D01*
Y362750D02*
Y352750D01*
X255250Y52750D02*
Y45250D01*
X267750Y32750D01*
X312750D01*
X325250Y45250D01*
Y75250D01*
X342750Y92750D01*
X285250Y52750D02*
Y42750D01*
X310250D01*
X315250Y47750D01*
X292750Y362750D02*
Y352750D01*
X295250Y52750D02*
Y62750D01*
X302750Y352750D02*
X312750D01*
X322750Y342750D01*
X302750Y362750D02*
Y352750D01*
X305250Y62750D02*
Y64250D01*
X335250Y94250D01*
Y320250D01*
X330250Y325250D01*
X305250Y62750D02*
Y52750D01*
Y327750D02*
X282750Y350250D01*
Y352750D01*
X307022Y152750D02*
Y265250D01*
Y325978D01*
X322750Y342750D02*
X327750Y337750D01*
X325250Y72750D02*
X315250Y62750D01*
X305250D01*
X327750Y337750D02*
X342750Y322750D01*
Y207750D01*
X330250Y325250D02*
Y77750D01*
X325250Y72750D01*
X330250Y325250D02*
X302750Y352750D01*
X340250Y87750D02*
X325250Y72750D01*
X342750Y92750D02*
Y90250D01*
X340250Y87750D01*
X342750Y207750D02*
Y92750D01*
X347750Y207750D02*
X342750D01*
X350250Y137750D02*
X337750D01*
Y140250D01*
X322750D01*
X350250Y312750D02*
X337250D01*
Y315250D01*
X322750D01*
X379450Y375250D02*
X242750D01*
Y352750D01*
X425250Y207750D02*
X427750D01*
X442750Y50250D02*
X467750D01*
X442750Y70250D02*
X467435D01*
X467750Y69935D01*
X442750Y90250D02*
X467120D01*
X467750Y89620D01*
X442750Y110250D02*
X466805D01*
X467750Y109305D01*
X442750Y130250D02*
X466490D01*
X467750Y128990D01*
X442750Y150250D02*
X466175D01*
X467750Y148675D01*
X442750Y170250D02*
X465860D01*
X467750Y168360D01*
X442750Y190250D02*
X465545D01*
X467750Y188045D01*
Y225250D02*
X436018D01*
X467750Y244935D02*
X436333D01*
X436018Y245250D01*
X467750Y264620D02*
X436648D01*
X436018Y265250D01*
X467750Y284305D02*
X436963D01*
X436018Y285250D01*
X467750Y303990D02*
X437278D01*
X436018Y305250D01*
X467750Y323675D02*
X437593D01*
X436018Y325250D01*
X467750Y343360D02*
X437907D01*
X436018Y345250D01*
X467750Y363045D02*
X438222D01*
X436018Y365250D01*
D02*
D27*
X152750Y200750D03*
Y375750D03*
X245250Y82750D03*
Y132750D03*
Y307750D03*
X252750Y342750D03*
X268750Y266250D03*
X272750Y90250D03*
X305250Y267750D03*
X307022Y92750D03*
X315250Y47750D03*
X322750Y140250D03*
Y315250D03*
Y342750D03*
X352750Y40250D03*
Y60250D03*
Y80250D03*
Y100250D03*
Y120250D03*
Y140250D03*
Y160250D03*
Y180250D03*
Y215250D03*
Y235250D03*
Y255250D03*
Y275250D03*
Y295250D03*
Y315250D03*
Y335250D03*
Y355250D03*
X357750Y200250D03*
X425250Y207750D03*
D02*
D72*
X118350Y50250D03*
Y70250D03*
Y90250D03*
Y110250D03*
Y130250D03*
Y150250D03*
Y170250D03*
Y190250D03*
Y225250D03*
Y245250D03*
Y265250D03*
Y285250D03*
Y305250D03*
Y325250D03*
Y345250D03*
Y365250D03*
X127050Y46250D03*
Y54250D03*
Y66250D03*
Y74250D03*
Y86250D03*
Y94250D03*
Y106250D03*
Y114250D03*
Y126250D03*
Y134250D03*
Y146250D03*
Y154250D03*
Y166250D03*
Y174250D03*
Y186250D03*
Y194250D03*
Y221250D03*
Y229250D03*
Y241250D03*
Y249250D03*
Y261250D03*
Y269250D03*
Y281250D03*
Y289250D03*
Y301250D03*
Y309250D03*
Y321250D03*
Y329250D03*
Y341250D03*
Y349250D03*
Y361250D03*
Y369250D03*
X373450Y46250D03*
Y54250D03*
Y66250D03*
Y74250D03*
Y86250D03*
Y94250D03*
Y106250D03*
Y114250D03*
Y126250D03*
Y134250D03*
Y146250D03*
Y154250D03*
Y166250D03*
Y174250D03*
Y186250D03*
Y194250D03*
Y221250D03*
Y229250D03*
Y241250D03*
Y249250D03*
Y261250D03*
Y269250D03*
Y281250D03*
Y289250D03*
Y301250D03*
Y309250D03*
Y321250D03*
Y329250D03*
Y341250D03*
Y349250D03*
Y361250D03*
Y369250D03*
X382150Y50250D03*
Y70250D03*
Y90250D03*
Y110250D03*
Y130250D03*
Y150250D03*
Y170250D03*
Y190250D03*
Y225250D03*
Y245250D03*
Y265250D03*
Y285250D03*
Y305250D03*
Y325250D03*
Y345250D03*
Y365250D03*
X393350Y50250D03*
Y70250D03*
Y90250D03*
Y110250D03*
Y130250D03*
Y150250D03*
Y170250D03*
Y190250D03*
Y225250D03*
Y245250D03*
Y265250D03*
Y285250D03*
Y305250D03*
Y325250D03*
Y345250D03*
Y365250D03*
X402050Y46250D03*
Y54250D03*
Y66250D03*
Y74250D03*
Y86250D03*
Y94250D03*
Y106250D03*
Y114250D03*
Y126250D03*
Y134250D03*
Y146250D03*
Y154250D03*
Y166250D03*
Y174250D03*
Y186250D03*
Y194250D03*
Y221250D03*
Y229250D03*
Y241250D03*
Y249250D03*
Y261250D03*
Y269250D03*
Y281250D03*
Y289250D03*
Y301250D03*
Y309250D03*
Y321250D03*
Y329250D03*
Y341250D03*
Y349250D03*
Y361250D03*
Y369250D03*
D02*
D73*
X139600Y45250D03*
Y55250D03*
Y65250D03*
Y75250D03*
Y85250D03*
Y95250D03*
Y105250D03*
Y115250D03*
Y125250D03*
Y135250D03*
Y145250D03*
Y155250D03*
Y165250D03*
Y175250D03*
Y185250D03*
Y195250D03*
Y220250D03*
Y230250D03*
Y240250D03*
Y250250D03*
Y260250D03*
Y270250D03*
Y280250D03*
Y290250D03*
Y300250D03*
Y310250D03*
Y320250D03*
Y330250D03*
Y340250D03*
Y350250D03*
Y360250D03*
Y370250D03*
X145900Y45250D03*
Y55250D03*
Y65250D03*
Y75250D03*
Y85250D03*
Y95250D03*
Y105250D03*
Y115250D03*
Y125250D03*
Y135250D03*
Y145250D03*
Y155250D03*
Y165250D03*
Y175250D03*
Y185250D03*
Y195250D03*
Y220250D03*
Y230250D03*
Y240250D03*
Y250250D03*
Y260250D03*
Y270250D03*
Y280250D03*
Y290250D03*
Y300250D03*
Y310250D03*
Y320250D03*
Y330250D03*
Y340250D03*
Y350250D03*
Y360250D03*
Y370250D03*
X169600Y45250D03*
Y65250D03*
Y85250D03*
Y105250D03*
Y125250D03*
Y145250D03*
Y165250D03*
Y185250D03*
Y220250D03*
Y240250D03*
Y260250D03*
Y280250D03*
Y300250D03*
Y320250D03*
Y340250D03*
Y360250D03*
X175900Y45250D03*
Y65250D03*
Y85250D03*
Y105250D03*
Y125250D03*
Y145250D03*
Y165250D03*
Y185250D03*
Y220250D03*
Y240250D03*
Y260250D03*
Y280250D03*
Y300250D03*
Y320250D03*
Y340250D03*
Y360250D03*
D02*
D74*
X55250Y50250D03*
Y225250D03*
X467750Y50250D03*
Y225250D03*
D02*
D75*
X55250Y69935D03*
Y89620D03*
Y109305D03*
Y128990D03*
Y148675D03*
Y168360D03*
Y188045D03*
Y244935D03*
Y264620D03*
Y284305D03*
Y303990D03*
Y323675D03*
Y343360D03*
Y363045D03*
X467750Y69935D03*
Y89620D03*
Y109305D03*
Y128990D03*
Y148675D03*
Y168360D03*
Y188045D03*
Y244935D03*
Y264620D03*
Y284305D03*
Y303990D03*
Y323675D03*
Y343360D03*
Y363045D03*
D02*
D76*
X232750Y352750D03*
Y362750D03*
X235250Y52750D03*
Y62750D03*
X242750Y352750D03*
Y362750D03*
X245250Y52750D03*
Y62750D03*
X252750Y352750D03*
Y362750D03*
X255250Y52750D03*
Y62750D03*
X262750Y352750D03*
Y362750D03*
X265250Y52750D03*
Y62750D03*
X272750Y352750D03*
Y362750D03*
X275250Y52750D03*
Y62750D03*
X282750Y352750D03*
Y362750D03*
X285250Y52750D03*
Y62750D03*
X292750Y352750D03*
Y362750D03*
X295250Y52750D03*
Y62750D03*
X302750Y352750D03*
Y362750D03*
X305250Y52750D03*
Y62750D03*
D02*
D88*
X199148Y82750D03*
Y87750D03*
Y92750D03*
Y97750D03*
Y102750D03*
Y107750D03*
Y112750D03*
Y117750D03*
Y122750D03*
Y127750D03*
Y257750D03*
Y262750D03*
Y267750D03*
Y272750D03*
Y277750D03*
Y282750D03*
Y287750D03*
Y292750D03*
Y297750D03*
Y302750D03*
X236352Y82750D03*
Y87750D03*
Y92750D03*
Y97750D03*
Y102750D03*
Y107750D03*
Y112750D03*
Y117750D03*
Y122750D03*
Y127750D03*
Y257750D03*
Y262750D03*
Y267750D03*
Y272750D03*
Y277750D03*
Y282750D03*
Y287750D03*
Y292750D03*
Y297750D03*
Y302750D03*
D02*
D89*
X357750Y47100D03*
Y53400D03*
Y67100D03*
Y73400D03*
Y87100D03*
Y93400D03*
Y107100D03*
Y113400D03*
Y127100D03*
Y133400D03*
Y147100D03*
Y153400D03*
Y167100D03*
Y173400D03*
Y187100D03*
Y193400D03*
Y222100D03*
Y228400D03*
Y242100D03*
Y248400D03*
Y262100D03*
Y268400D03*
Y282100D03*
Y288400D03*
Y302100D03*
Y308400D03*
Y322100D03*
Y328400D03*
Y342100D03*
Y348400D03*
Y362100D03*
Y368400D03*
D02*
D90*
X84482Y50250D03*
Y70250D03*
Y90250D03*
Y110250D03*
Y130250D03*
Y150250D03*
Y170250D03*
Y190250D03*
Y225250D03*
Y245250D03*
Y265250D03*
Y285250D03*
Y305250D03*
Y325250D03*
Y345250D03*
Y365250D03*
X101018Y50250D03*
Y70250D03*
Y90250D03*
Y110250D03*
Y130250D03*
Y150250D03*
Y170250D03*
Y190250D03*
Y225250D03*
Y245250D03*
Y265250D03*
Y285250D03*
Y305250D03*
Y325250D03*
Y345250D03*
Y365250D03*
X419482Y50250D03*
Y70250D03*
Y90250D03*
Y110250D03*
Y130250D03*
Y150250D03*
Y170250D03*
Y190250D03*
Y225250D03*
Y245250D03*
Y265250D03*
Y285250D03*
Y305250D03*
Y325250D03*
Y345250D03*
Y365250D03*
X436018Y50250D03*
Y70250D03*
Y90250D03*
Y110250D03*
Y130250D03*
Y150250D03*
Y170250D03*
Y190250D03*
Y225250D03*
Y245250D03*
Y265250D03*
Y285250D03*
Y305250D03*
Y325250D03*
Y345250D03*
Y365250D03*
D02*
D91*
X169250Y55250D03*
Y75250D03*
Y95250D03*
Y115250D03*
Y135250D03*
Y155250D03*
Y175250D03*
Y195250D03*
Y230250D03*
Y250250D03*
Y270250D03*
Y290250D03*
Y310250D03*
Y330250D03*
Y350250D03*
Y370250D03*
X176250Y55250D03*
Y75250D03*
Y95250D03*
Y115250D03*
Y135250D03*
Y155250D03*
Y175250D03*
Y195250D03*
Y230250D03*
Y250250D03*
Y270250D03*
Y290250D03*
Y310250D03*
Y330250D03*
Y350250D03*
Y370250D03*
D02*
D102*
X90250Y20250D03*
Y395250D03*
X430250Y20250D03*
Y395250D03*
D02*
D104*
X442750Y50250D03*
Y70250D03*
Y90250D03*
Y110250D03*
Y130250D03*
Y150250D03*
Y170250D03*
Y190250D03*
Y225250D03*
Y245250D03*
Y265250D03*
Y285250D03*
Y305250D03*
Y322750D03*
Y342750D03*
Y362750D03*
D02*
D105*
X252022Y97750D03*
Y102750D03*
Y107750D03*
Y112750D03*
Y117750D03*
Y122750D03*
Y127750D03*
Y132750D03*
Y272750D03*
Y277750D03*
Y282750D03*
Y287750D03*
Y292750D03*
Y297750D03*
Y302750D03*
Y307750D03*
X273478Y97750D03*
Y102750D03*
Y107750D03*
Y112750D03*
Y117750D03*
Y122750D03*
Y127750D03*
Y132750D03*
Y272750D03*
Y277750D03*
Y282750D03*
Y287750D03*
Y292750D03*
Y297750D03*
Y302750D03*
Y307750D03*
D02*
D107*
X237750Y175250D03*
Y195250D03*
Y215250D03*
Y235250D03*
D02*
D113*
X340250Y87750D02*
Y325250D01*
X327750Y337750D01*
X0Y0D02*
M02*
